<svg xmlns="http://www.w3.org/2000/svg" xmlns:xlink="http://www.w3.org/1999/xlink" contentStyleType="text/css" data-diagram-type="ACTIVITY" height="766px" preserveAspectRatio="none" style="width:1750px;height:766px;background:#FFFFFF;" version="1.1" viewBox="0 0 1750 766" width="1750px" zoomAndPan="magnify"><title>**Flux d'Affichage des Offres**</title><defs/><g><text fill="#000000" font-family="sans-serif" font-size="16" font-weight="bold" lengthAdjust="spacing" textLength="244.5703" x="751.519" y="34.8516">Flux d'Affichage des Offres</text><ellipse cx="880.8042" cy="59.625" fill="#222222" rx="10" ry="10" style="stroke:#222222;stroke-width:1;"/><rect fill="#FFECB3" height="33.9688" rx="12.5" ry="12.5" style="stroke:#333333;stroke-width:0.5;" width="195.3301" x="783.1392" y="89.625"/><text fill="#000000" font-family="sans-serif" font-size="12" lengthAdjust="spacing" textLength="175.3301" x="793.1392" y="110.7637">Utilisateur clique sur "Offres"</text><path d="M990.9048,148.5938 L990.9048,156.5781 L970.9048,160.5781 L990.9048,164.5781 L990.9048,172.5625 A0,0 0 0 0 990.9048,172.5625 L1151.897,172.5625 A0,0 0 0 0 1151.897,172.5625 L1151.897,158.5938 L1141.897,148.5938 L990.9048,148.5938 A0,0 0 0 0 990.9048,148.5938" fill="#FEFFDD" style="stroke:#181818;stroke-width:0.5;"/><path d="M1141.897,148.5938 L1141.897,158.5938 L1151.897,158.5938 L1141.897,148.5938" fill="#FEFFDD" style="stroke:#181818;stroke-width:0.5;"/><text fill="#000000" font-family="sans-serif" font-size="12" lengthAdjust="spacing" textLength="139.9922" x="996.9048" y="164.7324">OffreController::index()</text><rect fill="#FFECB3" height="33.9688" rx="12.5" ry="12.5" style="stroke:#333333;stroke-width:0.5;" width="180.2012" x="790.7036" y="143.5938"/><text fill="#000000" font-family="sans-serif" font-size="12" lengthAdjust="spacing" textLength="160.2012" x="800.7036" y="164.7324">Traitement de la demande</text><path d="M1018.7515,202.5625 L1018.7515,210.5469 L998.7515,214.5469 L1018.7515,218.5469 L1018.7515,226.5313 A0,0 0 0 0 1018.7515,226.5313 L1186.2944,226.5313 A0,0 0 0 0 1186.2944,226.5313 L1186.2944,212.5625 L1176.2944,202.5625 L1018.7515,202.5625 A0,0 0 0 0 1018.7515,202.5625" fill="#FEFFDD" style="stroke:#181818;stroke-width:0.5;"/><path d="M1176.2944,202.5625 L1176.2944,212.5625 L1186.2944,212.5625 L1176.2944,202.5625" fill="#FEFFDD" style="stroke:#181818;stroke-width:0.5;"/><text fill="#000000" font-family="sans-serif" font-size="12" lengthAdjust="spacing" textLength="146.543" x="1024.7515" y="218.7012">Extraction depuis $_GET</text><rect fill="#FFECB3" height="33.9688" rx="12.5" ry="12.5" style="stroke:#333333;stroke-width:0.5;" width="235.8945" x="762.8569" y="197.5625"/><text fill="#000000" font-family="sans-serif" font-size="12" lengthAdjust="spacing" textLength="215.8945" x="772.8569" y="218.7012">Pr&#233;paration des filtres de recherche</text><path d="M1064.7036,256.5313 L1064.7036,264.5156 L1044.7036,268.5156 L1064.7036,272.5156 L1064.7036,280.5 A0,0 0 0 0 1064.7036,280.5 L1316.5571,280.5 A0,0 0 0 0 1316.5571,280.5 L1316.5571,266.5313 L1306.5571,256.5313 L1064.7036,256.5313 A0,0 0 0 0 1064.7036,256.5313" fill="#FEFFDD" style="stroke:#181818;stroke-width:0.5;"/><path d="M1306.5571,256.5313 L1306.5571,266.5313 L1316.5571,266.5313 L1306.5571,256.5313" fill="#FEFFDD" style="stroke:#181818;stroke-width:0.5;"/><text fill="#000000" font-family="sans-serif" font-size="12" lengthAdjust="spacing" textLength="230.8535" x="1070.7036" y="272.6699">OffreModel::getOffresWithPagination()</text><rect fill="#FFECB3" height="33.9688" rx="12.5" ry="12.5" style="stroke:#333333;stroke-width:0.5;" width="327.7988" x="716.9048" y="251.5313"/><text fill="#000000" font-family="sans-serif" font-size="12" lengthAdjust="spacing" textLength="307.7988" x="726.9048" y="272.6699">R&#233;cup&#233;ration des offres depuis la base de donn&#233;es</text><path d="M999.5063,310.5 L999.5063,318.4844 L979.5063,322.4844 L999.5063,326.4844 L999.5063,334.4688 A0,0 0 0 0 999.5063,334.4688 L1201.7837,334.4688 A0,0 0 0 0 1201.7837,334.4688 L1201.7837,320.5 L1191.7837,310.5 L999.5063,310.5 A0,0 0 0 0 999.5063,310.5" fill="#FEFFDD" style="stroke:#181818;stroke-width:0.5;"/><path d="M1191.7837,310.5 L1191.7837,320.5 L1201.7837,320.5 L1191.7837,310.5" fill="#FEFFDD" style="stroke:#181818;stroke-width:0.5;"/><text fill="#000000" font-family="sans-serif" font-size="12" lengthAdjust="spacing" textLength="181.2773" x="1005.5063" y="326.6387">Calcul pages totales et limites</text><rect fill="#FFECB3" height="33.9688" rx="12.5" ry="12.5" style="stroke:#333333;stroke-width:0.5;" width="197.4043" x="782.1021" y="305.5"/><text fill="#000000" font-family="sans-serif" font-size="12" lengthAdjust="spacing" textLength="177.4043" x="792.1021" y="326.6387">Construction de la pagination</text><path d="M1001.7681,364.4688 L1001.7681,372.4531 L981.7681,376.4531 L1001.7681,380.4531 L1001.7681,388.4375 A0,0 0 0 0 1001.7681,388.4375 L1086.4126,388.4375 A0,0 0 0 0 1086.4126,388.4375 L1086.4126,374.4688 L1076.4126,364.4688 L1001.7681,364.4688 A0,0 0 0 0 1001.7681,364.4688" fill="#FEFFDD" style="stroke:#181818;stroke-width:0.5;"/><path d="M1076.4126,364.4688 L1076.4126,374.4688 L1086.4126,374.4688 L1076.4126,364.4688" fill="#FEFFDD" style="stroke:#181818;stroke-width:0.5;"/><text fill="#000000" font-family="sans-serif" font-size="12" lengthAdjust="spacing" textLength="63.6445" x="1007.7681" y="380.6074">offres.twig</text><rect fill="#FFECB3" height="33.9688" rx="12.5" ry="12.5" style="stroke:#333333;stroke-width:0.5;" width="201.9277" x="779.8403" y="359.4688"/><text fill="#000000" font-family="sans-serif" font-size="12" lengthAdjust="spacing" textLength="181.9277" x="789.8403" y="380.6074">Affichage de la liste des offres</text><polygon fill="#FFE082" points="101.8535,413.4375,214.1895,413.4375,226.1895,425.4375,214.1895,437.4375,101.8535,437.4375,89.8535,425.4375,101.8535,413.4375" style="stroke:#333333;stroke-width:0.5;"/><text fill="#000000" font-family="sans-serif" font-size="12" lengthAdjust="spacing" textLength="94.8281" x="162.0215" y="448.5762">Filtre recherche</text><text fill="#000000" font-family="sans-serif" font-size="12" lengthAdjust="spacing" textLength="112.3359" x="101.8535" y="429.5918">Action utilisateur ?</text><path d="M277.0928,476.4063 L277.0928,484.3906 L257.0928,488.3906 L277.0928,492.3906 L277.0928,500.375 A0,0 0 0 0 277.0928,500.375 L473.376,500.375 A0,0 0 0 0 473.376,500.375 L473.376,486.4063 L463.376,476.4063 L277.0928,476.4063 A0,0 0 0 0 277.0928,476.4063" fill="#FEFFDD" style="stroke:#181818;stroke-width:0.5;"/><path d="M463.376,476.4063 L463.376,486.4063 L473.376,486.4063 L463.376,476.4063" fill="#FEFFDD" style="stroke:#181818;stroke-width:0.5;"/><text fill="#000000" font-family="sans-serif" font-size="12" lengthAdjust="spacing" textLength="175.2832" x="283.0928" y="492.5449">Titre, comp&#233;tences, lieu, etc.</text><rect fill="#FFECB3" height="33.9688" rx="12.5" ry="12.5" style="stroke:#333333;stroke-width:0.5;" width="198.1426" x="58.9502" y="471.4063"/><text fill="#000000" font-family="sans-serif" font-size="12" lengthAdjust="spacing" textLength="178.1426" x="68.9502" y="492.5449">Utilisateur d&#233;finit des crit&#232;res</text><rect fill="#FFECB3" height="33.9688" rx="12.5" ry="12.5" style="stroke:#333333;stroke-width:0.5;" width="294.043" x="11" y="539.3438"/><text fill="#000000" font-family="sans-serif" font-size="12" lengthAdjust="spacing" textLength="274.043" x="21" y="560.4824">Utilisateur soumet le formulaire de recherche</text><path d="M301.8604,610.2969 L301.8604,618.2813 L281.8604,622.2813 L301.8604,626.2813 L301.8604,634.2656 A0,0 0 0 0 301.8604,634.2656 L536.7627,634.2656 A0,0 0 0 0 536.7627,634.2656 L536.7627,620.2969 L526.7627,610.2969 L301.8604,610.2969 A0,0 0 0 0 301.8604,610.2969" fill="#FEFFDD" style="stroke:#181818;stroke-width:0.5;"/><path d="M526.7627,610.2969 L526.7627,620.2969 L536.7627,620.2969 L526.7627,610.2969" fill="#FEFFDD" style="stroke:#181818;stroke-width:0.5;"/><text fill="#000000" font-family="sans-serif" font-size="12" lengthAdjust="spacing" textLength="213.9023" x="307.8604" y="626.4355">OffreController::index() avec $_GET</text><rect fill="#FFECB3" height="33.9688" rx="12.5" ry="12.5" style="stroke:#333333;stroke-width:0.5;" width="247.6777" x="34.1826" y="605.2969"/><text fill="#000000" font-family="sans-serif" font-size="12" lengthAdjust="spacing" textLength="227.6777" x="44.1826" y="626.4355">Reconstruction de la page avec filtres</text><polygon fill="#FFE082" points="648.585,413.4375,715.8564,413.4375,727.8564,425.4375,715.8564,437.4375,648.585,437.4375,636.585,425.4375,648.585,413.4375" style="stroke:#333333;stroke-width:0.5;"/><text fill="#000000" font-family="sans-serif" font-size="12" lengthAdjust="spacing" textLength="67.2715" x="648.585" y="429.5918">D&#233;tail offre</text><rect fill="#FFECB3" height="33.9688" rx="12.5" ry="12.5" style="stroke:#333333;stroke-width:0.5;" width="202.3438" x="581.0488" y="457.4375"/><text fill="#000000" font-family="sans-serif" font-size="12" lengthAdjust="spacing" textLength="182.3438" x="591.0488" y="478.5762">Utilisateur clique sur une offre</text><path d="M797.0029,530.375 L797.0029,538.3594 L777.0029,542.3594 L797.0029,546.3594 L797.0029,554.3438 A0,0 0 0 0 797.0029,554.3438 L964.9326,554.3438 A0,0 0 0 0 964.9326,554.3438 L964.9326,540.375 L954.9326,530.375 L797.0029,530.375 A0,0 0 0 0 797.0029,530.375" fill="#FEFFDD" style="stroke:#181818;stroke-width:0.5;"/><path d="M954.9326,530.375 L954.9326,540.375 L964.9326,540.375 L954.9326,530.375" fill="#FEFFDD" style="stroke:#181818;stroke-width:0.5;"/><text fill="#000000" font-family="sans-serif" font-size="12" lengthAdjust="spacing" textLength="146.9297" x="803.0029" y="546.5137">OffreController::details()</text><rect fill="#FFECB3" height="33.9688" rx="12.5" ry="12.5" style="stroke:#333333;stroke-width:0.5;" width="189.5645" x="587.4385" y="525.375"/><text fill="#000000" font-family="sans-serif" font-size="12" lengthAdjust="spacing" textLength="169.5645" x="597.4385" y="546.5137">Chargement d&#233;tail de l'offre</text><path d="M837.6787,591.3281 L837.6787,606.2969 L817.6787,610.2969 L837.6787,614.2969 L837.6787,629.2656 A0,0 0 0 0 837.6787,629.2656 L1101.9424,629.2656 A0,0 0 0 0 1101.9424,629.2656 L1101.9424,601.3281 L1091.9424,591.3281 L837.6787,591.3281 A0,0 0 0 0 837.6787,591.3281" fill="#FEFFDD" style="stroke:#181818;stroke-width:0.5;"/><path d="M1091.9424,591.3281 L1091.9424,601.3281 L1101.9424,601.3281 L1091.9424,591.3281" fill="#FEFFDD" style="stroke:#181818;stroke-width:0.5;"/><text fill="#000000" font-family="sans-serif" font-size="12" lengthAdjust="spacing" textLength="168.2402" x="843.6787" y="607.4668">- OffreModel::getOffreById()</text><text fill="#000000" font-family="sans-serif" font-size="12" lengthAdjust="spacing" textLength="243.2637" x="843.6787" y="621.4355">- OffreModel::getCompetencesForOffre()</text><rect fill="#FFECB3" height="33.9688" rx="12.5" ry="12.5" style="stroke:#333333;stroke-width:0.5;" width="270.916" x="546.7627" y="593.3125"/><text fill="#000000" font-family="sans-serif" font-size="12" lengthAdjust="spacing" textLength="250.916" x="556.7627" y="614.4512">R&#233;cup&#233;ration des informations compl&#232;tes</text><path d="M793.3086,664.2656 L793.3086,672.25 L773.3086,676.25 L793.3086,680.25 L793.3086,688.2344 A0,0 0 0 0 793.3086,688.2344 L917.6797,688.2344 A0,0 0 0 0 917.6797,688.2344 L917.6797,674.2656 L907.6797,664.2656 L793.3086,664.2656 A0,0 0 0 0 793.3086,664.2656" fill="#FEFFDD" style="stroke:#181818;stroke-width:0.5;"/><path d="M907.6797,664.2656 L907.6797,674.2656 L917.6797,674.2656 L907.6797,664.2656" fill="#FEFFDD" style="stroke:#181818;stroke-width:0.5;"/><text fill="#000000" font-family="sans-serif" font-size="12" lengthAdjust="spacing" textLength="103.3711" x="799.3086" y="680.4043">offre_details.twig</text><rect fill="#FFECB3" height="33.9688" rx="12.5" ry="12.5" style="stroke:#333333;stroke-width:0.5;" width="182.1758" x="591.1328" y="659.2656"/><text fill="#000000" font-family="sans-serif" font-size="12" lengthAdjust="spacing" textLength="162.1758" x="601.1328" y="680.4043">Affichage d&#233;taill&#233; de l'offre</text><polygon fill="#FFE082" points="1223.2051,413.4375,1286.6914,413.4375,1298.6914,425.4375,1286.6914,437.4375,1223.2051,437.4375,1211.2051,425.4375,1223.2051,413.4375" style="stroke:#333333;stroke-width:0.5;"/><text fill="#000000" font-family="sans-serif" font-size="12" lengthAdjust="spacing" textLength="63.4863" x="1223.2051" y="429.5918">Pagination</text><rect fill="#FFECB3" height="33.9688" rx="12.5" ry="12.5" style="stroke:#333333;stroke-width:0.5;" width="266.0117" x="1121.9424" y="457.4375"/><text fill="#000000" font-family="sans-serif" font-size="12" lengthAdjust="spacing" textLength="246.0117" x="1131.9424" y="478.5762">Utilisateur clique sur un num&#233;ro de page</text><path d="M1389.749,530.375 L1389.749,538.3594 L1369.749,542.3594 L1389.749,546.3594 L1389.749,554.3438 A0,0 0 0 0 1389.749,554.3438 L1710.6084,554.3438 A0,0 0 0 0 1710.6084,554.3438 L1710.6084,540.375 L1700.6084,530.375 L1389.749,530.375 A0,0 0 0 0 1389.749,530.375" fill="#FEFFDD" style="stroke:#181818;stroke-width:0.5;"/><path d="M1700.6084,530.375 L1700.6084,540.375 L1710.6084,540.375 L1700.6084,530.375" fill="#FEFFDD" style="stroke:#181818;stroke-width:0.5;"/><text fill="#000000" font-family="sans-serif" font-size="12" lengthAdjust="spacing" textLength="299.8594" x="1395.749" y="546.5137">OffreController::index() avec page=$_GET['page']</text><rect fill="#FFECB3" height="33.9688" rx="12.5" ry="12.5" style="stroke:#333333;stroke-width:0.5;" width="229.6016" x="1140.1475" y="525.375"/><text fill="#000000" font-family="sans-serif" font-size="12" lengthAdjust="spacing" textLength="209.6016" x="1150.1475" y="546.5137">Chargement de la page demand&#233;e</text><ellipse cx="880.8042" cy="744.2344" fill="none" rx="11" ry="11" style="stroke:#222222;stroke-width:1;"/><ellipse cx="880.8042" cy="744.2344" fill="#222222" rx="6" ry="6" style="stroke:#222222;stroke-width:1;"/><line style="stroke:#666666;stroke-width:1;" x1="880.8042" x2="880.8042" y1="69.625" y2="89.625"/><polygon fill="#666666" points="876.8042,79.625,880.8042,89.625,884.8042,79.625,880.8042,83.625" style="stroke:#666666;stroke-width:1;"/><line style="stroke:#666666;stroke-width:1;" x1="880.8042" x2="880.8042" y1="123.5938" y2="143.5938"/><polygon fill="#666666" points="876.8042,133.5938,880.8042,143.5938,884.8042,133.5938,880.8042,137.5938" style="stroke:#666666;stroke-width:1;"/><line style="stroke:#666666;stroke-width:1;" x1="880.8042" x2="880.8042" y1="177.5625" y2="197.5625"/><polygon fill="#666666" points="876.8042,187.5625,880.8042,197.5625,884.8042,187.5625,880.8042,191.5625" style="stroke:#666666;stroke-width:1;"/><line style="stroke:#666666;stroke-width:1;" x1="880.8042" x2="880.8042" y1="231.5313" y2="251.5313"/><polygon fill="#666666" points="876.8042,241.5313,880.8042,251.5313,884.8042,241.5313,880.8042,245.5313" style="stroke:#666666;stroke-width:1;"/><line style="stroke:#666666;stroke-width:1;" x1="880.8042" x2="880.8042" y1="285.5" y2="305.5"/><polygon fill="#666666" points="876.8042,295.5,880.8042,305.5,884.8042,295.5,880.8042,299.5" style="stroke:#666666;stroke-width:1;"/><line style="stroke:#666666;stroke-width:1;" x1="880.8042" x2="880.8042" y1="339.4688" y2="359.4688"/><polygon fill="#666666" points="876.8042,349.4688,880.8042,359.4688,884.8042,349.4688,880.8042,353.4688" style="stroke:#666666;stroke-width:1;"/><line style="stroke:#666666;stroke-width:1;" x1="158.0215" x2="158.0215" y1="505.375" y2="539.3438"/><polygon fill="#666666" points="154.0215,529.3438,158.0215,539.3438,162.0215,529.3438,158.0215,533.3438" style="stroke:#666666;stroke-width:1;"/><line style="stroke:#666666;stroke-width:1;" x1="158.0215" x2="158.0215" y1="573.3125" y2="605.2969"/><polygon fill="#666666" points="154.0215,595.2969,158.0215,605.2969,162.0215,595.2969,158.0215,599.2969" style="stroke:#666666;stroke-width:1;"/><line style="stroke:#666666;stroke-width:1;" x1="682.2207" x2="682.2207" y1="491.4063" y2="525.375"/><polygon fill="#666666" points="678.2207,515.375,682.2207,525.375,686.2207,515.375,682.2207,519.375" style="stroke:#666666;stroke-width:1;"/><line style="stroke:#666666;stroke-width:1;" x1="682.2207" x2="682.2207" y1="559.3438" y2="593.3125"/><polygon fill="#666666" points="678.2207,583.3125,682.2207,593.3125,686.2207,583.3125,682.2207,587.3125" style="stroke:#666666;stroke-width:1;"/><line style="stroke:#666666;stroke-width:1;" x1="682.2207" x2="682.2207" y1="627.2813" y2="659.2656"/><polygon fill="#666666" points="678.2207,649.2656,682.2207,659.2656,686.2207,649.2656,682.2207,653.2656" style="stroke:#666666;stroke-width:1;"/><line style="stroke:#666666;stroke-width:1;" x1="1254.9482" x2="1254.9482" y1="491.4063" y2="525.375"/><polygon fill="#666666" points="1250.9482,515.375,1254.9482,525.375,1258.9482,515.375,1254.9482,519.375" style="stroke:#666666;stroke-width:1;"/><line style="stroke:#666666;stroke-width:1;" x1="158.0215" x2="158.0215" y1="437.4375" y2="471.4063"/><polygon fill="#666666" points="154.0215,461.4063,158.0215,471.4063,162.0215,461.4063,158.0215,465.4063" style="stroke:#666666;stroke-width:1;"/><line style="stroke:#666666;stroke-width:1;" x1="158.0215" x2="158.0215" y1="639.2656" y2="713.2344"/><polygon fill="#666666" points="154.0215,703.2344,158.0215,713.2344,162.0215,703.2344,158.0215,707.2344" style="stroke:#666666;stroke-width:1;"/><line style="stroke:#666666;stroke-width:1;" x1="682.2207" x2="682.2207" y1="437.4375" y2="457.4375"/><polygon fill="#666666" points="678.2207,447.4375,682.2207,457.4375,686.2207,447.4375,682.2207,451.4375" style="stroke:#666666;stroke-width:1;"/><line style="stroke:#666666;stroke-width:1;" x1="682.2207" x2="682.2207" y1="693.2344" y2="713.2344"/><polygon fill="#666666" points="678.2207,703.2344,682.2207,713.2344,686.2207,703.2344,682.2207,707.2344" style="stroke:#666666;stroke-width:1;"/><line style="stroke:#666666;stroke-width:1;" x1="1254.9482" x2="1254.9482" y1="437.4375" y2="457.4375"/><polygon fill="#666666" points="1250.9482,447.4375,1254.9482,457.4375,1258.9482,447.4375,1254.9482,451.4375" style="stroke:#666666;stroke-width:1;"/><line style="stroke:#666666;stroke-width:1;" x1="1254.9482" x2="1254.9482" y1="559.3438" y2="713.2344"/><polygon fill="#666666" points="1250.9482,703.2344,1254.9482,713.2344,1258.9482,703.2344,1254.9482,707.2344" style="stroke:#666666;stroke-width:1;"/><line style="stroke:#666666;stroke-width:1;" x1="226.1895" x2="636.585" y1="425.4375" y2="425.4375"/><polygon fill="#666666" points="626.585,421.4375,636.585,425.4375,626.585,429.4375,630.585,425.4375" style="stroke:#666666;stroke-width:1;"/><line style="stroke:#666666;stroke-width:1;" x1="727.8564" x2="1211.2051" y1="425.4375" y2="425.4375"/><polygon fill="#666666" points="1201.2051,421.4375,1211.2051,425.4375,1201.2051,429.4375,1205.2051,425.4375" style="stroke:#666666;stroke-width:1;"/><line style="stroke:#666666;stroke-width:1;" x1="880.8042" x2="880.8042" y1="393.4375" y2="398.4375"/><line style="stroke:#666666;stroke-width:1;" x1="880.8042" x2="158.0215" y1="398.4375" y2="398.4375"/><line style="stroke:#666666;stroke-width:1;" x1="158.0215" x2="158.0215" y1="398.4375" y2="413.4375"/><polygon fill="#666666" points="154.0215,403.4375,158.0215,413.4375,162.0215,403.4375,158.0215,407.4375" style="stroke:#666666;stroke-width:1;"/><line style="stroke:#666666;stroke-width:1;" x1="1298.6914" x2="1724.6084" y1="425.4375" y2="425.4375"/><line style="stroke:#666666;stroke-width:1;" x1="1724.6084" x2="1724.6084" y1="425.4375" y2="713.2344"/><polygon fill="#666666" points="1720.6084,703.2344,1724.6084,713.2344,1728.6084,703.2344,1724.6084,707.2344" style="stroke:#666666;stroke-width:1;"/><line style="stroke:#666666;stroke-width:1;" x1="158.0215" x2="1724.6084" y1="713.2344" y2="713.2344"/><line style="stroke:#666666;stroke-width:1;" x1="880.8042" x2="880.8042" y1="713.2344" y2="733.2344"/><polygon fill="#666666" points="876.8042,723.2344,880.8042,733.2344,884.8042,723.2344,880.8042,727.2344" style="stroke:#666666;stroke-width:1;"/><!--SRC=[bLJRRjD047ttLum0AMbKAcWbX5mXrAODuW5HbI8U4AgMzTWPTRqRTcTxuOkQx_2FiPUaST9GWQN4bprpzioPOxihqZDXHGj7akcQ-EvOoAl66g-hiL76mlF9v7HyV52unqXZAxGBr44w-YXhpSrYyKqwjb2Sa6YDhhRj-UhjVg_WWbZXn6Z-GhyHNlUvJh0MNl5gSRyeEC9XD9eeVmlLuAYkIKv5Wr2XWyzrRT6DHaNXM5WkogzCYfnWz1QaebyUmONBPnduxB0eoWihYB55pO42b0Z_hT0L7XRQC8AbPifbPXu78TOeXROiAK1kXpk1uCnsywYNoUYaeYR5WJtIMPHJjE6tpdPworR8HS7CauCNbnzEBmBPUJUNVjRDUtGcQLq2Wy2VmiLseJ9QTtDqMvH-CXMgicoGSwVVYATdeY6TQ9Fiq8nZwvSg8l7i0R5EEHPAUXMNWmusB5Gu8uEYDbZd0bb_394fcCxOKx_Ebv_jyGqrHK4r38-o2j-RrliTu2bg64wIcoidTmg0jRbMtRmcJPosavQukqyx0lJt336pk0lIjC5THYtHxGQPw7T39t9lazGPtyOE4MfZMwy4MTmOQAWuHxdLHGHnZN8PX4qfVyjIBif9GEKmEdCIn0fIsR9ioQRKNgwznenCwiPJOPj5iXSqKU7W0V6ag0fZXHj6lrElZvD9EfgJxbroLdNtlDblk05ukJMMntSVgyI_1J0ET9ZdD34sBIOewYgHBrJrWfTRLDtyYIxJmyj5Qpc0IwTNhyS_s0pQjy4A4xUAytxazoe9-NCItjF_Yq6iVPUoy7qGhmS_Yj0wrV7JPcP_0000]--></g></svg>