<svg xmlns="http://www.w3.org/2000/svg" xmlns:xlink="http://www.w3.org/1999/xlink" contentStyleType="text/css" data-diagram-type="ACTIVITY" height="1101px" preserveAspectRatio="none" style="width:1321px;height:1101px;background:#FFFFFF;" version="1.1" viewBox="0 0 1321 1101" width="1321px" zoomAndPan="magnify"><title>**Flux de Candidature &#224; une Offre**</title><defs/><g><text fill="#000000" font-family="sans-serif" font-size="16" font-weight="bold" lengthAdjust="spacing" textLength="289.875" x="514.479" y="34.8516">Flux de Candidature &#224; une Offre</text><ellipse cx="444.4343" cy="59.625" fill="#222222" rx="10" ry="10" style="stroke:#222222;stroke-width:1;"/><path d="M593.2742,94.625 L593.2742,102.6094 L573.2742,106.6094 L593.2742,110.6094 L593.2742,118.5938 A0,0 0 0 0 593.2742,118.5938 L717.6453,118.5938 A0,0 0 0 0 717.6453,118.5938 L717.6453,104.625 L707.6453,94.625 L593.2742,94.625 A0,0 0 0 0 593.2742,94.625" fill="#FEFFDD" style="stroke:#181818;stroke-width:0.5;"/><path d="M707.6453,94.625 L707.6453,104.625 L717.6453,104.625 L707.6453,94.625" fill="#FEFFDD" style="stroke:#181818;stroke-width:0.5;"/><text fill="#000000" font-family="sans-serif" font-size="12" lengthAdjust="spacing" textLength="103.3711" x="599.2742" y="110.7637">offre_details.twig</text><rect fill="#F8BBD0" height="33.9688" rx="12.5" ry="12.5" style="stroke:#333333;stroke-width:0.5;" width="257.6797" x="315.5945" y="89.625"/><text fill="#000000" font-family="sans-serif" font-size="12" lengthAdjust="spacing" textLength="237.6797" x="325.5945" y="110.7637">Utilisateur consulte le d&#233;tail d'une offre</text><rect fill="#F8BBD0" height="33.9688" rx="12.5" ry="12.5" style="stroke:#333333;stroke-width:0.5;" width="207.6582" x="340.6052" y="143.5938"/><text fill="#000000" font-family="sans-serif" font-size="12" lengthAdjust="spacing" textLength="187.6582" x="350.6052" y="164.7324">Utilisateur clique sur "Postuler"</text><path d="M589.8787,251.5469 L589.8787,259.5313 L569.8787,263.5313 L589.8787,267.5313 L589.8787,275.5156 A0,0 0 0 0 589.8787,275.5156 L827.9275,275.5156 A0,0 0 0 0 827.9275,275.5156 L827.9275,261.5469 L817.9275,251.5469 L589.8787,251.5469 A0,0 0 0 0 589.8787,251.5469" fill="#FEFFDD" style="stroke:#181818;stroke-width:0.5;"/><path d="M817.9275,251.5469 L817.9275,261.5469 L827.9275,261.5469 L817.9275,251.5469" fill="#FEFFDD" style="stroke:#181818;stroke-width:0.5;"/><text fill="#000000" font-family="sans-serif" font-size="12" lengthAdjust="spacing" textLength="217.0488" x="595.8787" y="267.6855">AuthController::login() avec redirect</text><rect fill="#F8BBD0" height="33.9688" rx="12.5" ry="12.5" style="stroke:#333333;stroke-width:0.5;" width="250.8887" x="318.99" y="246.5469"/><text fill="#000000" font-family="sans-serif" font-size="12" lengthAdjust="spacing" textLength="230.8887" x="328.99" y="267.6855">Redirection vers la page de connexion</text><ellipse cx="444.4343" cy="320.0313" fill="none" rx="11" ry="11" style="stroke:#222222;stroke-width:1;"/><ellipse cx="444.4343" cy="320.0313" fill="#222222" rx="6" ry="6" style="stroke:#222222;stroke-width:1;"/><polygon fill="#F48FB1" points="406.2957,197.5625,482.573,197.5625,494.573,209.5625,482.573,221.5625,406.2957,221.5625,394.2957,209.5625,406.2957,197.5625" style="stroke:#333333;stroke-width:0.5;"/><text fill="#000000" font-family="sans-serif" font-size="12" lengthAdjust="spacing" textLength="22.5527" x="448.4343" y="232.7012">non</text><text fill="#000000" font-family="sans-serif" font-size="12" lengthAdjust="spacing" textLength="76.2773" x="406.2957" y="213.7168">Authentifi&#233; ?</text><text fill="#000000" font-family="sans-serif" font-size="12" lengthAdjust="spacing" textLength="18.2813" x="494.573" y="206.7324">oui</text><path d="M601.9021,378.0313 L601.9021,386.0156 L581.9021,390.0156 L601.9021,394.0156 L601.9021,402 A0,0 0 0 0 601.9021,402 L822.7009,402 A0,0 0 0 0 822.7009,402 L822.7009,388.0313 L812.7009,378.0313 L601.9021,378.0313 A0,0 0 0 0 601.9021,378.0313" fill="#FEFFDD" style="stroke:#181818;stroke-width:0.5;"/><path d="M812.7009,378.0313 L812.7009,388.0313 L822.7009,388.0313 L812.7009,378.0313" fill="#FEFFDD" style="stroke:#181818;stroke-width:0.5;"/><text fill="#000000" font-family="sans-serif" font-size="12" lengthAdjust="spacing" textLength="199.7988" x="607.9021" y="394.1699">CandidatureController::postuler()</text><rect fill="#F8BBD0" height="33.9688" rx="12.5" ry="12.5" style="stroke:#333333;stroke-width:0.5;" width="274.9355" x="306.9666" y="373.0313"/><text fill="#000000" font-family="sans-serif" font-size="12" lengthAdjust="spacing" textLength="254.9355" x="316.9666" y="394.1699">Traitement de la demande de candidature</text><path d="M585.7976,432 L585.7976,439.9844 L565.7976,443.9844 L585.7976,447.9844 L585.7976,455.9688 A0,0 0 0 0 585.7976,455.9688 L842.6257,455.9688 A0,0 0 0 0 842.6257,455.9688 L842.6257,442 L832.6257,432 L585.7976,432 A0,0 0 0 0 585.7976,432" fill="#FEFFDD" style="stroke:#181818;stroke-width:0.5;"/><path d="M832.6257,432 L832.6257,442 L842.6257,442 L832.6257,432" fill="#FEFFDD" style="stroke:#181818;stroke-width:0.5;"/><text fill="#000000" font-family="sans-serif" font-size="12" lengthAdjust="spacing" textLength="235.8281" x="591.7976" y="448.1387">CandidatureModel::candidatureExiste()</text><rect fill="#F8BBD0" height="33.9688" rx="12.5" ry="12.5" style="stroke:#333333;stroke-width:0.5;" width="242.7266" x="323.071" y="427"/><text fill="#000000" font-family="sans-serif" font-size="12" lengthAdjust="spacing" textLength="222.7266" x="333.071" y="448.1387">V&#233;rification de candidature existante</text><polygon fill="#F48FB1" points="397.6882,480.9688,491.1804,480.9688,503.1804,492.9688,491.1804,504.9688,397.6882,504.9688,385.6882,492.9688,397.6882,480.9688" style="stroke:#333333;stroke-width:0.5;"/><text fill="#000000" font-family="sans-serif" font-size="12" lengthAdjust="spacing" textLength="93.4922" x="397.6882" y="497.123">D&#233;j&#224; candidat ?</text><text fill="#000000" font-family="sans-serif" font-size="12" lengthAdjust="spacing" textLength="18.2813" x="367.407" y="490.1387">oui</text><text fill="#000000" font-family="sans-serif" font-size="12" lengthAdjust="spacing" textLength="22.5527" x="503.1804" y="490.1387">non</text><rect fill="#F8BBD0" height="33.9688" rx="12.5" ry="12.5" style="stroke:#333333;stroke-width:0.5;" width="231.7402" x="11" y="514.9688"/><text fill="#000000" font-family="sans-serif" font-size="12" lengthAdjust="spacing" textLength="211.7402" x="21" y="536.1074">Pr&#233;paration message d'information</text><path d="M262.7314,573.9375 L262.7314,581.9219 L242.7314,585.9219 L262.7314,589.9219 L262.7314,597.9063 A0,0 0 0 0 262.7314,597.9063 L467.1885,597.9063 A0,0 0 0 0 467.1885,597.9063 L467.1885,583.9375 L457.1885,573.9375 L262.7314,573.9375 A0,0 0 0 0 262.7314,573.9375" fill="#FEFFDD" style="stroke:#181818;stroke-width:0.5;"/><path d="M457.1885,573.9375 L457.1885,583.9375 L467.1885,583.9375 L457.1885,573.9375" fill="#FEFFDD" style="stroke:#181818;stroke-width:0.5;"/><text fill="#000000" font-family="sans-serif" font-size="12" lengthAdjust="spacing" textLength="183.457" x="268.7314" y="590.0762">confirmation_candidature.twig</text><rect fill="#F8BBD0" height="33.9688" rx="12.5" ry="12.5" style="stroke:#333333;stroke-width:0.5;" width="231.7227" x="11.0088" y="568.9375"/><text fill="#000000" font-family="sans-serif" font-size="12" lengthAdjust="spacing" textLength="211.7227" x="21.0088" y="590.0762">Redirection vers page confirmation</text><path d="M910.1323,519.9688 L910.1323,527.9531 L890.1323,531.9531 L910.1323,535.9531 L910.1323,543.9375 A0,0 0 0 0 910.1323,543.9375 L1009.5894,543.9375 A0,0 0 0 0 1009.5894,543.9375 L1009.5894,529.9688 L999.5894,519.9688 L910.1323,519.9688 A0,0 0 0 0 910.1323,519.9688" fill="#FEFFDD" style="stroke:#181818;stroke-width:0.5;"/><path d="M999.5894,519.9688 L999.5894,529.9688 L1009.5894,529.9688 L999.5894,519.9688" fill="#FEFFDD" style="stroke:#181818;stroke-width:0.5;"/><text fill="#000000" font-family="sans-serif" font-size="12" lengthAdjust="spacing" textLength="78.457" x="916.1323" y="536.1074">postuler.twig</text><rect fill="#F8BBD0" height="33.9688" rx="12.5" ry="12.5" style="stroke:#333333;stroke-width:0.5;" width="256.2676" x="633.8647" y="514.9688"/><text fill="#000000" font-family="sans-serif" font-size="12" lengthAdjust="spacing" textLength="236.2676" x="643.8647" y="536.1074">Affichage du formulaire de candidature</text><rect fill="#F8BBD0" height="33.9688" rx="12.5" ry="12.5" style="stroke:#333333;stroke-width:0.5;" width="264.623" x="629.687" y="568.9375"/><text fill="#000000" font-family="sans-serif" font-size="12" lengthAdjust="spacing" textLength="244.623" x="639.687" y="590.0762">Utilisateur r&#233;dige sa lettre de motivation</text><rect fill="#F8BBD0" height="33.9688" rx="12.5" ry="12.5" style="stroke:#333333;stroke-width:0.5;" width="259.7773" x="632.1099" y="622.9063"/><text fill="#000000" font-family="sans-serif" font-size="12" lengthAdjust="spacing" textLength="239.7773" x="642.1099" y="644.0449">Utilisateur s&#233;lectionne/t&#233;l&#233;verse son CV</text><rect fill="#F8BBD0" height="33.9688" rx="12.5" ry="12.5" style="stroke:#333333;stroke-width:0.5;" width="210.9922" x="656.5024" y="676.875"/><text fill="#000000" font-family="sans-serif" font-size="12" lengthAdjust="spacing" textLength="190.9922" x="666.5024" y="698.0137">Utilisateur soumet le formulaire</text><path d="M904.6421,735.8438 L904.6421,743.8281 L884.6421,747.8281 L904.6421,751.8281 L904.6421,759.8125 A0,0 0 0 0 904.6421,759.8125 L1113.6167,759.8125 A0,0 0 0 0 1113.6167,759.8125 L1113.6167,745.8438 L1103.6167,735.8438 L904.6421,735.8438 A0,0 0 0 0 904.6421,735.8438" fill="#FEFFDD" style="stroke:#181818;stroke-width:0.5;"/><path d="M1103.6167,735.8438 L1103.6167,745.8438 L1113.6167,745.8438 L1103.6167,735.8438" fill="#FEFFDD" style="stroke:#181818;stroke-width:0.5;"/><text fill="#000000" font-family="sans-serif" font-size="12" lengthAdjust="spacing" textLength="187.9746" x="910.6421" y="751.9824">CandidatureController::traiter()</text><rect fill="#F8BBD0" height="33.9688" rx="12.5" ry="12.5" style="stroke:#333333;stroke-width:0.5;" width="245.2871" x="639.355" y="730.8438"/><text fill="#000000" font-family="sans-serif" font-size="12" lengthAdjust="spacing" textLength="225.2871" x="649.355" y="751.9824">Traitement et validation des donn&#233;es</text><polygon fill="#F48FB1" points="704.5327,784.8125,819.4644,784.8125,831.4644,796.8125,819.4644,808.8125,704.5327,808.8125,692.5327,796.8125,704.5327,784.8125" style="stroke:#333333;stroke-width:0.5;"/><text fill="#000000" font-family="sans-serif" font-size="12" lengthAdjust="spacing" textLength="114.9316" x="704.5327" y="800.9668">Formulaire valide ?</text><text fill="#000000" font-family="sans-serif" font-size="12" lengthAdjust="spacing" textLength="22.5527" x="669.98" y="793.9824">non</text><text fill="#000000" font-family="sans-serif" font-size="12" lengthAdjust="spacing" textLength="18.2813" x="831.4644" y="793.9824">oui</text><rect fill="#F8BBD0" height="33.9688" rx="12.5" ry="12.5" style="stroke:#333333;stroke-width:0.5;" width="255.8867" x="497.1885" y="818.8125"/><text fill="#000000" font-family="sans-serif" font-size="12" lengthAdjust="spacing" textLength="235.8867" x="507.1885" y="839.9512">R&#233;affichage du formulaire avec erreurs</text><ellipse cx="625.1318" cy="883.7813" fill="none" rx="11" ry="11" style="stroke:#222222;stroke-width:1;"/><ellipse cx="625.1318" cy="883.7813" fill="#222222" rx="6" ry="6" style="stroke:#222222;stroke-width:1;"/><path d="M1044.6553,823.8125 L1044.6553,831.7969 L1024.6553,835.7969 L1044.6553,839.7969 L1044.6553,847.7813 A0,0 0 0 0 1044.6553,847.7813 L1281.3857,847.7813 A0,0 0 0 0 1281.3857,847.7813 L1281.3857,833.8125 L1271.3857,823.8125 L1044.6553,823.8125 A0,0 0 0 0 1044.6553,823.8125" fill="#FEFFDD" style="stroke:#181818;stroke-width:0.5;"/><path d="M1271.3857,823.8125 L1271.3857,833.8125 L1281.3857,833.8125 L1271.3857,823.8125" fill="#FEFFDD" style="stroke:#181818;stroke-width:0.5;"/><text fill="#000000" font-family="sans-serif" font-size="12" lengthAdjust="spacing" textLength="215.7305" x="1050.6553" y="839.9512">Stockage des fichiers dans /uploads</text><rect fill="#F8BBD0" height="33.9688" rx="12.5" ry="12.5" style="stroke:#333333;stroke-width:0.5;" width="251.5801" x="773.0752" y="818.8125"/><text fill="#000000" font-family="sans-serif" font-size="12" lengthAdjust="spacing" textLength="231.5801" x="783.0752" y="839.9512">Enregistrement des fichiers t&#233;l&#233;vers&#233;s</text><path d="M1030.0391,877.7813 L1030.0391,885.7656 L1010.0391,889.7656 L1030.0391,893.7656 L1030.0391,901.75 A0,0 0 0 0 1030.0391,901.75 L1283.5215,901.75 A0,0 0 0 0 1283.5215,901.75 L1283.5215,887.7813 L1273.5215,877.7813 L1030.0391,877.7813 A0,0 0 0 0 1030.0391,877.7813" fill="#FEFFDD" style="stroke:#181818;stroke-width:0.5;"/><path d="M1273.5215,877.7813 L1273.5215,887.7813 L1283.5215,887.7813 L1273.5215,877.7813" fill="#FEFFDD" style="stroke:#181818;stroke-width:0.5;"/><text fill="#000000" font-family="sans-serif" font-size="12" lengthAdjust="spacing" textLength="232.4824" x="1036.0391" y="893.9199">CandidatureModel::creerCandidature()</text><rect fill="#F8BBD0" height="33.9688" rx="12.5" ry="12.5" style="stroke:#333333;stroke-width:0.5;" width="222.3477" x="787.6914" y="872.7813"/><text fill="#000000" font-family="sans-serif" font-size="12" lengthAdjust="spacing" textLength="202.3477" x="797.6914" y="893.9199">Enregistrement de la candidature</text><path d="M1013.1494,931.75 L1013.1494,939.7344 L993.1494,943.7344 L1013.1494,947.7344 L1013.1494,955.7188 A0,0 0 0 0 1013.1494,955.7188 L1309.833,955.7188 A0,0 0 0 0 1309.833,955.7188 L1309.833,941.75 L1299.833,931.75 L1013.1494,931.75 A0,0 0 0 0 1013.1494,931.75" fill="#FEFFDD" style="stroke:#181818;stroke-width:0.5;"/><path d="M1299.833,931.75 L1299.833,941.75 L1309.833,941.75 L1299.833,931.75" fill="#FEFFDD" style="stroke:#181818;stroke-width:0.5;"/><text fill="#000000" font-family="sans-serif" font-size="12" lengthAdjust="spacing" textLength="275.6836" x="1019.1494" y="947.8887">EmailService::sendCandidatureConfirmation()</text><rect fill="#F8BBD0" height="33.9688" rx="12.5" ry="12.5" style="stroke:#333333;stroke-width:0.5;" width="188.5684" x="804.5811" y="926.75"/><text fill="#000000" font-family="sans-serif" font-size="12" lengthAdjust="spacing" textLength="168.5684" x="814.5811" y="947.8887">Envoi email de confirmation</text><path d="M1023.3799,985.7188 L1023.3799,993.7031 L1003.3799,997.7031 L1023.3799,1001.7031 L1023.3799,1009.6875 A0,0 0 0 0 1023.3799,1009.6875 L1227.8369,1009.6875 A0,0 0 0 0 1227.8369,1009.6875 L1227.8369,995.7188 L1217.8369,985.7188 L1023.3799,985.7188 A0,0 0 0 0 1023.3799,985.7188" fill="#FEFFDD" style="stroke:#181818;stroke-width:0.5;"/><path d="M1217.8369,985.7188 L1217.8369,995.7188 L1227.8369,995.7188 L1217.8369,985.7188" fill="#FEFFDD" style="stroke:#181818;stroke-width:0.5;"/><text fill="#000000" font-family="sans-serif" font-size="12" lengthAdjust="spacing" textLength="183.457" x="1029.3799" y="1001.8574">confirmation_candidature.twig</text><rect fill="#F8BBD0" height="33.9688" rx="12.5" ry="12.5" style="stroke:#333333;stroke-width:0.5;" width="209.0293" x="794.3506" y="980.7188"/><text fill="#000000" font-family="sans-serif" font-size="12" lengthAdjust="spacing" textLength="189.0293" x="804.3506" y="1001.8574">Affichage page de confirmation</text><polygon fill="#F48FB1" points="444.4343,1024.6875,456.4343,1036.6875,444.4343,1048.6875,432.4343,1036.6875,444.4343,1024.6875" style="stroke:#333333;stroke-width:0.5;"/><ellipse cx="444.4343" cy="1079.6875" fill="none" rx="11" ry="11" style="stroke:#222222;stroke-width:1;"/><ellipse cx="444.4343" cy="1079.6875" fill="#222222" rx="6" ry="6" style="stroke:#222222;stroke-width:1;"/><line style="stroke:#666666;stroke-width:1;" x1="444.4343" x2="444.4343" y1="69.625" y2="89.625"/><polygon fill="#666666" points="440.4343,79.625,444.4343,89.625,448.4343,79.625,444.4343,83.625" style="stroke:#666666;stroke-width:1;"/><line style="stroke:#666666;stroke-width:1;" x1="444.4343" x2="444.4343" y1="123.5938" y2="143.5938"/><polygon fill="#666666" points="440.4343,133.5938,444.4343,143.5938,448.4343,133.5938,444.4343,137.5938" style="stroke:#666666;stroke-width:1;"/><line style="stroke:#666666;stroke-width:1;" x1="444.4343" x2="444.4343" y1="280.5156" y2="309.0313"/><polygon fill="#666666" points="440.4343,299.0313,444.4343,309.0313,448.4343,299.0313,444.4343,303.0313" style="stroke:#666666;stroke-width:1;"/><line style="stroke:#666666;stroke-width:1;" x1="444.4343" x2="444.4343" y1="221.5625" y2="246.5469"/><polygon fill="#666666" points="440.4343,236.5469,444.4343,246.5469,448.4343,236.5469,444.4343,240.5469" style="stroke:#666666;stroke-width:1;"/><line style="stroke:#666666;stroke-width:1;" x1="494.573" x2="837.9275" y1="209.5625" y2="209.5625"/><polygon fill="#666666" points="833.9275,279.0313,837.9275,289.0313,841.9275,279.0313,837.9275,283.0313" style="stroke:#666666;stroke-width:1;"/><line style="stroke:#666666;stroke-width:1;" x1="837.9275" x2="837.9275" y1="209.5625" y2="353.0313"/><line style="stroke:#666666;stroke-width:1;" x1="837.9275" x2="444.4343" y1="353.0313" y2="353.0313"/><line style="stroke:#666666;stroke-width:1;" x1="444.4343" x2="444.4343" y1="353.0313" y2="373.0313"/><polygon fill="#666666" points="440.4343,363.0313,444.4343,373.0313,448.4343,363.0313,444.4343,367.0313" style="stroke:#666666;stroke-width:1;"/><line style="stroke:#666666;stroke-width:1;" x1="444.4343" x2="444.4343" y1="177.5625" y2="197.5625"/><polygon fill="#666666" points="440.4343,187.5625,444.4343,197.5625,448.4343,187.5625,444.4343,191.5625" style="stroke:#666666;stroke-width:1;"/><line style="stroke:#666666;stroke-width:1;" x1="444.4343" x2="444.4343" y1="407" y2="427"/><polygon fill="#666666" points="440.4343,417,444.4343,427,448.4343,417,444.4343,421" style="stroke:#666666;stroke-width:1;"/><line style="stroke:#666666;stroke-width:1;" x1="126.8701" x2="126.8701" y1="548.9375" y2="568.9375"/><polygon fill="#666666" points="122.8701,558.9375,126.8701,568.9375,130.8701,558.9375,126.8701,562.9375" style="stroke:#666666;stroke-width:1;"/><line style="stroke:#666666;stroke-width:1;" x1="761.9985" x2="761.9985" y1="548.9375" y2="568.9375"/><polygon fill="#666666" points="757.9985,558.9375,761.9985,568.9375,765.9985,558.9375,761.9985,562.9375" style="stroke:#666666;stroke-width:1;"/><line style="stroke:#666666;stroke-width:1;" x1="761.9985" x2="761.9985" y1="602.9063" y2="622.9063"/><polygon fill="#666666" points="757.9985,612.9063,761.9985,622.9063,765.9985,612.9063,761.9985,616.9063" style="stroke:#666666;stroke-width:1;"/><line style="stroke:#666666;stroke-width:1;" x1="761.9985" x2="761.9985" y1="656.875" y2="676.875"/><polygon fill="#666666" points="757.9985,666.875,761.9985,676.875,765.9985,666.875,761.9985,670.875" style="stroke:#666666;stroke-width:1;"/><line style="stroke:#666666;stroke-width:1;" x1="761.9985" x2="761.9985" y1="710.8438" y2="730.8438"/><polygon fill="#666666" points="757.9985,720.8438,761.9985,730.8438,765.9985,720.8438,761.9985,724.8438" style="stroke:#666666;stroke-width:1;"/><line style="stroke:#666666;stroke-width:1;" x1="625.1318" x2="625.1318" y1="852.7813" y2="872.7813"/><polygon fill="#666666" points="621.1318,862.7813,625.1318,872.7813,629.1318,862.7813,625.1318,866.7813" style="stroke:#666666;stroke-width:1;"/><line style="stroke:#666666;stroke-width:1;" x1="898.8652" x2="898.8652" y1="852.7813" y2="872.7813"/><polygon fill="#666666" points="894.8652,862.7813,898.8652,872.7813,902.8652,862.7813,898.8652,866.7813" style="stroke:#666666;stroke-width:1;"/><line style="stroke:#666666;stroke-width:1;" x1="898.8652" x2="898.8652" y1="906.75" y2="926.75"/><polygon fill="#666666" points="894.8652,916.75,898.8652,926.75,902.8652,916.75,898.8652,920.75" style="stroke:#666666;stroke-width:1;"/><line style="stroke:#666666;stroke-width:1;" x1="898.8652" x2="898.8652" y1="960.7188" y2="980.7188"/><polygon fill="#666666" points="894.8652,970.7188,898.8652,980.7188,902.8652,970.7188,898.8652,974.7188" style="stroke:#666666;stroke-width:1;"/><line style="stroke:#666666;stroke-width:1;" x1="692.5327" x2="625.1318" y1="796.8125" y2="796.8125"/><line style="stroke:#666666;stroke-width:1;" x1="625.1318" x2="625.1318" y1="796.8125" y2="818.8125"/><polygon fill="#666666" points="621.1318,808.8125,625.1318,818.8125,629.1318,808.8125,625.1318,812.8125" style="stroke:#666666;stroke-width:1;"/><line style="stroke:#666666;stroke-width:1;" x1="831.4644" x2="898.8652" y1="796.8125" y2="796.8125"/><line style="stroke:#666666;stroke-width:1;" x1="898.8652" x2="898.8652" y1="796.8125" y2="818.8125"/><polygon fill="#666666" points="894.8652,808.8125,898.8652,818.8125,902.8652,808.8125,898.8652,812.8125" style="stroke:#666666;stroke-width:1;"/><line style="stroke:#666666;stroke-width:1;" x1="898.8652" x2="898.8652" y1="1014.6875" y2="1036.6875"/><line style="stroke:#666666;stroke-width:1;" x1="898.8652" x2="456.4343" y1="1036.6875" y2="1036.6875"/><polygon fill="#666666" points="466.4343,1032.6875,456.4343,1036.6875,466.4343,1040.6875,462.4343,1036.6875" style="stroke:#666666;stroke-width:1;"/><line style="stroke:#666666;stroke-width:1;" x1="761.9985" x2="761.9985" y1="764.8125" y2="784.8125"/><polygon fill="#666666" points="757.9985,774.8125,761.9985,784.8125,765.9985,774.8125,761.9985,778.8125" style="stroke:#666666;stroke-width:1;"/><line style="stroke:#666666;stroke-width:1;" x1="385.6882" x2="126.8701" y1="492.9688" y2="492.9688"/><line style="stroke:#666666;stroke-width:1;" x1="126.8701" x2="126.8701" y1="492.9688" y2="514.9688"/><polygon fill="#666666" points="122.8701,504.9688,126.8701,514.9688,130.8701,504.9688,126.8701,508.9688" style="stroke:#666666;stroke-width:1;"/><line style="stroke:#666666;stroke-width:1;" x1="503.1804" x2="761.9985" y1="492.9688" y2="492.9688"/><line style="stroke:#666666;stroke-width:1;" x1="761.9985" x2="761.9985" y1="492.9688" y2="514.9688"/><polygon fill="#666666" points="757.9985,504.9688,761.9985,514.9688,765.9985,504.9688,761.9985,508.9688" style="stroke:#666666;stroke-width:1;"/><line style="stroke:#666666;stroke-width:1;" x1="126.8701" x2="126.8701" y1="602.9063" y2="1036.6875"/><line style="stroke:#666666;stroke-width:1;" x1="126.8701" x2="432.4343" y1="1036.6875" y2="1036.6875"/><polygon fill="#666666" points="422.4343,1032.6875,432.4343,1036.6875,422.4343,1040.6875,426.4343,1036.6875" style="stroke:#666666;stroke-width:1;"/><line style="stroke:#666666;stroke-width:1;" x1="444.4343" x2="444.4343" y1="460.9688" y2="480.9688"/><polygon fill="#666666" points="440.4343,470.9688,444.4343,480.9688,448.4343,470.9688,444.4343,474.9688" style="stroke:#666666;stroke-width:1;"/><line style="stroke:#666666;stroke-width:1;" x1="444.4343" x2="444.4343" y1="1048.6875" y2="1068.6875"/><polygon fill="#666666" points="440.4343,1058.6875,444.4343,1068.6875,448.4343,1058.6875,444.4343,1062.6875" style="stroke:#666666;stroke-width:1;"/><!--SRC=[VLHDSzCm4BthL-p0eKaEb0B3T9m3qoJDZQ53IwyTZRLEHMKfw2Cj_1gk_Xt-Owna1yjDKvziQ_UzVMztvHwatdBBQxWelTn9_tl1ouUDDK6BfL76mjlr-MAnUi_SOQIn0cqVzJ4zUPIrvh4__9oU5o1MajT6YqFEJ-VhnLcMS2EzmhNH_bh-GJZBiLPOyQ3ySFY1CH_3OJPRg_040c79jP22-s0HshyGDCAtgh8ucp7cFBUU5J-yLD9nZy52QRGZI0G24MtZkLGWJcAMYLbpfWqTMhcvzqNtwqvWZ7Bl_AFSi6TeIluA28vUtrmPvuD2-sREcAnWSX7yFMelAzasy6KAyGicskWf0oY-ev0MoIkZOOVMWUAmvHkCagX6ZKzqCgV8l9u8kIGph554L1JARAIUJ87li0JR8rAEysRBK3c4YGboof0iggZq6ykbnvggYZJ4AB0c-phImSUn2Pd1EVUsbpkP4l1jsrWIMlAaPum698KQeVrntAz6e2gABEaovc34ZbQkskOdzNP_FhYPr96RLxPjuiWa-XgTIqwUI5qPMwU_ynTDJuwJtPNCml8YyxExhBvk63gBzoszgCY1-yGS8187nOdkmDmnmzx73X4W8kKZHig494p7QMIzx_1gGqiswChZNTkeJgB6KqyVRHEb4W29NjuUnfjGeu_hC9Gyx-l8veL2Tbn53Ls77GXYQ1jqpmKTcHUViEAu9EpOrlNWKSB6WpM9FMiRViJODFPeBSb8LVI33v2DViAur1OtD51sF_iE8gAC8p1Or3OzIgxcsfloeTlBB4bmxU0qR9NXmgMS8qHnoPur_wXR-osmI5Vly7io7H7iZ0JQsdXj7Oxk6FioXbsZtSaIYyBHBJ3kpV_K4SKmnjbzz0hBwoj2pKYNJty5nGRz0m00]--></g></svg>