<svg xmlns="http://www.w3.org/2000/svg" xmlns:xlink="http://www.w3.org/1999/xlink" contentStyleType="text/css" data-diagram-type="ACTIVITY" height="974px" preserveAspectRatio="none" style="width:1828px;height:974px;background:#FFFFFF;" version="1.1" viewBox="0 0 1828 974" width="1828px" zoomAndPan="magnify"><title>**Flux de Gestion de Wishlist**</title><defs/><g><text fill="#000000" font-family="sans-serif" font-size="16" font-weight="bold" lengthAdjust="spacing" textLength="246.2266" x="789.8721" y="34.8516">Flux de Gestion de Wishlist</text><ellipse cx="921.8672" cy="59.625" fill="#222222" rx="10" ry="10" style="stroke:#222222;stroke-width:1;"/><rect fill="#555555" height="6" rx="2.5" ry="2.5" style="stroke:#555555;stroke-width:1;" width="1806.9707" x="11" y="89.625"/><path d="M514.6831,167.6094 L514.6831,175.5938 L494.6831,179.5938 L514.6831,183.5938 L514.6831,191.5781 A0,0 0 0 0 514.6831,191.5781 L725.2749,191.5781 A0,0 0 0 0 725.2749,191.5781 L725.2749,177.6094 L715.2749,167.6094 L514.6831,167.6094 A0,0 0 0 0 514.6831,167.6094" fill="#FEFFDD" style="stroke:#181818;stroke-width:0.5;"/><path d="M715.2749,167.6094 L715.2749,177.6094 L725.2749,177.6094 L715.2749,167.6094" fill="#FEFFDD" style="stroke:#181818;stroke-width:0.5;"/><text fill="#000000" font-family="sans-serif" font-size="12" lengthAdjust="spacing" textLength="189.5918" x="520.6831" y="183.748">offre_details.twig ou offres.twig</text><rect fill="#BBDEFB" height="33.9688" rx="12.5" ry="12.5" style="stroke:#333333;stroke-width:0.5;" width="250.1211" x="244.562" y="162.6094"/><text fill="#000000" font-family="sans-serif" font-size="12" lengthAdjust="spacing" textLength="230.1211" x="254.562" y="183.748">Utilisateur consulte une offre d'emploi</text><rect fill="#BBDEFB" height="33.9688" rx="12.5" ry="12.5" style="stroke:#333333;stroke-width:0.5;" width="211.6309" x="263.8071" y="231.5781"/><text fill="#000000" font-family="sans-serif" font-size="12" lengthAdjust="spacing" textLength="191.6309" x="273.8071" y="252.7168">Utilisateur clique sur l'ic&#244;ne "&#10084;"</text><path d="M515.0669,350.0469 L515.0669,358.0313 L495.0669,362.0313 L515.0669,366.0313 L515.0669,374.0156 A0,0 0 0 0 515.0669,374.0156 L753.1157,374.0156 A0,0 0 0 0 753.1157,374.0156 L753.1157,360.0469 L743.1157,350.0469 L515.0669,350.0469 A0,0 0 0 0 515.0669,350.0469" fill="#FEFFDD" style="stroke:#181818;stroke-width:0.5;"/><path d="M743.1157,350.0469 L743.1157,360.0469 L753.1157,360.0469 L743.1157,350.0469" fill="#FEFFDD" style="stroke:#181818;stroke-width:0.5;"/><text fill="#000000" font-family="sans-serif" font-size="12" lengthAdjust="spacing" textLength="217.0488" x="521.0669" y="366.1855">AuthController::login() avec redirect</text><rect fill="#BBDEFB" height="33.9688" rx="12.5" ry="12.5" style="stroke:#333333;stroke-width:0.5;" width="250.8887" x="244.1782" y="345.0469"/><text fill="#000000" font-family="sans-serif" font-size="12" lengthAdjust="spacing" textLength="230.8887" x="254.1782" y="366.1855">Redirection vers la page de connexion</text><ellipse cx="369.6226" cy="425.0156" fill="none" rx="11" ry="11" style="stroke:#222222;stroke-width:1;"/><ellipse cx="369.6226" cy="425.0156" fill="#222222" rx="6" ry="6" style="stroke:#222222;stroke-width:1;"/><polygon fill="#90CAF9" points="331.4839,296.0625,407.7612,296.0625,419.7612,308.0625,407.7612,320.0625,331.4839,320.0625,319.4839,308.0625,331.4839,296.0625" style="stroke:#333333;stroke-width:0.5;"/><text fill="#000000" font-family="sans-serif" font-size="12" lengthAdjust="spacing" textLength="22.5527" x="373.6226" y="331.2012">non</text><text fill="#000000" font-family="sans-serif" font-size="12" lengthAdjust="spacing" textLength="76.2773" x="331.4839" y="312.2168">Authentifi&#233; ?</text><text fill="#000000" font-family="sans-serif" font-size="12" lengthAdjust="spacing" textLength="18.2813" x="419.7612" y="305.2324">oui</text><path d="M500.6294,507 L500.6294,514.9844 L480.6294,518.9844 L500.6294,522.9844 L500.6294,530.9688 A0,0 0 0 0 500.6294,530.9688 L707.4009,530.9688 A0,0 0 0 0 707.4009,530.9688 L707.4009,517 L697.4009,507 L500.6294,507 A0,0 0 0 0 500.6294,507" fill="#FEFFDD" style="stroke:#181818;stroke-width:0.5;"/><path d="M697.4009,507 L697.4009,517 L707.4009,517 L697.4009,507" fill="#FEFFDD" style="stroke:#181818;stroke-width:0.5;"/><text fill="#000000" font-family="sans-serif" font-size="12" lengthAdjust="spacing" textLength="185.7715" x="506.6294" y="523.1387">WishlistController::toggleLike()</text><rect fill="#BBDEFB" height="33.9688" rx="12.5" ry="12.5" style="stroke:#333333;stroke-width:0.5;" width="222.0137" x="258.6157" y="502"/><text fill="#000000" font-family="sans-serif" font-size="12" lengthAdjust="spacing" textLength="202.0137" x="268.6157" y="523.1387">Traitement de la demande toggle</text><path d="M483.2856,575.9688 L483.2856,583.9531 L463.2856,587.9531 L483.2856,591.9531 L483.2856,599.9375 A0,0 0 0 0 483.2856,599.9375 L659.7407,599.9375 A0,0 0 0 0 659.7407,599.9375 L659.7407,585.9688 L649.7407,575.9688 L483.2856,575.9688 A0,0 0 0 0 483.2856,575.9688" fill="#FEFFDD" style="stroke:#181818;stroke-width:0.5;"/><path d="M649.7407,575.9688 L649.7407,585.9688 L659.7407,585.9688 L649.7407,575.9688" fill="#FEFFDD" style="stroke:#181818;stroke-width:0.5;"/><text fill="#000000" font-family="sans-serif" font-size="12" lengthAdjust="spacing" textLength="155.4551" x="489.2856" y="592.1074">OffreModel::isOffreLiked()</text><rect fill="#BBDEFB" height="33.9688" rx="12.5" ry="12.5" style="stroke:#333333;stroke-width:0.5;" width="187.3262" x="275.9595" y="570.9688"/><text fill="#000000" font-family="sans-serif" font-size="12" lengthAdjust="spacing" textLength="167.3262" x="285.9595" y="592.1074">V&#233;rification du statut actuel</text><polygon fill="#90CAF9" points="301.0503,639.9375,438.1948,639.9375,450.1948,651.9375,438.1948,663.9375,301.0503,663.9375,289.0503,651.9375,301.0503,639.9375" style="stroke:#333333;stroke-width:0.5;"/><text fill="#000000" font-family="sans-serif" font-size="12" lengthAdjust="spacing" textLength="137.1445" x="301.0503" y="656.0918">Offre d&#233;j&#224; en wishlist ?</text><text fill="#000000" font-family="sans-serif" font-size="12" lengthAdjust="spacing" textLength="18.2813" x="270.769" y="649.1074">oui</text><text fill="#000000" font-family="sans-serif" font-size="12" lengthAdjust="spacing" textLength="22.5527" x="450.1948" y="649.1074">non</text><path d="M275.6895,678.9375 L275.6895,686.9219 L255.6895,690.9219 L275.6895,694.9219 L275.6895,702.9063 A0,0 0 0 0 275.6895,702.9063 L488.5605,702.9063 A0,0 0 0 0 488.5605,702.9063 L488.5605,688.9375 L478.5605,678.9375 L275.6895,678.9375 A0,0 0 0 0 275.6895,678.9375" fill="#FEFFDD" style="stroke:#181818;stroke-width:0.5;"/><path d="M478.5605,678.9375 L478.5605,688.9375 L488.5605,688.9375 L478.5605,678.9375" fill="#FEFFDD" style="stroke:#181818;stroke-width:0.5;"/><text fill="#000000" font-family="sans-serif" font-size="12" lengthAdjust="spacing" textLength="191.8711" x="281.6895" y="695.0762">OffreModel::toggleLike(remove)</text><rect fill="#BBDEFB" height="33.9688" rx="12.5" ry="12.5" style="stroke:#333333;stroke-width:0.5;" width="232.6895" x="23" y="673.9375"/><text fill="#000000" font-family="sans-serif" font-size="12" lengthAdjust="spacing" textLength="212.6895" x="33" y="695.0762">Suppression de l'offre de la wishlist</text><path d="M711.2402,678.9375 L711.2402,686.9219 L691.2402,690.9219 L711.2402,694.9219 L711.2402,702.9063 A0,0 0 0 0 711.2402,702.9063 L900.8672,702.9063 A0,0 0 0 0 900.8672,702.9063 L900.8672,688.9375 L890.8672,678.9375 L711.2402,678.9375 A0,0 0 0 0 711.2402,678.9375" fill="#FEFFDD" style="stroke:#181818;stroke-width:0.5;"/><path d="M890.8672,678.9375 L890.8672,688.9375 L900.8672,688.9375 L890.8672,678.9375" fill="#FEFFDD" style="stroke:#181818;stroke-width:0.5;"/><text fill="#000000" font-family="sans-serif" font-size="12" lengthAdjust="spacing" textLength="168.627" x="717.2402" y="695.0762">OffreModel::toggleLike(add)</text><rect fill="#BBDEFB" height="33.9688" rx="12.5" ry="12.5" style="stroke:#333333;stroke-width:0.5;" width="182.6797" x="508.5605" y="673.9375"/><text fill="#000000" font-family="sans-serif" font-size="12" lengthAdjust="spacing" textLength="162.6797" x="518.5605" y="695.0762">Ajout de l'offre &#224; la wishlist</text><polygon fill="#90CAF9" points="369.6226,713.9063,381.6226,725.9063,369.6226,737.9063,357.6226,725.9063,369.6226,713.9063" style="stroke:#333333;stroke-width:0.5;"/><rect fill="#BBDEFB" height="33.9688" rx="12.5" ry="12.5" style="stroke:#333333;stroke-width:0.5;" width="176.416" x="281.4146" y="772.9063"/><text fill="#000000" font-family="sans-serif" font-size="12" lengthAdjust="spacing" textLength="156.416" x="291.4146" y="794.0449">Mise &#224; jour visuelle (AJAX)</text><rect fill="#BBDEFB" height="33.9688" rx="12.5" ry="12.5" style="stroke:#333333;stroke-width:0.5;" width="176.041" x="281.6021" y="841.875"/><text fill="#000000" font-family="sans-serif" font-size="12" lengthAdjust="spacing" textLength="156.041" x="291.6021" y="863.0137">Retour &#224; la page d'origine</text><rect fill="#BBDEFB" height="33.9688" rx="12.5" ry="12.5" style="stroke:#333333;stroke-width:0.5;" width="225.0195" x="1272.291" y="115.625"/><text fill="#000000" font-family="sans-serif" font-size="12" lengthAdjust="spacing" textLength="205.0195" x="1282.291" y="136.7637">Utilisateur clique sur "Ma wishlist"</text><rect fill="#BBDEFB" height="33.9688" rx="12.5" ry="12.5" style="stroke:#333333;stroke-width:0.5;" width="250.8887" x="1259.3564" y="233.5781"/><text fill="#000000" font-family="sans-serif" font-size="12" lengthAdjust="spacing" textLength="230.8887" x="1269.3564" y="254.7168">Redirection vers la page de connexion</text><ellipse cx="1384.8008" cy="309.0625" fill="none" rx="11" ry="11" style="stroke:#222222;stroke-width:1;"/><ellipse cx="1384.8008" cy="309.0625" fill="#222222" rx="6" ry="6" style="stroke:#222222;stroke-width:1;"/><polygon fill="#90CAF9" points="1346.6621,184.5938,1422.9395,184.5938,1434.9395,196.5938,1422.9395,208.5938,1346.6621,208.5938,1334.6621,196.5938,1346.6621,184.5938" style="stroke:#333333;stroke-width:0.5;"/><text fill="#000000" font-family="sans-serif" font-size="12" lengthAdjust="spacing" textLength="22.5527" x="1388.8008" y="219.7324">non</text><text fill="#000000" font-family="sans-serif" font-size="12" lengthAdjust="spacing" textLength="76.2773" x="1346.6621" y="200.748">Authentifi&#233; ?</text><text fill="#000000" font-family="sans-serif" font-size="12" lengthAdjust="spacing" textLength="18.2813" x="1434.9395" y="193.7637">oui</text><path d="M1494.9014,391.0469 L1494.9014,399.0313 L1474.9014,403.0313 L1494.9014,407.0313 L1494.9014,415.0156 A0,0 0 0 0 1494.9014,415.0156 L1672.3643,415.0156 A0,0 0 0 0 1672.3643,415.0156 L1672.3643,401.0469 L1662.3643,391.0469 L1494.9014,391.0469 A0,0 0 0 0 1494.9014,391.0469" fill="#FEFFDD" style="stroke:#181818;stroke-width:0.5;"/><path d="M1662.3643,391.0469 L1662.3643,401.0469 L1672.3643,401.0469 L1662.3643,391.0469" fill="#FEFFDD" style="stroke:#181818;stroke-width:0.5;"/><text fill="#000000" font-family="sans-serif" font-size="12" lengthAdjust="spacing" textLength="156.4629" x="1500.9014" y="407.1855">WishlistController::index()</text><rect fill="#BBDEFB" height="33.9688" rx="12.5" ry="12.5" style="stroke:#333333;stroke-width:0.5;" width="180.2012" x="1294.7002" y="386.0469"/><text fill="#000000" font-family="sans-serif" font-size="12" lengthAdjust="spacing" textLength="160.2012" x="1304.7002" y="407.1855">Traitement de la demande</text><path d="M1514.7412,460.0156 L1514.7412,468 L1494.7412,472 L1514.7412,476 L1514.7412,483.9844 A0,0 0 0 0 1514.7412,483.9844 L1722.2803,483.9844 A0,0 0 0 0 1722.2803,483.9844 L1722.2803,470.0156 L1712.2803,460.0156 L1514.7412,460.0156 A0,0 0 0 0 1514.7412,460.0156" fill="#FEFFDD" style="stroke:#181818;stroke-width:0.5;"/><path d="M1712.2803,460.0156 L1712.2803,470.0156 L1722.2803,470.0156 L1712.2803,460.0156" fill="#FEFFDD" style="stroke:#181818;stroke-width:0.5;"/><text fill="#000000" font-family="sans-serif" font-size="12" lengthAdjust="spacing" textLength="186.5391" x="1520.7412" y="476.1543">OffreModel::getWishlistOffres()</text><rect fill="#BBDEFB" height="33.9688" rx="12.5" ry="12.5" style="stroke:#333333;stroke-width:0.5;" width="219.8809" x="1274.8604" y="455.0156"/><text fill="#000000" font-family="sans-serif" font-size="12" lengthAdjust="spacing" textLength="199.8809" x="1284.8604" y="476.1543">R&#233;cup&#233;ration des offres favorites</text><path d="M1483.9561,528.9844 L1483.9561,536.9688 L1463.9561,540.9688 L1483.9561,544.9688 L1483.9561,552.9531 A0,0 0 0 0 1483.9561,552.9531 L1578.8721,552.9531 A0,0 0 0 0 1578.8721,552.9531 L1578.8721,538.9844 L1568.8721,528.9844 L1483.9561,528.9844 A0,0 0 0 0 1483.9561,528.9844" fill="#FEFFDD" style="stroke:#181818;stroke-width:0.5;"/><path d="M1568.8721,528.9844 L1568.8721,538.9844 L1578.8721,538.9844 L1568.8721,528.9844" fill="#FEFFDD" style="stroke:#181818;stroke-width:0.5;"/><text fill="#000000" font-family="sans-serif" font-size="12" lengthAdjust="spacing" textLength="73.916" x="1489.9561" y="545.123">wishlist.twig</text><rect fill="#BBDEFB" height="33.9688" rx="12.5" ry="12.5" style="stroke:#333333;stroke-width:0.5;" width="158.3105" x="1305.6455" y="523.9844"/><text fill="#000000" font-family="sans-serif" font-size="12" lengthAdjust="spacing" textLength="138.3105" x="1315.6455" y="545.123">Affichage de la wishlist</text><polygon fill="#90CAF9" points="992.7275,617.9531,1092.1318,617.9531,1104.1318,629.9531,1092.1318,641.9531,992.7275,641.9531,980.7275,629.9531,992.7275,617.9531" style="stroke:#333333;stroke-width:0.5;"/><text fill="#000000" font-family="sans-serif" font-size="12" lengthAdjust="spacing" textLength="62.7305" x="1046.4297" y="653.0918">Supprimer</text><text fill="#000000" font-family="sans-serif" font-size="12" lengthAdjust="spacing" textLength="99.4043" x="992.7275" y="634.1074">Action sur liste ?</text><rect fill="#BBDEFB" height="33.9688" rx="12.5" ry="12.5" style="stroke:#333333;stroke-width:0.5;" width="221.5977" x="931.6309" y="675.9219"/><text fill="#000000" font-family="sans-serif" font-size="12" lengthAdjust="spacing" textLength="201.5977" x="941.6309" y="697.0605">Utilisateur clique sur "Supprimer"</text><path d="M1160.3027,749.8906 L1160.3027,757.875 L1140.3027,761.875 L1160.3027,765.875 L1160.3027,773.8594 A0,0 0 0 0 1160.3027,773.8594 L1367.0742,773.8594 A0,0 0 0 0 1367.0742,773.8594 L1367.0742,759.8906 L1357.0742,749.8906 L1160.3027,749.8906 A0,0 0 0 0 1160.3027,749.8906" fill="#FEFFDD" style="stroke:#181818;stroke-width:0.5;"/><path d="M1357.0742,749.8906 L1357.0742,759.8906 L1367.0742,759.8906 L1357.0742,749.8906" fill="#FEFFDD" style="stroke:#181818;stroke-width:0.5;"/><text fill="#000000" font-family="sans-serif" font-size="12" lengthAdjust="spacing" textLength="185.7715" x="1166.3027" y="766.0293">WishlistController::toggleLike()</text><rect fill="#BBDEFB" height="33.9688" rx="12.5" ry="12.5" style="stroke:#333333;stroke-width:0.5;" width="195.7461" x="944.5566" y="744.8906"/><text fill="#000000" font-family="sans-serif" font-size="12" lengthAdjust="spacing" textLength="175.7461" x="954.5566" y="766.0293">Traitement de la suppression</text><rect fill="#BBDEFB" height="33.9688" rx="12.5" ry="12.5" style="stroke:#333333;stroke-width:0.5;" width="191.4453" x="946.707" y="813.8594"/><text fill="#000000" font-family="sans-serif" font-size="12" lengthAdjust="spacing" textLength="171.4453" x="956.707" y="834.998">Rafra&#238;chissement de la page</text><polygon fill="#90CAF9" points="1462.8779,617.9531,1524.2373,617.9531,1536.2373,629.9531,1524.2373,641.9531,1462.8779,641.9531,1450.8779,629.9531,1462.8779,617.9531" style="stroke:#333333;stroke-width:0.5;"/><text fill="#000000" font-family="sans-serif" font-size="12" lengthAdjust="spacing" textLength="61.3594" x="1462.8779" y="634.1074">Voir d&#233;tail</text><path d="M1620.041,666.9531 L1620.041,674.9375 L1600.041,678.9375 L1620.041,682.9375 L1620.041,690.9219 A0,0 0 0 0 1620.041,690.9219 L1787.9707,690.9219 A0,0 0 0 0 1787.9707,690.9219 L1787.9707,676.9531 L1777.9707,666.9531 L1620.041,666.9531 A0,0 0 0 0 1620.041,666.9531" fill="#FEFFDD" style="stroke:#181818;stroke-width:0.5;"/><path d="M1777.9707,666.9531 L1777.9707,676.9531 L1787.9707,676.9531 L1777.9707,666.9531" fill="#FEFFDD" style="stroke:#181818;stroke-width:0.5;"/><text fill="#000000" font-family="sans-serif" font-size="12" lengthAdjust="spacing" textLength="146.9297" x="1626.041" y="683.0918">OffreController::details()</text><rect fill="#BBDEFB" height="33.9688" rx="12.5" ry="12.5" style="stroke:#333333;stroke-width:0.5;" width="212.9668" x="1387.0742" y="661.9531"/><text fill="#000000" font-family="sans-serif" font-size="12" lengthAdjust="spacing" textLength="192.9668" x="1397.0742" y="683.0918">Redirection vers d&#233;tail de l'offre</text><rect fill="#555555" height="6" rx="2.5" ry="2.5" style="stroke:#555555;stroke-width:1;" width="1806.9707" x="11" y="915.8438"/><ellipse cx="921.8672" cy="952.8438" fill="none" rx="11" ry="11" style="stroke:#222222;stroke-width:1;"/><ellipse cx="921.8672" cy="952.8438" fill="#222222" rx="6" ry="6" style="stroke:#222222;stroke-width:1;"/><line style="stroke:#666666;stroke-width:1;" x1="369.6226" x2="369.6226" y1="196.5781" y2="231.5781"/><polygon fill="#666666" points="365.6226,221.5781,369.6226,231.5781,373.6226,221.5781,369.6226,225.5781" style="stroke:#666666;stroke-width:1;"/><line style="stroke:#666666;stroke-width:1;" x1="369.6226" x2="369.6226" y1="379.0156" y2="414.0156"/><polygon fill="#666666" points="365.6226,404.0156,369.6226,414.0156,373.6226,404.0156,369.6226,408.0156" style="stroke:#666666;stroke-width:1;"/><line style="stroke:#666666;stroke-width:1;" x1="369.6226" x2="369.6226" y1="320.0625" y2="345.0469"/><polygon fill="#666666" points="365.6226,335.0469,369.6226,345.0469,373.6226,335.0469,369.6226,339.0469" style="stroke:#666666;stroke-width:1;"/><line style="stroke:#666666;stroke-width:1;" x1="419.7612" x2="763.1157" y1="308.0625" y2="308.0625"/><polygon fill="#666666" points="759.1157,377.5313,763.1157,387.5313,767.1157,377.5313,763.1157,381.5313" style="stroke:#666666;stroke-width:1;"/><line style="stroke:#666666;stroke-width:1;" x1="763.1157" x2="763.1157" y1="308.0625" y2="467"/><line style="stroke:#666666;stroke-width:1;" x1="763.1157" x2="369.6226" y1="467" y2="467"/><line style="stroke:#666666;stroke-width:1;" x1="369.6226" x2="369.6226" y1="467" y2="502"/><polygon fill="#666666" points="365.6226,492,369.6226,502,373.6226,492,369.6226,496" style="stroke:#666666;stroke-width:1;"/><line style="stroke:#666666;stroke-width:1;" x1="369.6226" x2="369.6226" y1="265.5469" y2="296.0625"/><polygon fill="#666666" points="365.6226,286.0625,369.6226,296.0625,373.6226,286.0625,369.6226,290.0625" style="stroke:#666666;stroke-width:1;"/><line style="stroke:#666666;stroke-width:1;" x1="369.6226" x2="369.6226" y1="535.9688" y2="570.9688"/><polygon fill="#666666" points="365.6226,560.9688,369.6226,570.9688,373.6226,560.9688,369.6226,564.9688" style="stroke:#666666;stroke-width:1;"/><line style="stroke:#666666;stroke-width:1;" x1="289.0503" x2="139.3447" y1="651.9375" y2="651.9375"/><line style="stroke:#666666;stroke-width:1;" x1="139.3447" x2="139.3447" y1="651.9375" y2="673.9375"/><polygon fill="#666666" points="135.3447,663.9375,139.3447,673.9375,143.3447,663.9375,139.3447,667.9375" style="stroke:#666666;stroke-width:1;"/><line style="stroke:#666666;stroke-width:1;" x1="450.1948" x2="599.9004" y1="651.9375" y2="651.9375"/><line style="stroke:#666666;stroke-width:1;" x1="599.9004" x2="599.9004" y1="651.9375" y2="673.9375"/><polygon fill="#666666" points="595.9004,663.9375,599.9004,673.9375,603.9004,663.9375,599.9004,667.9375" style="stroke:#666666;stroke-width:1;"/><line style="stroke:#666666;stroke-width:1;" x1="139.3447" x2="139.3447" y1="707.9063" y2="725.9063"/><line style="stroke:#666666;stroke-width:1;" x1="139.3447" x2="357.6226" y1="725.9063" y2="725.9063"/><polygon fill="#666666" points="347.6226,721.9063,357.6226,725.9063,347.6226,729.9063,351.6226,725.9063" style="stroke:#666666;stroke-width:1;"/><line style="stroke:#666666;stroke-width:1;" x1="599.9004" x2="599.9004" y1="707.9063" y2="725.9063"/><line style="stroke:#666666;stroke-width:1;" x1="599.9004" x2="381.6226" y1="725.9063" y2="725.9063"/><polygon fill="#666666" points="391.6226,721.9063,381.6226,725.9063,391.6226,729.9063,387.6226,725.9063" style="stroke:#666666;stroke-width:1;"/><line style="stroke:#666666;stroke-width:1;" x1="369.6226" x2="369.6226" y1="604.9375" y2="639.9375"/><polygon fill="#666666" points="365.6226,629.9375,369.6226,639.9375,373.6226,629.9375,369.6226,633.9375" style="stroke:#666666;stroke-width:1;"/><line style="stroke:#666666;stroke-width:1;" x1="369.6226" x2="369.6226" y1="737.9063" y2="772.9063"/><polygon fill="#666666" points="365.6226,762.9063,369.6226,772.9063,373.6226,762.9063,369.6226,766.9063" style="stroke:#666666;stroke-width:1;"/><line style="stroke:#666666;stroke-width:1;" x1="369.6226" x2="369.6226" y1="806.875" y2="841.875"/><polygon fill="#666666" points="365.6226,831.875,369.6226,841.875,373.6226,831.875,369.6226,835.875" style="stroke:#666666;stroke-width:1;"/><line style="stroke:#666666;stroke-width:1;" x1="1384.8008" x2="1384.8008" y1="267.5469" y2="298.0625"/><polygon fill="#666666" points="1380.8008,288.0625,1384.8008,298.0625,1388.8008,288.0625,1384.8008,292.0625" style="stroke:#666666;stroke-width:1;"/><line style="stroke:#666666;stroke-width:1;" x1="1384.8008" x2="1384.8008" y1="208.5938" y2="233.5781"/><polygon fill="#666666" points="1380.8008,223.5781,1384.8008,233.5781,1388.8008,223.5781,1384.8008,227.5781" style="stroke:#666666;stroke-width:1;"/><line style="stroke:#666666;stroke-width:1;" x1="1434.9395" x2="1520.2451" y1="196.5938" y2="196.5938"/><polygon fill="#666666" points="1516.2451,266.0625,1520.2451,276.0625,1524.2451,266.0625,1520.2451,270.0625" style="stroke:#666666;stroke-width:1;"/><line style="stroke:#666666;stroke-width:1;" x1="1520.2451" x2="1520.2451" y1="196.5938" y2="351.0469"/><line style="stroke:#666666;stroke-width:1;" x1="1520.2451" x2="1384.8008" y1="351.0469" y2="351.0469"/><line style="stroke:#666666;stroke-width:1;" x1="1384.8008" x2="1384.8008" y1="351.0469" y2="386.0469"/><polygon fill="#666666" points="1380.8008,376.0469,1384.8008,386.0469,1388.8008,376.0469,1384.8008,380.0469" style="stroke:#666666;stroke-width:1;"/><line style="stroke:#666666;stroke-width:1;" x1="1384.8008" x2="1384.8008" y1="149.5938" y2="184.5938"/><polygon fill="#666666" points="1380.8008,174.5938,1384.8008,184.5938,1388.8008,174.5938,1384.8008,178.5938" style="stroke:#666666;stroke-width:1;"/><line style="stroke:#666666;stroke-width:1;" x1="1384.8008" x2="1384.8008" y1="420.0156" y2="455.0156"/><polygon fill="#666666" points="1380.8008,445.0156,1384.8008,455.0156,1388.8008,445.0156,1384.8008,449.0156" style="stroke:#666666;stroke-width:1;"/><line style="stroke:#666666;stroke-width:1;" x1="1384.8008" x2="1384.8008" y1="488.9844" y2="523.9844"/><polygon fill="#666666" points="1380.8008,513.9844,1384.8008,523.9844,1388.8008,513.9844,1384.8008,517.9844" style="stroke:#666666;stroke-width:1;"/><line style="stroke:#666666;stroke-width:1;" x1="1042.4297" x2="1042.4297" y1="709.8906" y2="744.8906"/><polygon fill="#666666" points="1038.4297,734.8906,1042.4297,744.8906,1046.4297,734.8906,1042.4297,738.8906" style="stroke:#666666;stroke-width:1;"/><line style="stroke:#666666;stroke-width:1;" x1="1042.4297" x2="1042.4297" y1="778.8594" y2="813.8594"/><polygon fill="#666666" points="1038.4297,803.8594,1042.4297,813.8594,1046.4297,803.8594,1042.4297,807.8594" style="stroke:#666666;stroke-width:1;"/><line style="stroke:#666666;stroke-width:1;" x1="1042.4297" x2="1042.4297" y1="641.9531" y2="675.9219"/><polygon fill="#666666" points="1038.4297,665.9219,1042.4297,675.9219,1046.4297,665.9219,1042.4297,669.9219" style="stroke:#666666;stroke-width:1;"/><line style="stroke:#666666;stroke-width:1;" x1="1042.4297" x2="1042.4297" y1="847.8281" y2="895.8438"/><polygon fill="#666666" points="1038.4297,885.8438,1042.4297,895.8438,1046.4297,885.8438,1042.4297,889.8438" style="stroke:#666666;stroke-width:1;"/><line style="stroke:#666666;stroke-width:1;" x1="1493.5576" x2="1493.5576" y1="641.9531" y2="661.9531"/><polygon fill="#666666" points="1489.5576,651.9531,1493.5576,661.9531,1497.5576,651.9531,1493.5576,655.9531" style="stroke:#666666;stroke-width:1;"/><line style="stroke:#666666;stroke-width:1;" x1="1493.5576" x2="1493.5576" y1="695.9219" y2="895.8438"/><polygon fill="#666666" points="1489.5576,885.8438,1493.5576,895.8438,1497.5576,885.8438,1493.5576,889.8438" style="stroke:#666666;stroke-width:1;"/><line style="stroke:#666666;stroke-width:1;" x1="1104.1318" x2="1450.8779" y1="629.9531" y2="629.9531"/><polygon fill="#666666" points="1440.8779,625.9531,1450.8779,629.9531,1440.8779,633.9531,1444.8779,629.9531" style="stroke:#666666;stroke-width:1;"/><line style="stroke:#666666;stroke-width:1;" x1="1384.8008" x2="1384.8008" y1="557.9531" y2="592.9531"/><line style="stroke:#666666;stroke-width:1;" x1="1384.8008" x2="1042.4297" y1="592.9531" y2="592.9531"/><line style="stroke:#666666;stroke-width:1;" x1="1042.4297" x2="1042.4297" y1="592.9531" y2="617.9531"/><polygon fill="#666666" points="1038.4297,607.9531,1042.4297,617.9531,1046.4297,607.9531,1042.4297,611.9531" style="stroke:#666666;stroke-width:1;"/><line style="stroke:#666666;stroke-width:1;" x1="1536.2373" x2="1801.9707" y1="629.9531" y2="629.9531"/><line style="stroke:#666666;stroke-width:1;" x1="1801.9707" x2="1801.9707" y1="629.9531" y2="895.8438"/><polygon fill="#666666" points="1797.9707,885.8438,1801.9707,895.8438,1805.9707,885.8438,1801.9707,889.8438" style="stroke:#666666;stroke-width:1;"/><line style="stroke:#666666;stroke-width:1;" x1="1042.4297" x2="1801.9707" y1="895.8438" y2="895.8438"/><line style="stroke:#666666;stroke-width:1;" x1="369.6226" x2="369.6226" y1="95.625" y2="162.6094"/><polygon fill="#666666" points="365.6226,152.6094,369.6226,162.6094,373.6226,152.6094,369.6226,156.6094" style="stroke:#666666;stroke-width:1;"/><line style="stroke:#666666;stroke-width:1;" x1="1384.8008" x2="1384.8008" y1="95.625" y2="115.625"/><polygon fill="#666666" points="1380.8008,105.625,1384.8008,115.625,1388.8008,105.625,1384.8008,109.625" style="stroke:#666666;stroke-width:1;"/><line style="stroke:#666666;stroke-width:1;" x1="369.6226" x2="369.6226" y1="875.8438" y2="915.8438"/><polygon fill="#666666" points="365.6226,905.8438,369.6226,915.8438,373.6226,905.8438,369.6226,909.8438" style="stroke:#666666;stroke-width:1;"/><line style="stroke:#666666;stroke-width:1;" x1="1384.8008" x2="1384.8008" y1="895.8438" y2="915.8438"/><polygon fill="#666666" points="1380.8008,905.8438,1384.8008,915.8438,1388.8008,905.8438,1384.8008,909.8438" style="stroke:#666666;stroke-width:1;"/><line style="stroke:#666666;stroke-width:1;" x1="921.8672" x2="921.8672" y1="69.625" y2="89.625"/><polygon fill="#666666" points="917.8672,79.625,921.8672,89.625,925.8672,79.625,921.8672,83.625" style="stroke:#666666;stroke-width:1;"/><line style="stroke:#666666;stroke-width:1;" x1="921.8672" x2="921.8672" y1="921.8438" y2="941.8438"/><polygon fill="#666666" points="917.8672,931.8438,921.8672,941.8438,925.8672,931.8438,921.8672,935.8438" style="stroke:#666666;stroke-width:1;"/><!--SRC=[jLJDRjD04BxxAKRXa9y3uaT2Qd90JakG45MbjXHkQ6MFdMdMks5_qiAx877WaWidti1lmfCmQsyIAw5LLOaSehNdypSpttopTa5gAOoe8CqShSXzdOfiKHhjLNwifJRmP3ezUJER9lOGgKsE9g9UDhykoXXz4uElcjy_A4v8L5hb1pcFdXsdiwFE1vVa9CwqSXVq3U5vb-i42-6bsmLV98aBS1YDPjBVGexm5gqZhSBn8zcv9Ej6eoInJXYN98KsYmHW_C4HHuH3Ro3JoZ8hWbS8kYWCGjx7QYarJHYhD8SCbNCtRgEVStI2f7tgRgW4xTktxIFZ3-WbVV48be-oJrdzcxFq_dp_sPkqO2fWa7etH-Mee7eDhuSGdc2Wj1eoWFdECIU3MTFO2eq5AM0fIWnTSlaARpaoQR3TSWFjCOjbj9HencEfIrA38OWLPc0YP_ELTNh91vGMOQ0zXRoeSYfYGvT6aCEAQmmfENkEbL1yTBei9Uxhj56-cxn5lgS53eQHzQfU6-uv4-t4F9SXd7SWCkTHxfEU1PbFTOvoF2RRF0MsV4CNX3nhnrUlh-iVt03Sn49seiRcEFk5NovvRZQwHVRZx9l-DXyUYjejezEJmKglSBWLSJUyz5fxryt0fJqcWyZp_R6SacteE8E15LbMZPTXaBvBFmq3Bnl7XL2RiNLCNtCQKZopi0mWIa7g7i_sJdUb_YVBFjPy3t4TCUvsQxZpUftv9RikEWvjN5uen8frSMZlSrs9RfEZUMstn6d1Dfx7zlQ6ssNRlEzS5esOhKxD7S5Ht0dQc9GgD57MkwQqnVLQJGz5ipkx7rhk0GiRv1E54VMlR4xMTgd3N2TnWg6TAqqcB66u9jj6xl14n7IMuuvjwDOLhz_1pYRy3ytDdWGh_GK0]--></g></svg>