<svg xmlns="http://www.w3.org/2000/svg" xmlns:xlink="http://www.w3.org/1999/xlink" contentStyleType="text/css" data-diagram-type="ACTIVITY" height="1475px" preserveAspectRatio="none" style="width:947px;height:1475px;background:#FFFFFF;" version="1.1" viewBox="0 0 947 1475" width="947px" zoomAndPan="magnify"><title>**Flux de Consultation d'Entreprise**</title><defs/><g><text fill="#000000" font-family="sans-serif" font-size="16" font-weight="bold" lengthAdjust="spacing" textLength="301.8906" x="321.3682" y="34.8516">Flux de Consultation d'Entreprise</text><ellipse cx="436.4434" cy="59.625" fill="#222222" rx="10" ry="10" style="stroke:#222222;stroke-width:1;"/><path d="M596.2549,94.625 L596.2549,102.6094 L576.2549,106.6094 L596.2549,110.6094 L596.2549,118.5938 A0,0 0 0 0 596.2549,118.5938 L788.7646,118.5938 A0,0 0 0 0 788.7646,118.5938 L788.7646,104.625 L778.7646,94.625 L596.2549,94.625 A0,0 0 0 0 596.2549,94.625" fill="#FEFFDD" style="stroke:#181818;stroke-width:0.5;"/><path d="M778.7646,94.625 L778.7646,104.625 L788.7646,104.625 L778.7646,94.625" fill="#FEFFDD" style="stroke:#181818;stroke-width:0.5;"/><text fill="#000000" font-family="sans-serif" font-size="12" lengthAdjust="spacing" textLength="171.5098" x="602.2549" y="110.7637">EntrepriseController::index()</text><rect fill="#FFCDD2" height="33.9688" rx="12.5" ry="12.5" style="stroke:#333333;stroke-width:0.5;" width="279.623" x="296.6318" y="89.625"/><text fill="#000000" font-family="sans-serif" font-size="12" lengthAdjust="spacing" textLength="259.623" x="306.6318" y="110.7637">Utilisateur acc&#232;de &#224; la liste des entreprises</text><path d="M552.1016,148.5938 L552.1016,156.5781 L532.1016,160.5781 L552.1016,164.5781 L552.1016,172.5625 A0,0 0 0 0 552.1016,172.5625 L935.627,172.5625 A0,0 0 0 0 935.627,172.5625 L935.627,158.5938 L925.627,148.5938 L552.1016,148.5938 A0,0 0 0 0 552.1016,148.5938" fill="#FEFFDD" style="stroke:#181818;stroke-width:0.5;"/><path d="M925.627,148.5938 L925.627,158.5938 L935.627,158.5938 L925.627,148.5938" fill="#FEFFDD" style="stroke:#181818;stroke-width:0.5;"/><text fill="#000000" font-family="sans-serif" font-size="12" lengthAdjust="spacing" textLength="362.5254" x="558.1016" y="164.7324">EntrepriseModel::getEntreprisesWithPaginationAndRatings()</text><rect fill="#FFCDD2" height="33.9688" rx="12.5" ry="12.5" style="stroke:#333333;stroke-width:0.5;" width="191.3164" x="340.7852" y="143.5938"/><text fill="#000000" font-family="sans-serif" font-size="12" lengthAdjust="spacing" textLength="171.3164" x="350.7852" y="164.7324">Chargement des entreprises</text><path d="M574.1182,202.5625 L574.1182,210.5469 L554.1182,214.5469 L574.1182,218.5469 L574.1182,226.5313 A0,0 0 0 0 574.1182,226.5313 L692.1846,226.5313 A0,0 0 0 0 692.1846,226.5313 L692.1846,212.5625 L682.1846,202.5625 L574.1182,202.5625 A0,0 0 0 0 574.1182,202.5625" fill="#FEFFDD" style="stroke:#181818;stroke-width:0.5;"/><path d="M682.1846,202.5625 L682.1846,212.5625 L692.1846,212.5625 L682.1846,202.5625" fill="#FEFFDD" style="stroke:#181818;stroke-width:0.5;"/><text fill="#000000" font-family="sans-serif" font-size="12" lengthAdjust="spacing" textLength="97.0664" x="580.1182" y="218.7012">entreprises.twig</text><rect fill="#FFCDD2" height="33.9688" rx="12.5" ry="12.5" style="stroke:#333333;stroke-width:0.5;" width="235.3496" x="318.7686" y="197.5625"/><text fill="#000000" font-family="sans-serif" font-size="12" lengthAdjust="spacing" textLength="215.3496" x="328.7686" y="218.7012">Affichage de la liste des entreprises</text><rect fill="#FFCDD2" height="33.9688" rx="12.5" ry="12.5" style="stroke:#333333;stroke-width:0.5;" width="246.2129" x="313.3369" y="251.5313"/><text fill="#000000" font-family="sans-serif" font-size="12" lengthAdjust="spacing" textLength="226.2129" x="323.3369" y="272.6699">Utilisateur s&#233;lectionne une entreprise</text><path d="M546.5439,310.5 L546.5439,318.4844 L526.5439,322.4844 L546.5439,326.4844 L546.5439,334.4688 A0,0 0 0 0 546.5439,334.4688 L745.9912,334.4688 A0,0 0 0 0 745.9912,334.4688 L745.9912,320.5 L735.9912,310.5 L546.5439,310.5 A0,0 0 0 0 546.5439,310.5" fill="#FEFFDD" style="stroke:#181818;stroke-width:0.5;"/><path d="M735.9912,310.5 L735.9912,320.5 L745.9912,320.5 L735.9912,310.5" fill="#FEFFDD" style="stroke:#181818;stroke-width:0.5;"/><text fill="#000000" font-family="sans-serif" font-size="12" lengthAdjust="spacing" textLength="178.4473" x="552.5439" y="326.6387">EntrepriseController::details()</text><rect fill="#FFCDD2" height="33.9688" rx="12.5" ry="12.5" style="stroke:#333333;stroke-width:0.5;" width="180.2012" x="346.3428" y="305.5"/><text fill="#000000" font-family="sans-serif" font-size="12" lengthAdjust="spacing" textLength="160.2012" x="356.3428" y="326.6387">Traitement de la demande</text><path d="M589.7891,350.5 L589.7891,372.4531 L569.7891,376.4531 L589.7891,380.4531 L589.7891,402.4063 A0,0 0 0 0 589.7891,402.4063 L914.7793,402.4063 A0,0 0 0 0 914.7793,402.4063 L914.7793,360.5 L904.7793,350.5 L589.7891,350.5 A0,0 0 0 0 589.7891,350.5" fill="#FEFFDD" style="stroke:#181818;stroke-width:0.5;"/><path d="M904.7793,350.5 L904.7793,360.5 L914.7793,360.5 L904.7793,350.5" fill="#FEFFDD" style="stroke:#181818;stroke-width:0.5;"/><text fill="#000000" font-family="sans-serif" font-size="12" lengthAdjust="spacing" textLength="303.9902" x="595.7891" y="366.6387">- EntrepriseModel::getEntrepriseWithRatingsById()</text><text fill="#000000" font-family="sans-serif" font-size="12" lengthAdjust="spacing" textLength="212.625" x="595.7891" y="380.6074">- EntrepriseModel::getEvaluations()</text><text fill="#000000" font-family="sans-serif" font-size="12" lengthAdjust="spacing" textLength="241.248" x="595.7891" y="394.5762">- EntrepriseModel::getOffresEntreprise()</text><rect fill="#FFCDD2" height="33.9688" rx="12.5" ry="12.5" style="stroke:#333333;stroke-width:0.5;" width="266.6914" x="303.0977" y="359.4688"/><text fill="#000000" font-family="sans-serif" font-size="12" lengthAdjust="spacing" textLength="246.6914" x="313.0977" y="380.6074">R&#233;cup&#233;ration des informations d&#233;taill&#233;es</text><path d="M566.9316,427.4063 L566.9316,435.3906 L546.9316,439.3906 L566.9316,443.3906 L566.9316,451.375 A0,0 0 0 0 566.9316,451.375 L724.7246,451.375 A0,0 0 0 0 724.7246,451.375 L724.7246,437.4063 L714.7246,427.4063 L566.9316,427.4063 A0,0 0 0 0 566.9316,427.4063" fill="#FEFFDD" style="stroke:#181818;stroke-width:0.5;"/><path d="M714.7246,427.4063 L714.7246,437.4063 L724.7246,437.4063 L714.7246,427.4063" fill="#FEFFDD" style="stroke:#181818;stroke-width:0.5;"/><text fill="#000000" font-family="sans-serif" font-size="12" lengthAdjust="spacing" textLength="136.793" x="572.9316" y="443.5449">entreprise_details.twig</text><rect fill="#FFCDD2" height="33.9688" rx="12.5" ry="12.5" style="stroke:#333333;stroke-width:0.5;" width="220.9766" x="325.9551" y="422.4063"/><text fill="#000000" font-family="sans-serif" font-size="12" lengthAdjust="spacing" textLength="200.9766" x="335.9551" y="443.5449">Affichage du profil de l'entreprise</text><rect fill="#FFCDD2" height="33.9688" rx="12.5" ry="12.5" style="stroke:#333333;stroke-width:0.5;" width="234.1543" x="319.3662" y="574.3438"/><text fill="#000000" font-family="sans-serif" font-size="12" lengthAdjust="spacing" textLength="214.1543" x="329.3662" y="595.4824">Affichage du formulaire de notation</text><rect fill="#FFCDD2" height="33.9688" rx="12.5" ry="12.5" style="stroke:#333333;stroke-width:0.5;" width="190.4316" x="341.2275" y="677.2969"/><text fill="#000000" font-family="sans-serif" font-size="12" lengthAdjust="spacing" textLength="170.4316" x="351.2275" y="698.4355">Utilisateur attribue une note</text><rect fill="#FFCDD2" height="33.9688" rx="12.5" ry="12.5" style="stroke:#333333;stroke-width:0.5;" width="214.3438" x="329.2715" y="731.2656"/><text fill="#000000" font-family="sans-serif" font-size="12" lengthAdjust="spacing" textLength="194.3438" x="339.2715" y="752.4043">Utilisateur soumet commentaire</text><path d="M543.2158,805.2344 L543.2158,813.2188 L523.2158,817.2188 L543.2158,821.2188 L543.2158,829.2031 A0,0 0 0 0 543.2158,829.2031 L727.0596,829.2031 A0,0 0 0 0 727.0596,829.2031 L727.0596,815.2344 L717.0596,805.2344 L543.2158,805.2344 A0,0 0 0 0 543.2158,805.2344" fill="#FEFFDD" style="stroke:#181818;stroke-width:0.5;"/><path d="M717.0596,805.2344 L717.0596,815.2344 L727.0596,815.2344 L717.0596,805.2344" fill="#FEFFDD" style="stroke:#181818;stroke-width:0.5;"/><text fill="#000000" font-family="sans-serif" font-size="12" lengthAdjust="spacing" textLength="162.8438" x="549.2158" y="821.373">EntrepriseController::rate()</text><rect fill="#FFCDD2" height="33.9688" rx="12.5" ry="12.5" style="stroke:#333333;stroke-width:0.5;" width="173.5449" x="349.6709" y="800.2344"/><text fill="#000000" font-family="sans-serif" font-size="12" lengthAdjust="spacing" textLength="153.5449" x="359.6709" y="821.373">Traitement de la notation</text><path d="M575.5186,859.2031 L575.5186,867.1875 L555.5186,871.1875 L575.5186,875.1875 L575.5186,883.1719 A0,0 0 0 0 575.5186,883.1719 L797.8291,883.1719 A0,0 0 0 0 797.8291,883.1719 L797.8291,869.2031 L787.8291,859.2031 L575.5186,859.2031 A0,0 0 0 0 575.5186,859.2031" fill="#FEFFDD" style="stroke:#181818;stroke-width:0.5;"/><path d="M787.8291,859.2031 L787.8291,869.2031 L797.8291,869.2031 L787.8291,859.2031" fill="#FEFFDD" style="stroke:#181818;stroke-width:0.5;"/><text fill="#000000" font-family="sans-serif" font-size="12" lengthAdjust="spacing" textLength="201.3105" x="581.5186" y="875.3418">EntrepriseModel::rateEntreprise()</text><rect fill="#FFCDD2" height="33.9688" rx="12.5" ry="12.5" style="stroke:#333333;stroke-width:0.5;" width="238.1504" x="317.3682" y="854.2031"/><text fill="#000000" font-family="sans-serif" font-size="12" lengthAdjust="spacing" textLength="218.1504" x="327.3682" y="875.3418">Enregistrement en base de donn&#233;es</text><rect fill="#FFCDD2" height="33.9688" rx="12.5" ry="12.5" style="stroke:#333333;stroke-width:0.5;" width="191.4453" x="340.7207" y="908.1719"/><text fill="#000000" font-family="sans-serif" font-size="12" lengthAdjust="spacing" textLength="171.4453" x="350.7207" y="929.3105">Rafra&#238;chissement de la page</text><polygon fill="#EF9A9A" points="380.2754,628.3125,492.6113,628.3125,504.6113,640.3125,492.6113,652.3125,380.2754,652.3125,368.2754,640.3125,380.2754,628.3125" style="stroke:#333333;stroke-width:0.5;"/><text fill="#000000" font-family="sans-serif" font-size="12" lengthAdjust="spacing" textLength="33.3398" x="440.4434" y="663.4512">Noter</text><text fill="#000000" font-family="sans-serif" font-size="12" lengthAdjust="spacing" textLength="112.3359" x="380.2754" y="644.4668">Action utilisateur ?</text><polygon fill="#EF9A9A" points="436.4434,962.1406,448.4434,974.1406,436.4434,986.1406,424.4434,974.1406,436.4434,962.1406" style="stroke:#333333;stroke-width:0.5;"/><polygon fill="#EF9A9A" points="361.083,525.3594,511.8037,525.3594,523.8037,537.3594,511.8037,549.3594,361.083,549.3594,349.083,537.3594,361.083,525.3594" style="stroke:#333333;stroke-width:0.5;"/><text fill="#000000" font-family="sans-serif" font-size="12" lengthAdjust="spacing" textLength="22.5527" x="440.4434" y="560.498">non</text><text fill="#000000" font-family="sans-serif" font-size="12" lengthAdjust="spacing" textLength="150.7207" x="361.083" y="541.5137">A d&#233;j&#224; not&#233; l'entreprise ?</text><polygon fill="#EF9A9A" points="436.4434,1006.1406,448.4434,1018.1406,436.4434,1030.1406,424.4434,1018.1406,436.4434,1006.1406" style="stroke:#333333;stroke-width:0.5;"/><polygon fill="#EF9A9A" points="365.9639,476.375,506.9229,476.375,518.9229,488.375,506.9229,500.375,365.9639,500.375,353.9639,488.375,365.9639,476.375" style="stroke:#333333;stroke-width:0.5;"/><text fill="#000000" font-family="sans-serif" font-size="12" lengthAdjust="spacing" textLength="18.2813" x="440.4434" y="511.5137">oui</text><text fill="#000000" font-family="sans-serif" font-size="12" lengthAdjust="spacing" textLength="140.959" x="365.9639" y="492.5293">Utilisateur authentifi&#233; ?</text><polygon fill="#EF9A9A" points="436.4434,1050.1406,448.4434,1062.1406,436.4434,1074.1406,424.4434,1062.1406,436.4434,1050.1406" style="stroke:#333333;stroke-width:0.5;"/><polygon fill="#EF9A9A" points="79.1748,1094.1406,191.5107,1094.1406,203.5107,1106.1406,191.5107,1118.1406,79.1748,1118.1406,67.1748,1106.1406,79.1748,1094.1406" style="stroke:#333333;stroke-width:0.5;"/><text fill="#000000" font-family="sans-serif" font-size="12" lengthAdjust="spacing" textLength="61.9922" x="139.3428" y="1129.2793">Voir offres</text><text fill="#000000" font-family="sans-serif" font-size="12" lengthAdjust="spacing" textLength="112.3359" x="79.1748" y="1110.2949">Action utilisateur ?</text><path d="M279.6855,1157.1094 L279.6855,1165.0938 L259.6855,1169.0938 L279.6855,1173.0938 L279.6855,1181.0781 A0,0 0 0 0 279.6855,1181.0781 L517.6055,1181.0781 A0,0 0 0 0 517.6055,1181.0781 L517.6055,1167.1094 L507.6055,1157.1094 L279.6855,1157.1094 A0,0 0 0 0 279.6855,1157.1094" fill="#FEFFDD" style="stroke:#181818;stroke-width:0.5;"/><path d="M507.6055,1157.1094 L507.6055,1167.1094 L517.6055,1167.1094 L507.6055,1157.1094" fill="#FEFFDD" style="stroke:#181818;stroke-width:0.5;"/><text fill="#000000" font-family="sans-serif" font-size="12" lengthAdjust="spacing" textLength="216.9199" x="285.6855" y="1173.248">OffreModel::getOffresByEntreprise()</text><rect fill="#FFCDD2" height="33.9688" rx="12.5" ry="12.5" style="stroke:#333333;stroke-width:0.5;" width="248.6855" x="11" y="1152.1094"/><text fill="#000000" font-family="sans-serif" font-size="12" lengthAdjust="spacing" textLength="228.6855" x="21" y="1173.248">Chargement des offres de l'entreprise</text><path d="M270.6328,1225.0469 L270.6328,1233.0313 L250.6328,1237.0313 L270.6328,1241.0313 L270.6328,1249.0156 A0,0 0 0 0 270.6328,1249.0156 L422.8066,1249.0156 A0,0 0 0 0 422.8066,1249.0156 L422.8066,1235.0469 L412.8066,1225.0469 L270.6328,1225.0469 A0,0 0 0 0 270.6328,1225.0469" fill="#FEFFDD" style="stroke:#181818;stroke-width:0.5;"/><path d="M412.8066,1225.0469 L412.8066,1235.0469 L422.8066,1235.0469 L412.8066,1225.0469" fill="#FEFFDD" style="stroke:#181818;stroke-width:0.5;"/><text fill="#000000" font-family="sans-serif" font-size="12" lengthAdjust="spacing" textLength="131.1738" x="276.6328" y="1241.1855">offres_entreprise.twig</text><rect fill="#FFCDD2" height="33.9688" rx="12.5" ry="12.5" style="stroke:#333333;stroke-width:0.5;" width="230.5801" x="20.0527" y="1220.0469"/><text fill="#000000" font-family="sans-serif" font-size="12" lengthAdjust="spacing" textLength="210.5801" x="30.0527" y="1241.1855">Affichage des offres de l'entreprise</text><polygon fill="#EF9A9A" points="645.4023,1094.1406,692.0898,1094.1406,704.0898,1106.1406,692.0898,1118.1406,645.4023,1118.1406,633.4023,1106.1406,645.4023,1094.1406" style="stroke:#333333;stroke-width:0.5;"/><text fill="#000000" font-family="sans-serif" font-size="12" lengthAdjust="spacing" textLength="46.6875" x="645.4023" y="1110.2949">Contact</text><rect fill="#FFCDD2" height="33.9688" rx="12.5" ry="12.5" style="stroke:#333333;stroke-width:0.5;" width="248.6855" x="544.4033" y="1138.1406"/><text fill="#000000" font-family="sans-serif" font-size="12" lengthAdjust="spacing" textLength="228.6855" x="554.4033" y="1159.2793">Affichage des informations de contact</text><rect fill="#FFCDD2" height="33.9688" rx="12.5" ry="12.5" style="stroke:#333333;stroke-width:0.5;" width="210.0313" x="563.7305" y="1255.0625"/><text fill="#000000" font-family="sans-serif" font-size="12" lengthAdjust="spacing" textLength="190.0313" x="573.7305" y="1276.2012">Affichage formulaire de contact</text><rect fill="#FFCDD2" height="33.9688" rx="12.5" ry="12.5" style="stroke:#333333;stroke-width:0.5;" width="242.2813" x="547.6055" y="1324.0313"/><text fill="#000000" font-family="sans-serif" font-size="12" lengthAdjust="spacing" textLength="222.2813" x="557.6055" y="1345.1699">Utilisateur peut envoyer un message</text><polygon fill="#EF9A9A" points="598.2666,1206.0781,739.2256,1206.0781,751.2256,1218.0781,739.2256,1230.0781,598.2666,1230.0781,586.2666,1218.0781,598.2666,1206.0781" style="stroke:#333333;stroke-width:0.5;"/><text fill="#000000" font-family="sans-serif" font-size="12" lengthAdjust="spacing" textLength="18.2813" x="672.7461" y="1241.2168">oui</text><text fill="#000000" font-family="sans-serif" font-size="12" lengthAdjust="spacing" textLength="140.959" x="598.2666" y="1222.2324">Utilisateur authentifi&#233; ?</text><polygon fill="#EF9A9A" points="668.7461,1378,680.7461,1390,668.7461,1402,656.7461,1390,668.7461,1378" style="stroke:#333333;stroke-width:0.5;"/><ellipse cx="436.4434" cy="1453" fill="none" rx="11" ry="11" style="stroke:#222222;stroke-width:1;"/><ellipse cx="436.4434" cy="1453" fill="#222222" rx="6" ry="6" style="stroke:#222222;stroke-width:1;"/><line style="stroke:#666666;stroke-width:1;" x1="436.4434" x2="436.4434" y1="69.625" y2="89.625"/><polygon fill="#666666" points="432.4434,79.625,436.4434,89.625,440.4434,79.625,436.4434,83.625" style="stroke:#666666;stroke-width:1;"/><line style="stroke:#666666;stroke-width:1;" x1="436.4434" x2="436.4434" y1="123.5938" y2="143.5938"/><polygon fill="#666666" points="432.4434,133.5938,436.4434,143.5938,440.4434,133.5938,436.4434,137.5938" style="stroke:#666666;stroke-width:1;"/><line style="stroke:#666666;stroke-width:1;" x1="436.4434" x2="436.4434" y1="177.5625" y2="197.5625"/><polygon fill="#666666" points="432.4434,187.5625,436.4434,197.5625,440.4434,187.5625,436.4434,191.5625" style="stroke:#666666;stroke-width:1;"/><line style="stroke:#666666;stroke-width:1;" x1="436.4434" x2="436.4434" y1="231.5313" y2="251.5313"/><polygon fill="#666666" points="432.4434,241.5313,436.4434,251.5313,440.4434,241.5313,436.4434,245.5313" style="stroke:#666666;stroke-width:1;"/><line style="stroke:#666666;stroke-width:1;" x1="436.4434" x2="436.4434" y1="285.5" y2="305.5"/><polygon fill="#666666" points="432.4434,295.5,436.4434,305.5,440.4434,295.5,436.4434,299.5" style="stroke:#666666;stroke-width:1;"/><line style="stroke:#666666;stroke-width:1;" x1="436.4434" x2="436.4434" y1="339.4688" y2="359.4688"/><polygon fill="#666666" points="432.4434,349.4688,436.4434,359.4688,440.4434,349.4688,436.4434,353.4688" style="stroke:#666666;stroke-width:1;"/><line style="stroke:#666666;stroke-width:1;" x1="436.4434" x2="436.4434" y1="393.4375" y2="422.4063"/><polygon fill="#666666" points="432.4434,412.4063,436.4434,422.4063,440.4434,412.4063,436.4434,416.4063" style="stroke:#666666;stroke-width:1;"/><line style="stroke:#666666;stroke-width:1;" x1="436.4434" x2="436.4434" y1="711.2656" y2="731.2656"/><polygon fill="#666666" points="432.4434,721.2656,436.4434,731.2656,440.4434,721.2656,436.4434,725.2656" style="stroke:#666666;stroke-width:1;"/><line style="stroke:#666666;stroke-width:1;" x1="436.4434" x2="436.4434" y1="765.2344" y2="800.2344"/><polygon fill="#666666" points="432.4434,790.2344,436.4434,800.2344,440.4434,790.2344,436.4434,794.2344" style="stroke:#666666;stroke-width:1;"/><line style="stroke:#666666;stroke-width:1;" x1="436.4434" x2="436.4434" y1="834.2031" y2="854.2031"/><polygon fill="#666666" points="432.4434,844.2031,436.4434,854.2031,440.4434,844.2031,436.4434,848.2031" style="stroke:#666666;stroke-width:1;"/><line style="stroke:#666666;stroke-width:1;" x1="436.4434" x2="436.4434" y1="888.1719" y2="908.1719"/><polygon fill="#666666" points="432.4434,898.1719,436.4434,908.1719,440.4434,898.1719,436.4434,902.1719" style="stroke:#666666;stroke-width:1;"/><line style="stroke:#666666;stroke-width:1;" x1="436.4434" x2="436.4434" y1="652.3125" y2="677.2969"/><polygon fill="#666666" points="432.4434,667.2969,436.4434,677.2969,440.4434,667.2969,436.4434,671.2969" style="stroke:#666666;stroke-width:1;"/><line style="stroke:#666666;stroke-width:1;" x1="504.6113" x2="807.8291" y1="640.3125" y2="640.3125"/><polygon fill="#666666" points="803.8291,807.2188,807.8291,817.2188,811.8291,807.2188,807.8291,811.2188" style="stroke:#666666;stroke-width:1;"/><line style="stroke:#666666;stroke-width:1;" x1="807.8291" x2="807.8291" y1="640.3125" y2="974.1406"/><line style="stroke:#666666;stroke-width:1;" x1="807.8291" x2="448.4434" y1="974.1406" y2="974.1406"/><polygon fill="#666666" points="458.4434,970.1406,448.4434,974.1406,458.4434,978.1406,454.4434,974.1406" style="stroke:#666666;stroke-width:1;"/><line style="stroke:#666666;stroke-width:1;" x1="436.4434" x2="436.4434" y1="942.1406" y2="962.1406"/><polygon fill="#666666" points="432.4434,952.1406,436.4434,962.1406,440.4434,952.1406,436.4434,956.1406" style="stroke:#666666;stroke-width:1;"/><line style="stroke:#666666;stroke-width:1;" x1="436.4434" x2="436.4434" y1="608.3125" y2="628.3125"/><polygon fill="#666666" points="432.4434,618.3125,436.4434,628.3125,440.4434,618.3125,436.4434,622.3125" style="stroke:#666666;stroke-width:1;"/><line style="stroke:#666666;stroke-width:1;" x1="436.4434" x2="436.4434" y1="549.3594" y2="574.3438"/><polygon fill="#666666" points="432.4434,564.3438,436.4434,574.3438,440.4434,564.3438,436.4434,568.3438" style="stroke:#666666;stroke-width:1;"/><line style="stroke:#666666;stroke-width:1;" x1="523.8037" x2="829.8291" y1="537.3594" y2="537.3594"/><polygon fill="#666666" points="825.8291,772.7344,829.8291,782.7344,833.8291,772.7344,829.8291,776.7344" style="stroke:#666666;stroke-width:1;"/><line style="stroke:#666666;stroke-width:1;" x1="829.8291" x2="829.8291" y1="537.3594" y2="1018.1406"/><line style="stroke:#666666;stroke-width:1;" x1="829.8291" x2="448.4434" y1="1018.1406" y2="1018.1406"/><polygon fill="#666666" points="458.4434,1014.1406,448.4434,1018.1406,458.4434,1022.1406,454.4434,1018.1406" style="stroke:#666666;stroke-width:1;"/><line style="stroke:#666666;stroke-width:1;" x1="436.4434" x2="436.4434" y1="986.1406" y2="1006.1406"/><polygon fill="#666666" points="432.4434,996.1406,436.4434,1006.1406,440.4434,996.1406,436.4434,1000.1406" style="stroke:#666666;stroke-width:1;"/><line style="stroke:#666666;stroke-width:1;" x1="436.4434" x2="436.4434" y1="500.375" y2="525.3594"/><polygon fill="#666666" points="432.4434,515.3594,436.4434,525.3594,440.4434,515.3594,436.4434,519.3594" style="stroke:#666666;stroke-width:1;"/><line style="stroke:#666666;stroke-width:1;" x1="518.9229" x2="851.8291" y1="488.375" y2="488.375"/><polygon fill="#666666" points="847.8291,772.7344,851.8291,782.7344,855.8291,772.7344,851.8291,776.7344" style="stroke:#666666;stroke-width:1;"/><line style="stroke:#666666;stroke-width:1;" x1="851.8291" x2="851.8291" y1="488.375" y2="1062.1406"/><line style="stroke:#666666;stroke-width:1;" x1="851.8291" x2="448.4434" y1="1062.1406" y2="1062.1406"/><polygon fill="#666666" points="458.4434,1058.1406,448.4434,1062.1406,458.4434,1066.1406,454.4434,1062.1406" style="stroke:#666666;stroke-width:1;"/><line style="stroke:#666666;stroke-width:1;" x1="436.4434" x2="436.4434" y1="1030.1406" y2="1050.1406"/><polygon fill="#666666" points="432.4434,1040.1406,436.4434,1050.1406,440.4434,1040.1406,436.4434,1044.1406" style="stroke:#666666;stroke-width:1;"/><line style="stroke:#666666;stroke-width:1;" x1="436.4434" x2="436.4434" y1="456.375" y2="476.375"/><polygon fill="#666666" points="432.4434,466.375,436.4434,476.375,440.4434,466.375,436.4434,470.375" style="stroke:#666666;stroke-width:1;"/><line style="stroke:#666666;stroke-width:1;" x1="135.3428" x2="135.3428" y1="1186.0781" y2="1220.0469"/><polygon fill="#666666" points="131.3428,1210.0469,135.3428,1220.0469,139.3428,1210.0469,135.3428,1214.0469" style="stroke:#666666;stroke-width:1;"/><line style="stroke:#666666;stroke-width:1;" x1="668.7461" x2="668.7461" y1="1289.0313" y2="1324.0313"/><polygon fill="#666666" points="664.7461,1314.0313,668.7461,1324.0313,672.7461,1314.0313,668.7461,1318.0313" style="stroke:#666666;stroke-width:1;"/><line style="stroke:#666666;stroke-width:1;" x1="668.7461" x2="668.7461" y1="1230.0781" y2="1255.0625"/><polygon fill="#666666" points="664.7461,1245.0625,668.7461,1255.0625,672.7461,1245.0625,668.7461,1249.0625" style="stroke:#666666;stroke-width:1;"/><line style="stroke:#666666;stroke-width:1;" x1="751.2256" x2="799.8867" y1="1218.0781" y2="1218.0781"/><polygon fill="#666666" points="795.8867,1296.5313,799.8867,1306.5313,803.8867,1296.5313,799.8867,1300.5313" style="stroke:#666666;stroke-width:1;"/><line style="stroke:#666666;stroke-width:1;" x1="799.8867" x2="799.8867" y1="1218.0781" y2="1390"/><line style="stroke:#666666;stroke-width:1;" x1="799.8867" x2="680.7461" y1="1390" y2="1390"/><polygon fill="#666666" points="690.7461,1386,680.7461,1390,690.7461,1394,686.7461,1390" style="stroke:#666666;stroke-width:1;"/><line style="stroke:#666666;stroke-width:1;" x1="668.7461" x2="668.7461" y1="1358" y2="1378"/><polygon fill="#666666" points="664.7461,1368,668.7461,1378,672.7461,1368,668.7461,1372" style="stroke:#666666;stroke-width:1;"/><line style="stroke:#666666;stroke-width:1;" x1="668.7461" x2="668.7461" y1="1172.1094" y2="1206.0781"/><polygon fill="#666666" points="664.7461,1196.0781,668.7461,1206.0781,672.7461,1196.0781,668.7461,1200.0781" style="stroke:#666666;stroke-width:1;"/><line style="stroke:#666666;stroke-width:1;" x1="135.3428" x2="135.3428" y1="1118.1406" y2="1152.1094"/><polygon fill="#666666" points="131.3428,1142.1094,135.3428,1152.1094,139.3428,1142.1094,135.3428,1146.1094" style="stroke:#666666;stroke-width:1;"/><line style="stroke:#666666;stroke-width:1;" x1="135.3428" x2="135.3428" y1="1254.0156" y2="1422"/><polygon fill="#666666" points="131.3428,1412,135.3428,1422,139.3428,1412,135.3428,1416" style="stroke:#666666;stroke-width:1;"/><line style="stroke:#666666;stroke-width:1;" x1="668.7461" x2="668.7461" y1="1118.1406" y2="1138.1406"/><polygon fill="#666666" points="664.7461,1128.1406,668.7461,1138.1406,672.7461,1128.1406,668.7461,1132.1406" style="stroke:#666666;stroke-width:1;"/><line style="stroke:#666666;stroke-width:1;" x1="668.7461" x2="668.7461" y1="1402" y2="1422"/><polygon fill="#666666" points="664.7461,1412,668.7461,1422,672.7461,1412,668.7461,1416" style="stroke:#666666;stroke-width:1;"/><line style="stroke:#666666;stroke-width:1;" x1="203.5107" x2="633.4023" y1="1106.1406" y2="1106.1406"/><polygon fill="#666666" points="623.4023,1102.1406,633.4023,1106.1406,623.4023,1110.1406,627.4023,1106.1406" style="stroke:#666666;stroke-width:1;"/><line style="stroke:#666666;stroke-width:1;" x1="436.4434" x2="436.4434" y1="1074.1406" y2="1079.1406"/><line style="stroke:#666666;stroke-width:1;" x1="436.4434" x2="135.3428" y1="1079.1406" y2="1079.1406"/><line style="stroke:#666666;stroke-width:1;" x1="135.3428" x2="135.3428" y1="1079.1406" y2="1094.1406"/><polygon fill="#666666" points="131.3428,1084.1406,135.3428,1094.1406,139.3428,1084.1406,135.3428,1088.1406" style="stroke:#666666;stroke-width:1;"/><line style="stroke:#666666;stroke-width:1;" x1="704.0898" x2="846.8867" y1="1106.1406" y2="1106.1406"/><line style="stroke:#666666;stroke-width:1;" x1="846.8867" x2="846.8867" y1="1106.1406" y2="1422"/><polygon fill="#666666" points="842.8867,1412,846.8867,1422,850.8867,1412,846.8867,1416" style="stroke:#666666;stroke-width:1;"/><line style="stroke:#666666;stroke-width:1;" x1="135.3428" x2="846.8867" y1="1422" y2="1422"/><line style="stroke:#666666;stroke-width:1;" x1="436.4434" x2="436.4434" y1="1422" y2="1442"/><polygon fill="#666666" points="432.4434,1432,436.4434,1442,440.4434,1432,436.4434,1436" style="stroke:#666666;stroke-width:1;"/><!--SRC=[ZLJBRjim4BphAnRe8Ow15cWA58XyA1mx1dhe0sdQ7WD6MidRKAJ0HnBtQtgiB_a9_LYNb69BTffOW2MB7CxE3eUoDwHgOKG5qypHBRdLcSXkIgEzocTQQWEl5elPV7wIs7saDZcQ3lKkNdsKCVgkctmVhoSevYGghVAzckUBq-dfjBVWafp4XLRk6_r6UDldccCXl7JRoPCaSG4Eu_52-dl84MPQMSO8Hrf1VdIkdC7QaCNnE4ci4yObwNT7agnmw0s8B6l-yhhc3qW1FEoGQIpWPg6T94hpgA5owLBOCd8fPxIKQDAKL8xte-CaIMTBOKgiUFsXF9zqZZ9DItJRCVkJtFAhA4d5JgOgl-0_ghInnhGeA5kACaWzK7Pluesxep8Psc2RjSGib588ddzR_8IXbqQGUsmgLCon4jpo8TRaw0J9LlX5iyvytQnDjp-ic5IXJHNVBUJDEe1binxgJm1Ul-1OCAppw6prCUTo_rrpAwHl2pw3-b8K1krsXg6eSWYQXZlWeJQw81cTEUhxzhJ_LvqXtJPG0QD18BrRCfWAQjRmuHZ26uoqfo0rWAV1fL-SLwPdIB_a5g-q2dY0eT9WjPU2J4mE4qGR9X4PRx50p07udgWDxsTkoRJCp3tGxPoXQz-c9tG-UGfbjQ_GGQQh4AOWP0FRozXG7i3BKUDOuMYZxbmPBFbac9QKvLyB6nlFEUPjn9vZxh8GI0SnwEWlH654yv0joTg-x9gzReavBrGaZy_sdhpay0zD1dGCNoYr-prfP_QpDcmYXdStosUhdJO6tv53gLlKrHRGvXYbnT1Qs0wHkRQR_Hh3quuSX0YVTDa- -20CY8Ufxb7kXAz67s9mgrTeEAPGeRNTPWsso3fT_mC0]--></g></svg>