<svg xmlns="http://www.w3.org/2000/svg" xmlns:xlink="http://www.w3.org/1999/xlink" contentStyleType="text/css" data-diagram-type="ACTIVITY" height="736px" preserveAspectRatio="none" style="width:1134px;height:736px;background:#FFFFFF;" version="1.1" viewBox="0 0 1134 736" width="1134px" zoomAndPan="magnify"><title>**Flux d'Authentification**</title><defs/><g><text fill="#000000" font-family="sans-serif" font-size="16" font-weight="bold" lengthAdjust="spacing" textLength="206.4766" x="462.4465" y="34.8516">Flux d'Authentification</text><ellipse cx="489.3975" cy="59.625" fill="#222222" rx="10" ry="10" style="stroke:#222222;stroke-width:1;"/><rect fill="#E3F2FD" height="33.9688" rx="12.5" ry="12.5" style="stroke:#333333;stroke-width:0.5;" width="272.4688" x="353.1631" y="89.625"/><text fill="#000000" font-family="sans-serif" font-size="12" lengthAdjust="spacing" textLength="252.4688" x="363.1631" y="110.7637">Utilisateur acc&#232;de &#224; la page de connexion</text><path d="M632.4365,148.5938 L632.4365,156.5781 L612.4365,160.5781 L632.4365,164.5781 L632.4365,172.5625 A0,0 0 0 0 632.4365,172.5625 L863.7354,172.5625 A0,0 0 0 0 863.7354,172.5625 L863.7354,158.5938 L853.7354,148.5938 L632.4365,148.5938 A0,0 0 0 0 632.4365,148.5938" fill="#FEFFDD" style="stroke:#181818;stroke-width:0.5;"/><path d="M853.7354,148.5938 L853.7354,158.5938 L863.7354,158.5938 L853.7354,148.5938" fill="#FEFFDD" style="stroke:#181818;stroke-width:0.5;"/><text fill="#000000" font-family="sans-serif" font-size="12" lengthAdjust="spacing" textLength="210.2988" x="638.4365" y="164.7324">AuthController::login() &#8594; login.twig</text><rect fill="#E3F2FD" height="33.9688" rx="12.5" ry="12.5" style="stroke:#333333;stroke-width:0.5;" width="246.0781" x="366.3584" y="143.5938"/><text fill="#000000" font-family="sans-serif" font-size="12" lengthAdjust="spacing" textLength="226.0781" x="376.3584" y="164.7324">Affichage du formulaire de connexion</text><rect fill="#E3F2FD" height="33.9688" rx="12.5" ry="12.5" style="stroke:#333333;stroke-width:0.5;" width="211.7363" x="383.5293" y="197.5625"/><text fill="#000000" font-family="sans-serif" font-size="12" lengthAdjust="spacing" textLength="191.7363" x="393.5293" y="218.7012">Utilisateur saisit ses identifiants</text><rect fill="#E3F2FD" height="33.9688" rx="12.5" ry="12.5" style="stroke:#333333;stroke-width:0.5;" width="210.9922" x="383.9014" y="251.5313"/><text fill="#000000" font-family="sans-serif" font-size="12" lengthAdjust="spacing" textLength="190.9922" x="393.9014" y="272.6699">Utilisateur soumet le formulaire</text><path d="M600.7754,310.5 L600.7754,318.4844 L580.7754,322.4844 L600.7754,326.4844 L600.7754,334.4688 A0,0 0 0 0 600.7754,334.4688 L755.873,334.4688 A0,0 0 0 0 755.873,334.4688 L755.873,320.5 L745.873,310.5 L600.7754,310.5 A0,0 0 0 0 600.7754,310.5" fill="#FEFFDD" style="stroke:#181818;stroke-width:0.5;"/><path d="M745.873,310.5 L745.873,320.5 L755.873,320.5 L745.873,310.5" fill="#FEFFDD" style="stroke:#181818;stroke-width:0.5;"/><text fill="#000000" font-family="sans-serif" font-size="12" lengthAdjust="spacing" textLength="134.0977" x="606.7754" y="326.6387">AuthController::login()</text><rect fill="#E3F2FD" height="33.9688" rx="12.5" ry="12.5" style="stroke:#333333;stroke-width:0.5;" width="182.7559" x="398.0195" y="305.5"/><text fill="#000000" font-family="sans-serif" font-size="12" lengthAdjust="spacing" textLength="162.7559" x="408.0195" y="326.6387">Traitement des identifiants</text><path d="M616.0947,364.4688 L616.0947,372.4531 L596.0947,376.4531 L616.0947,380.4531 L616.0947,388.4375 A0,0 0 0 0 616.0947,388.4375 L828.6318,388.4375 A0,0 0 0 0 828.6318,388.4375 L828.6318,374.4688 L818.6318,364.4688 L616.0947,364.4688 A0,0 0 0 0 616.0947,364.4688" fill="#FEFFDD" style="stroke:#181818;stroke-width:0.5;"/><path d="M818.6318,364.4688 L818.6318,374.4688 L828.6318,374.4688 L818.6318,364.4688" fill="#FEFFDD" style="stroke:#181818;stroke-width:0.5;"/><text fill="#000000" font-family="sans-serif" font-size="12" lengthAdjust="spacing" textLength="191.5371" x="622.0947" y="380.6074">UtilisateurModel::authenticate()</text><rect fill="#E3F2FD" height="33.9688" rx="12.5" ry="12.5" style="stroke:#333333;stroke-width:0.5;" width="213.3945" x="382.7002" y="359.4688"/><text fill="#000000" font-family="sans-serif" font-size="12" lengthAdjust="spacing" textLength="193.3945" x="392.7002" y="380.6074">V&#233;rification en base de donn&#233;es</text><polygon fill="#BBDEFB" points="427.3818,413.4375,551.4131,413.4375,563.4131,425.4375,551.4131,437.4375,427.3818,437.4375,415.3818,425.4375,427.3818,413.4375" style="stroke:#333333;stroke-width:0.5;"/><text fill="#000000" font-family="sans-serif" font-size="12" lengthAdjust="spacing" textLength="124.0313" x="427.3818" y="429.5918">Identifiants valides ?</text><text fill="#000000" font-family="sans-serif" font-size="12" lengthAdjust="spacing" textLength="18.2813" x="397.1006" y="422.6074">oui</text><text fill="#000000" font-family="sans-serif" font-size="12" lengthAdjust="spacing" textLength="22.5527" x="563.4131" y="422.6074">non</text><path d="M351.8618,452.4375 L351.8618,460.4219 L331.8618,464.4219 L351.8618,468.4219 L351.8618,476.4063 A0,0 0 0 0 351.8618,476.4063 L610.5884,476.4063 A0,0 0 0 0 610.5884,476.4063 L610.5884,462.4375 L600.5884,452.4375 L351.8618,452.4375 A0,0 0 0 0 351.8618,452.4375" fill="#FEFFDD" style="stroke:#181818;stroke-width:0.5;"/><path d="M600.5884,452.4375 L600.5884,462.4375 L610.5884,462.4375 L600.5884,452.4375" fill="#FEFFDD" style="stroke:#181818;stroke-width:0.5;"/><text fill="#000000" font-family="sans-serif" font-size="12" lengthAdjust="spacing" textLength="237.7266" x="357.8618" y="468.5762">$_SESSION['user_id'], $_SESSION['role']</text><rect fill="#E3F2FD" height="33.9688" rx="12.5" ry="12.5" style="stroke:#333333;stroke-width:0.5;" width="216.9453" x="114.9165" y="447.4375"/><text fill="#000000" font-family="sans-serif" font-size="12" lengthAdjust="spacing" textLength="196.9453" x="124.9165" y="468.5762">Cr&#233;ation de la session utilisateur</text><path d="M359.3354,506.4063 L359.3354,514.3906 L339.3354,518.3906 L359.3354,522.3906 L359.3354,530.375 A0,0 0 0 0 359.3354,530.375 L555.4312,530.375 A0,0 0 0 0 555.4312,530.375 L555.4312,516.4063 L545.4312,506.4063 L359.3354,506.4063 A0,0 0 0 0 359.3354,506.4063" fill="#FEFFDD" style="stroke:#181818;stroke-width:0.5;"/><path d="M545.4312,506.4063 L545.4312,516.4063 L555.4312,516.4063 L545.4312,506.4063" fill="#FEFFDD" style="stroke:#181818;stroke-width:0.5;"/><text fill="#000000" font-family="sans-serif" font-size="12" lengthAdjust="spacing" textLength="175.0957" x="365.3354" y="522.5449">DashboardController::index()</text><rect fill="#E3F2FD" height="33.9688" rx="12.5" ry="12.5" style="stroke:#333333;stroke-width:0.5;" width="231.8926" x="107.4429" y="501.4063"/><text fill="#000000" font-family="sans-serif" font-size="12" lengthAdjust="spacing" textLength="211.8926" x="117.4429" y="522.5449">Redirection vers le tableau de bord</text><polygon fill="#BBDEFB" points="165.9438,555.375,280.8345,555.375,292.8345,567.375,280.8345,579.375,165.9438,579.375,153.9438,567.375,165.9438,555.375" style="stroke:#333333;stroke-width:0.5;"/><text fill="#000000" font-family="sans-serif" font-size="12" lengthAdjust="spacing" textLength="114.8906" x="165.9438" y="571.5293">Type d'utilisateur ?</text><text fill="#000000" font-family="sans-serif" font-size="12" lengthAdjust="spacing" textLength="53.9648" x="99.979" y="564.5449">Candidat</text><text fill="#000000" font-family="sans-serif" font-size="12" lengthAdjust="spacing" textLength="61.7285" x="292.8345" y="564.5449">Entreprise</text><rect fill="#E3F2FD" height="33.9688" rx="12.5" ry="12.5" style="stroke:#333333;stroke-width:0.5;" width="200.0527" x="11" y="589.375"/><text fill="#000000" font-family="sans-serif" font-size="12" lengthAdjust="spacing" textLength="180.0527" x="21" y="610.5137">Affichage dashboard candidat</text><rect fill="#E3F2FD" height="33.9688" rx="12.5" ry="12.5" style="stroke:#333333;stroke-width:0.5;" width="209.3984" x="231.0527" y="589.375"/><text fill="#000000" font-family="sans-serif" font-size="12" lengthAdjust="spacing" textLength="189.3984" x="241.0527" y="610.5137">Affichage dashboard entreprise</text><polygon fill="#BBDEFB" points="223.3892,629.3438,235.3892,641.3438,223.3892,653.3438,211.3892,641.3438,223.3892,629.3438" style="stroke:#333333;stroke-width:0.5;"/><rect fill="#E3F2FD" height="33.9688" rx="12.5" ry="12.5" style="stroke:#333333;stroke-width:0.5;" width="199.4434" x="655.6841" y="447.4375"/><text fill="#000000" font-family="sans-serif" font-size="12" lengthAdjust="spacing" textLength="179.4434" x="665.6841" y="468.5762">Pr&#233;paration message d'erreur</text><path d="M900.2231,506.4063 L900.2231,514.3906 L880.2231,518.3906 L900.2231,522.3906 L900.2231,530.375 A0,0 0 0 0 900.2231,530.375 L1122.3696,530.375 A0,0 0 0 0 1122.3696,530.375 L1122.3696,516.4063 L1112.3696,506.4063 L900.2231,506.4063 A0,0 0 0 0 900.2231,506.4063" fill="#FEFFDD" style="stroke:#181818;stroke-width:0.5;"/><path d="M1112.3696,506.4063 L1112.3696,516.4063 L1122.3696,516.4063 L1112.3696,506.4063" fill="#FEFFDD" style="stroke:#181818;stroke-width:0.5;"/><text fill="#000000" font-family="sans-serif" font-size="12" lengthAdjust="spacing" textLength="201.1465" x="906.2231" y="522.5449">login.twig avec variables d'erreur</text><rect fill="#E3F2FD" height="33.9688" rx="12.5" ry="12.5" style="stroke:#333333;stroke-width:0.5;" width="249.6348" x="630.5884" y="501.4063"/><text fill="#000000" font-family="sans-serif" font-size="12" lengthAdjust="spacing" textLength="229.6348" x="640.5884" y="522.5449">R&#233;affichage du formulaire avec erreur</text><polygon fill="#BBDEFB" points="489.3975,659.3438,501.3975,671.3438,489.3975,683.3438,477.3975,671.3438,489.3975,659.3438" style="stroke:#333333;stroke-width:0.5;"/><ellipse cx="489.3975" cy="714.3438" fill="none" rx="11" ry="11" style="stroke:#222222;stroke-width:1;"/><ellipse cx="489.3975" cy="714.3438" fill="#222222" rx="6" ry="6" style="stroke:#222222;stroke-width:1;"/><line style="stroke:#666666;stroke-width:1;" x1="489.3975" x2="489.3975" y1="69.625" y2="89.625"/><polygon fill="#666666" points="485.3975,79.625,489.3975,89.625,493.3975,79.625,489.3975,83.625" style="stroke:#666666;stroke-width:1;"/><line style="stroke:#666666;stroke-width:1;" x1="489.3975" x2="489.3975" y1="123.5938" y2="143.5938"/><polygon fill="#666666" points="485.3975,133.5938,489.3975,143.5938,493.3975,133.5938,489.3975,137.5938" style="stroke:#666666;stroke-width:1;"/><line style="stroke:#666666;stroke-width:1;" x1="489.3975" x2="489.3975" y1="177.5625" y2="197.5625"/><polygon fill="#666666" points="485.3975,187.5625,489.3975,197.5625,493.3975,187.5625,489.3975,191.5625" style="stroke:#666666;stroke-width:1;"/><line style="stroke:#666666;stroke-width:1;" x1="489.3975" x2="489.3975" y1="231.5313" y2="251.5313"/><polygon fill="#666666" points="485.3975,241.5313,489.3975,251.5313,493.3975,241.5313,489.3975,245.5313" style="stroke:#666666;stroke-width:1;"/><line style="stroke:#666666;stroke-width:1;" x1="489.3975" x2="489.3975" y1="285.5" y2="305.5"/><polygon fill="#666666" points="485.3975,295.5,489.3975,305.5,493.3975,295.5,489.3975,299.5" style="stroke:#666666;stroke-width:1;"/><line style="stroke:#666666;stroke-width:1;" x1="489.3975" x2="489.3975" y1="339.4688" y2="359.4688"/><polygon fill="#666666" points="485.3975,349.4688,489.3975,359.4688,493.3975,349.4688,489.3975,353.4688" style="stroke:#666666;stroke-width:1;"/><line style="stroke:#666666;stroke-width:1;" x1="223.3892" x2="223.3892" y1="481.4063" y2="501.4063"/><polygon fill="#666666" points="219.3892,491.4063,223.3892,501.4063,227.3892,491.4063,223.3892,495.4063" style="stroke:#666666;stroke-width:1;"/><line style="stroke:#666666;stroke-width:1;" x1="153.9438" x2="111.0264" y1="567.375" y2="567.375"/><line style="stroke:#666666;stroke-width:1;" x1="111.0264" x2="111.0264" y1="567.375" y2="589.375"/><polygon fill="#666666" points="107.0264,579.375,111.0264,589.375,115.0264,579.375,111.0264,583.375" style="stroke:#666666;stroke-width:1;"/><line style="stroke:#666666;stroke-width:1;" x1="292.8345" x2="335.752" y1="567.375" y2="567.375"/><line style="stroke:#666666;stroke-width:1;" x1="335.752" x2="335.752" y1="567.375" y2="589.375"/><polygon fill="#666666" points="331.752,579.375,335.752,589.375,339.752,579.375,335.752,583.375" style="stroke:#666666;stroke-width:1;"/><line style="stroke:#666666;stroke-width:1;" x1="111.0264" x2="111.0264" y1="623.3438" y2="641.3438"/><line style="stroke:#666666;stroke-width:1;" x1="111.0264" x2="211.3892" y1="641.3438" y2="641.3438"/><polygon fill="#666666" points="201.3892,637.3438,211.3892,641.3438,201.3892,645.3438,205.3892,641.3438" style="stroke:#666666;stroke-width:1;"/><line style="stroke:#666666;stroke-width:1;" x1="335.752" x2="335.752" y1="623.3438" y2="641.3438"/><line style="stroke:#666666;stroke-width:1;" x1="335.752" x2="235.3892" y1="641.3438" y2="641.3438"/><polygon fill="#666666" points="245.3892,637.3438,235.3892,641.3438,245.3892,645.3438,241.3892,641.3438" style="stroke:#666666;stroke-width:1;"/><line style="stroke:#666666;stroke-width:1;" x1="223.3892" x2="223.3892" y1="535.375" y2="555.375"/><polygon fill="#666666" points="219.3892,545.375,223.3892,555.375,227.3892,545.375,223.3892,549.375" style="stroke:#666666;stroke-width:1;"/><line style="stroke:#666666;stroke-width:1;" x1="755.4058" x2="755.4058" y1="481.4063" y2="501.4063"/><polygon fill="#666666" points="751.4058,491.4063,755.4058,501.4063,759.4058,491.4063,755.4058,495.4063" style="stroke:#666666;stroke-width:1;"/><line style="stroke:#666666;stroke-width:1;" x1="415.3818" x2="223.3892" y1="425.4375" y2="425.4375"/><line style="stroke:#666666;stroke-width:1;" x1="223.3892" x2="223.3892" y1="425.4375" y2="447.4375"/><polygon fill="#666666" points="219.3892,437.4375,223.3892,447.4375,227.3892,437.4375,223.3892,441.4375" style="stroke:#666666;stroke-width:1;"/><line style="stroke:#666666;stroke-width:1;" x1="563.4131" x2="755.4058" y1="425.4375" y2="425.4375"/><line style="stroke:#666666;stroke-width:1;" x1="755.4058" x2="755.4058" y1="425.4375" y2="447.4375"/><polygon fill="#666666" points="751.4058,437.4375,755.4058,447.4375,759.4058,437.4375,755.4058,441.4375" style="stroke:#666666;stroke-width:1;"/><line style="stroke:#666666;stroke-width:1;" x1="223.3892" x2="223.3892" y1="653.3438" y2="671.3438"/><line style="stroke:#666666;stroke-width:1;" x1="223.3892" x2="477.3975" y1="671.3438" y2="671.3438"/><polygon fill="#666666" points="467.3975,667.3438,477.3975,671.3438,467.3975,675.3438,471.3975,671.3438" style="stroke:#666666;stroke-width:1;"/><line style="stroke:#666666;stroke-width:1;" x1="755.4058" x2="755.4058" y1="535.375" y2="671.3438"/><line style="stroke:#666666;stroke-width:1;" x1="755.4058" x2="501.3975" y1="671.3438" y2="671.3438"/><polygon fill="#666666" points="511.3975,667.3438,501.3975,671.3438,511.3975,675.3438,507.3975,671.3438" style="stroke:#666666;stroke-width:1;"/><line style="stroke:#666666;stroke-width:1;" x1="489.3975" x2="489.3975" y1="393.4375" y2="413.4375"/><polygon fill="#666666" points="485.3975,403.4375,489.3975,413.4375,493.3975,403.4375,489.3975,407.4375" style="stroke:#666666;stroke-width:1;"/><line style="stroke:#666666;stroke-width:1;" x1="489.3975" x2="489.3975" y1="683.3438" y2="703.3438"/><polygon fill="#666666" points="485.3975,693.3438,489.3975,703.3438,493.3975,693.3438,489.3975,697.3438" style="stroke:#666666;stroke-width:1;"/><!--SRC=[ZLDDZjCm5Dxd54y2AMs5a9YHMAGBr5zf5lneMjYWqUWrVccVnh4hs-bqE007u0Gif-VeJJW9psbfGWSGMSNnzxw_sFwEpHeTbZ380syuF0mnlriwMnarijewU3Qvd5vCnub_YhHEaJkYBkkdZNBEtXytNzVF7oZ6ZAKrwedcS3YUJ8UjWJa7JLDhmeo_4BngSusfm4g7PlCYIKA4GwytrTKML3gemefCu89p36nDhvSaFg0BIVOni6QFWIe7cEVxHqMm_muQOOrB0bdbrXZQobG_IR918HohUgU2mhgoqiZk76Ti872yN8KCelP8l3chDRaiqtR9fjE57r-_GVt-CjppCldTYKVs7C2J1rO7vsY2xv-XR5LI04dQE8acvmuvK2bpukkSuJ-y2SMd_SwTwW8oi41VfrIISh-ZCwAMgxTMaSuoF5Ok31GPkO3ELSi8R51pTFUc2n497LjnDm78Hcw_EyYAdFm7AS77LTLez0NNbdz-EvlCPbVlttrEAq_kbbLwywBzLG9IUYDJKU2Qb1ILrn8RSZuM672X2QiekP1ZVIumHhzQM7IgtHORHTkO3I2ccp-ifPwqPRF9DaAZM6680SL1wnJz8eRy28dIfANipaIaQEtOqp_6w0Ig1uMZI0xZnfgwpm_IPxmfTTvIogm9KdBks6HsBON_vLpZXd9eeErEciDxG6tGSMpHdyYJWnsvQdRz4m00]--></g></svg>