<svg xmlns="http://www.w3.org/2000/svg" xmlns:xlink="http://www.w3.org/1999/xlink" contentStyleType="text/css" data-diagram-type="SEQUENCE" height="962px" preserveAspectRatio="none" style="width:1286px;height:962px;background:#FFFFFF;" version="1.1" viewBox="0 0 1286 962" width="1286px" zoomAndPan="magnify"><title>Diagramme de S&#233;quence - Consultation des Offres</title><defs/><g><text fill="#000000" font-family="sans-serif" font-size="14" font-weight="bold" lengthAdjust="spacing" textLength="399.1436" x="445.0002" y="27.9951">Diagramme de S&#233;quence - Consultation des Offres</text><g><title>&lt;u&gt;Utilisateur</title><rect fill="#000000" fill-opacity="0.00000" height="763.5859" width="8" x="40.0049" y="118.5938"/><line style="stroke:#555555;stroke-width:0.5;stroke-dasharray:5.0,5.0;" x1="44" x2="44" y1="118.5938" y2="882.1797"/></g><g><title>&lt;u&gt;Navigateur</title><rect fill="#000000" fill-opacity="0.00000" height="763.5859" width="8" x="234.8838" y="118.5938"/><line style="stroke:#555555;stroke-width:0.5;stroke-dasharray:5.0,5.0;" x1="238.1719" x2="238.1719" y1="118.5938" y2="882.1797"/></g><g><title>&lt;u&gt;OffreController</title><rect fill="#000000" fill-opacity="0.00000" height="763.5859" width="8" x="418.8511" y="118.5938"/><line style="stroke:#555555;stroke-width:0.5;stroke-dasharray:5.0,5.0;" x1="422.6416" x2="422.6416" y1="118.5938" y2="882.1797"/></g><g><title>&lt;u&gt;OffreModel</title><rect fill="#000000" fill-opacity="0.00000" height="763.5859" width="8" x="690.1685" y="118.5938"/><line style="stroke:#555555;stroke-width:0.5;stroke-dasharray:5.0,5.0;" x1="693.5283" x2="693.5283" y1="118.5938" y2="882.1797"/></g><g><title>&lt;u&gt;CompetenceModel</title><rect fill="#000000" fill-opacity="0.00000" height="763.5859" width="8" x="810.208" y="118.5938"/><line style="stroke:#555555;stroke-width:0.5;stroke-dasharray:5.0,5.0;" x1="813.8086" x2="813.8086" y1="118.5938" y2="882.1797"/></g><g><title>&lt;u&gt;Base de Donn&#233;es</title><rect fill="#000000" fill-opacity="0.00000" height="763.5859" width="8" x="1217.0923" y="118.5938"/><line style="stroke:#555555;stroke-width:0.5;stroke-dasharray:5.0,5.0;" x1="1221.0405" x2="1221.0405" y1="118.5938" y2="882.1797"/></g><g class="participant participant-head" data-participant="User"><text fill="#000000" font-family="sans-serif" font-size="14" lengthAdjust="spacing" text-decoration="underline" textLength="72.0098" x="5" y="115.292">Utilisateur</text><ellipse cx="44.0049" cy="50.7969" fill="#E2E2F0" rx="8" ry="8" style="stroke:#181818;stroke-width:0.5;"/><path d="M44.0049,58.7969 L44.0049,85.7969 M31.0049,66.7969 L57.0049,66.7969 M44.0049,85.7969 L31.0049,100.7969 M44.0049,85.7969 L57.0049,100.7969" fill="none" style="stroke:#181818;stroke-width:0.5;"/></g><g class="participant participant-tail" data-participant="User"><text fill="#000000" font-family="sans-serif" font-size="14" lengthAdjust="spacing" text-decoration="underline" textLength="72.0098" x="5" y="894.1748">Utilisateur</text><ellipse cx="44.0049" cy="905.9766" fill="#E2E2F0" rx="8" ry="8" style="stroke:#181818;stroke-width:0.5;"/><path d="M44.0049,913.9766 L44.0049,940.9766 M31.0049,921.9766 L57.0049,921.9766 M44.0049,940.9766 L31.0049,955.9766 M44.0049,940.9766 L57.0049,955.9766" fill="none" style="stroke:#181818;stroke-width:0.5;"/></g><g class="participant participant-head" data-participant="Browser"><rect fill="#E2E2F0" height="30.2969" rx="2.5" ry="2.5" style="stroke:#181818;stroke-width:0.5;" width="91.4238" x="193.1719" y="87.2969"/><text fill="#000000" font-family="sans-serif" font-size="14" lengthAdjust="spacing" text-decoration="underline" textLength="77.4238" x="200.1719" y="107.292">Navigateur</text></g><g class="participant participant-tail" data-participant="Browser"><rect fill="#E2E2F0" height="30.2969" rx="2.5" ry="2.5" style="stroke:#181818;stroke-width:0.5;" width="91.4238" x="193.1719" y="881.1797"/><text fill="#000000" font-family="sans-serif" font-size="14" lengthAdjust="spacing" text-decoration="underline" textLength="77.4238" x="200.1719" y="901.1748">Navigateur</text></g><g class="participant participant-head" data-participant="OffreCtrl"><text fill="#000000" font-family="sans-serif" font-size="14" lengthAdjust="spacing" text-decoration="underline" textLength="104.4189" x="367.6416" y="115.292">OffreController</text><path d="M402.3511,74.2969 L402.3511,98.2969 M402.3511,86.2969 L419.3511,86.2969" fill="none" style="stroke:#181818;stroke-width:0.5;"/><ellipse cx="431.3511" cy="86.2969" fill="#E2E2F0" rx="12" ry="12" style="stroke:#181818;stroke-width:0.5;"/></g><g class="participant participant-tail" data-participant="OffreCtrl"><text fill="#000000" font-family="sans-serif" font-size="14" lengthAdjust="spacing" text-decoration="underline" textLength="104.4189" x="367.6416" y="894.1748">OffreController</text><path d="M402.3511,901.4766 L402.3511,925.4766 M402.3511,913.4766 L419.3511,913.4766" fill="none" style="stroke:#181818;stroke-width:0.5;"/><ellipse cx="431.3511" cy="913.4766" fill="#E2E2F0" rx="12" ry="12" style="stroke:#181818;stroke-width:0.5;"/></g><g class="participant participant-head" data-participant="OffreModel"><text fill="#000000" font-family="sans-serif" font-size="14" lengthAdjust="spacing" text-decoration="underline" textLength="77.2803" x="652.5283" y="115.292">OffreModel</text><ellipse cx="694.1685" cy="86.2969" fill="#E2E2F0" rx="12" ry="12" style="stroke:#181818;stroke-width:0.5;"/><line style="stroke:#181818;stroke-width:0.5;" x1="682.1685" x2="706.1685" y1="100.2969" y2="100.2969"/></g><g class="participant participant-tail" data-participant="OffreModel"><text fill="#000000" font-family="sans-serif" font-size="14" lengthAdjust="spacing" text-decoration="underline" textLength="77.2803" x="652.5283" y="894.1748">OffreModel</text><ellipse cx="694.1685" cy="913.4766" fill="#E2E2F0" rx="12" ry="12" style="stroke:#181818;stroke-width:0.5;"/><line style="stroke:#181818;stroke-width:0.5;" x1="682.1685" x2="706.1685" y1="927.4766" y2="927.4766"/></g><g class="participant participant-head" data-participant="CompModel"><text fill="#000000" font-family="sans-serif" font-size="14" lengthAdjust="spacing" text-decoration="underline" textLength="130.7988" x="745.8086" y="115.292">CompetenceModel</text><ellipse cx="814.208" cy="86.2969" fill="#E2E2F0" rx="12" ry="12" style="stroke:#181818;stroke-width:0.5;"/><line style="stroke:#181818;stroke-width:0.5;" x1="802.208" x2="826.208" y1="100.2969" y2="100.2969"/></g><g class="participant participant-tail" data-participant="CompModel"><text fill="#000000" font-family="sans-serif" font-size="14" lengthAdjust="spacing" text-decoration="underline" textLength="130.7988" x="745.8086" y="894.1748">CompetenceModel</text><ellipse cx="814.208" cy="913.4766" fill="#E2E2F0" rx="12" ry="12" style="stroke:#181818;stroke-width:0.5;"/><line style="stroke:#181818;stroke-width:0.5;" x1="802.208" x2="826.208" y1="927.4766" y2="927.4766"/></g><g class="participant participant-head" data-participant="DB"><text fill="#000000" font-family="sans-serif" font-size="14" lengthAdjust="spacing" text-decoration="underline" textLength="122.1035" x="1157.0405" y="115.292">Base de Donn&#233;es</text><path d="M1203.0923,66.2969 C1203.0923,56.2969 1221.0923,56.2969 1221.0923,56.2969 C1221.0923,56.2969 1239.0923,56.2969 1239.0923,66.2969 L1239.0923,92.2969 C1239.0923,102.2969 1221.0923,102.2969 1221.0923,102.2969 C1221.0923,102.2969 1203.0923,102.2969 1203.0923,92.2969 L1203.0923,66.2969" fill="#E2E2F0" style="stroke:#181818;stroke-width:1.5;"/><path d="M1203.0923,66.2969 C1203.0923,76.2969 1221.0923,76.2969 1221.0923,76.2969 C1221.0923,76.2969 1239.0923,76.2969 1239.0923,66.2969" fill="none" style="stroke:#181818;stroke-width:1.5;"/></g><g class="participant participant-tail" data-participant="DB"><text fill="#000000" font-family="sans-serif" font-size="14" lengthAdjust="spacing" text-decoration="underline" textLength="122.1035" x="1157.0405" y="894.1748">Base de Donn&#233;es</text><path d="M1203.0923,907.4766 C1203.0923,897.4766 1221.0923,897.4766 1221.0923,897.4766 C1221.0923,897.4766 1239.0923,897.4766 1239.0923,907.4766 L1239.0923,933.4766 C1239.0923,943.4766 1221.0923,943.4766 1221.0923,943.4766 C1221.0923,943.4766 1203.0923,943.4766 1203.0923,933.4766 L1203.0923,907.4766" fill="#E2E2F0" style="stroke:#181818;stroke-width:1.5;"/><path d="M1203.0923,907.4766 C1203.0923,917.4766 1221.0923,917.4766 1221.0923,917.4766 C1221.0923,917.4766 1239.0923,917.4766 1239.0923,907.4766" fill="none" style="stroke:#181818;stroke-width:1.5;"/></g><g class="message" data-participant-1="User" data-participant-2="Browser"><polygon fill="#181818" points="226.8838,145.7266,236.8838,149.7266,226.8838,153.7266,230.8838,149.7266" style="stroke:#181818;stroke-width:1;"/><line style="stroke:#181818;stroke-width:2;" x1="44.0049" x2="232.8838" y1="149.7266" y2="149.7266"/><text fill="#000000" font-family="sans-serif" font-size="13" lengthAdjust="spacing" textLength="170.8789" x="51.0049" y="144.6606">Acc&#232;s &#224; la page des offres</text></g><g class="message" data-participant-1="Browser" data-participant-2="OffreCtrl"><polygon fill="#181818" points="410.8511,174.8594,420.8511,178.8594,410.8511,182.8594,414.8511,178.8594" style="stroke:#181818;stroke-width:1;"/><line style="stroke:#181818;stroke-width:2;" x1="238.8838" x2="416.8511" y1="178.8594" y2="178.8594"/><text fill="#000000" font-family="sans-serif" font-size="13" lengthAdjust="spacing" textLength="71.9634" x="245.8838" y="173.7935">GET /offres</text></g><g class="message" data-participant-1="OffreCtrl" data-participant-2="OffreCtrl"><line style="stroke:#181818;stroke-width:2;" x1="422.8511" x2="464.8511" y1="223.125" y2="223.125"/><line style="stroke:#181818;stroke-width:2;" x1="464.8511" x2="464.8511" y1="223.125" y2="236.125"/><line style="stroke:#181818;stroke-width:2;" x1="423.8511" x2="464.8511" y1="236.125" y2="236.125"/><polygon fill="#181818" points="433.8511,232.125,423.8511,236.125,433.8511,240.125,429.8511,236.125" style="stroke:#181818;stroke-width:1;"/><text fill="#000000" font-family="sans-serif" font-size="13" lengthAdjust="spacing" textLength="145.9009" x="429.8511" y="202.9263">Extraction param&#232;tres</text><text fill="#000000" font-family="sans-serif" font-size="13" lengthAdjust="spacing" textLength="87.8896" x="429.8511" y="218.0591">(page, filtres)</text></g><g class="message" data-participant-1="OffreCtrl" data-participant-2="OffreModel"><polygon fill="#181818" points="682.1685,261.2578,692.1685,265.2578,682.1685,269.2578,686.1685,265.2578" style="stroke:#181818;stroke-width:1;"/><line style="stroke:#181818;stroke-width:2;" x1="422.8511" x2="688.1685" y1="265.2578" y2="265.2578"/><text fill="#000000" font-family="sans-serif" font-size="13" lengthAdjust="spacing" textLength="247.3174" x="429.8511" y="260.1919">getOffresWithPagination(page, filtres)</text></g><g class="message" data-participant-1="OffreModel" data-participant-2="DB"><polygon fill="#181818" points="1209.0923,305.5234,1219.0923,309.5234,1209.0923,313.5234,1213.0923,309.5234" style="stroke:#181818;stroke-width:1;"/><line style="stroke:#181818;stroke-width:2;" x1="694.1685" x2="1215.0923" y1="309.5234" y2="309.5234"/><text fill="#000000" font-family="sans-serif" font-size="13" lengthAdjust="spacing" textLength="132.3867" x="701.1685" y="289.3247">SELECT FROM offres</text><text fill="#000000" font-family="sans-serif" font-size="13" lengthAdjust="spacing" textLength="181.6318" x="701.1685" y="304.4575">WITH pagination AND filters</text></g><g class="message" data-participant-1="DB" data-participant-2="OffreModel"><polygon fill="#181818" points="705.1685,334.6563,695.1685,338.6563,705.1685,342.6563,701.1685,338.6563" style="stroke:#181818;stroke-width:1;"/><line style="stroke:#181818;stroke-width:2;stroke-dasharray:2.0,2.0;" x1="699.1685" x2="1220.0923" y1="338.6563" y2="338.6563"/><text fill="#000000" font-family="sans-serif" font-size="13" lengthAdjust="spacing" textLength="155.6826" x="711.1685" y="333.5903">Liste des offres pagin&#233;e</text></g><g class="message" data-participant-1="OffreModel" data-participant-2="DB"><polygon fill="#181818" points="1209.0923,378.9219,1219.0923,382.9219,1209.0923,386.9219,1213.0923,382.9219" style="stroke:#181818;stroke-width:1;"/><line style="stroke:#181818;stroke-width:2;" x1="694.1685" x2="1215.0923" y1="382.9219" y2="382.9219"/><text fill="#000000" font-family="sans-serif" font-size="13" lengthAdjust="spacing" textLength="199.6528" x="701.1685" y="362.7231">SELECT COUNT(*) FROM offres</text><text fill="#000000" font-family="sans-serif" font-size="13" lengthAdjust="spacing" textLength="75.5498" x="701.1685" y="377.856">WITH filters</text></g><g class="message" data-participant-1="DB" data-participant-2="OffreModel"><polygon fill="#181818" points="705.1685,408.0547,695.1685,412.0547,705.1685,416.0547,701.1685,412.0547" style="stroke:#181818;stroke-width:1;"/><line style="stroke:#181818;stroke-width:2;stroke-dasharray:2.0,2.0;" x1="699.1685" x2="1220.0923" y1="412.0547" y2="412.0547"/><text fill="#000000" font-family="sans-serif" font-size="13" lengthAdjust="spacing" textLength="138.9756" x="711.1685" y="406.9888">Nombre total d'offres</text></g><g class="message" data-participant-1="OffreModel" data-participant-2="OffreCtrl"><polygon fill="#181818" points="433.8511,437.1875,423.8511,441.1875,433.8511,445.1875,429.8511,441.1875" style="stroke:#181818;stroke-width:1;"/><line style="stroke:#181818;stroke-width:2;stroke-dasharray:2.0,2.0;" x1="427.8511" x2="693.1685" y1="441.1875" y2="441.1875"/><text fill="#000000" font-family="sans-serif" font-size="13" lengthAdjust="spacing" textLength="221.1587" x="439.8511" y="436.1216">Offres + m&#233;tadonn&#233;es pagination</text></g><g class="message" data-participant-1="OffreCtrl" data-participant-2="Browser"><polygon fill="#181818" points="249.8838,481.4531,239.8838,485.4531,249.8838,489.4531,245.8838,485.4531" style="stroke:#181818;stroke-width:1;"/><line style="stroke:#181818;stroke-width:2;" x1="243.8838" x2="421.8511" y1="485.4531" y2="485.4531"/><text fill="#000000" font-family="sans-serif" font-size="13" lengthAdjust="spacing" textLength="114.8418" x="255.8838" y="465.2544">Rendu offres.twig</text><text fill="#000000" font-family="sans-serif" font-size="13" lengthAdjust="spacing" textLength="159.9673" x="255.8838" y="480.3872">(liste, pagination, filtres)</text></g><g class="message" data-participant-1="Browser" data-participant-2="User"><polygon fill="#181818" points="55.0049,510.5859,45.0049,514.5859,55.0049,518.5859,51.0049,514.5859" style="stroke:#181818;stroke-width:1;"/><line style="stroke:#181818;stroke-width:2;" x1="49.0049" x2="237.8838" y1="514.5859" y2="514.5859"/><text fill="#000000" font-family="sans-serif" font-size="13" lengthAdjust="spacing" textLength="160.9956" x="61.0049" y="509.52">Affichage liste des offres</text></g><g class="message" data-participant-1="User" data-participant-2="Browser"><polygon fill="#181818" points="226.8838,539.7188,236.8838,543.7188,226.8838,547.7188,230.8838,543.7188" style="stroke:#181818;stroke-width:1;"/><line style="stroke:#181818;stroke-width:2;" x1="44.0049" x2="232.8838" y1="543.7188" y2="543.7188"/><text fill="#000000" font-family="sans-serif" font-size="13" lengthAdjust="spacing" textLength="111.1284" x="51.0049" y="538.6528">Clic sur une offre</text></g><g class="message" data-participant-1="Browser" data-participant-2="OffreCtrl"><polygon fill="#181818" points="410.8511,568.8516,420.8511,572.8516,410.8511,576.8516,414.8511,572.8516" style="stroke:#181818;stroke-width:1;"/><line style="stroke:#181818;stroke-width:2;" x1="238.8838" x2="416.8511" y1="572.8516" y2="572.8516"/><text fill="#000000" font-family="sans-serif" font-size="13" lengthAdjust="spacing" textLength="104.749" x="245.8838" y="567.7856">GET /offres/{id}</text></g><g class="message" data-participant-1="OffreCtrl" data-participant-2="OffreModel"><polygon fill="#181818" points="682.1685,597.9844,692.1685,601.9844,682.1685,605.9844,686.1685,601.9844" style="stroke:#181818;stroke-width:1;"/><line style="stroke:#181818;stroke-width:2;" x1="422.8511" x2="688.1685" y1="601.9844" y2="601.9844"/><text fill="#000000" font-family="sans-serif" font-size="13" lengthAdjust="spacing" textLength="104.7808" x="429.8511" y="596.9185">getOffreById(id)</text></g><g class="message" data-participant-1="OffreModel" data-participant-2="DB"><polygon fill="#181818" points="1209.0923,627.1172,1219.0923,631.1172,1209.0923,635.1172,1213.0923,631.1172" style="stroke:#181818;stroke-width:1;"/><line style="stroke:#181818;stroke-width:2;" x1="694.1685" x2="1215.0923" y1="631.1172" y2="631.1172"/><text fill="#000000" font-family="sans-serif" font-size="13" lengthAdjust="spacing" textLength="237.2944" x="701.1685" y="626.0513">SELECT * FROM offres WHERE id = ?</text></g><g class="message" data-participant-1="DB" data-participant-2="OffreModel"><polygon fill="#181818" points="705.1685,656.25,695.1685,660.25,705.1685,664.25,701.1685,660.25" style="stroke:#181818;stroke-width:1;"/><line style="stroke:#181818;stroke-width:2;stroke-dasharray:2.0,2.0;" x1="699.1685" x2="1220.0923" y1="660.25" y2="660.25"/><text fill="#000000" font-family="sans-serif" font-size="13" lengthAdjust="spacing" textLength="91.7935" x="711.1685" y="655.1841">Donn&#233;es offre</text></g><g class="message" data-participant-1="OffreCtrl" data-participant-2="CompModel"><polygon fill="#181818" points="802.208,685.3828,812.208,689.3828,802.208,693.3828,806.208,689.3828" style="stroke:#181818;stroke-width:1;"/><line style="stroke:#181818;stroke-width:2;" x1="422.8511" x2="808.208" y1="689.3828" y2="689.3828"/><text fill="#000000" font-family="sans-serif" font-size="13" lengthAdjust="spacing" textLength="186.0562" x="429.8511" y="684.3169">getCompetencesForOffre(id)</text></g><g class="message" data-participant-1="CompModel" data-participant-2="DB"><polygon fill="#181818" points="1209.0923,714.5156,1219.0923,718.5156,1209.0923,722.5156,1213.0923,718.5156" style="stroke:#181818;stroke-width:1;"/><line style="stroke:#181818;stroke-width:2;" x1="814.208" x2="1215.0923" y1="718.5156" y2="718.5156"/><text fill="#000000" font-family="sans-serif" font-size="13" lengthAdjust="spacing" textLength="382.8843" x="821.208" y="713.4497">SELECT * FROM competences JOIN offre_competence ON...</text></g><g class="message" data-participant-1="DB" data-participant-2="CompModel"><polygon fill="#181818" points="825.208,743.6484,815.208,747.6484,825.208,751.6484,821.208,747.6484" style="stroke:#181818;stroke-width:1;"/><line style="stroke:#181818;stroke-width:2;stroke-dasharray:2.0,2.0;" x1="819.208" x2="1220.0923" y1="747.6484" y2="747.6484"/><text fill="#000000" font-family="sans-serif" font-size="13" lengthAdjust="spacing" textLength="151.3472" x="831.208" y="742.5825">Comp&#233;tences de l'offre</text></g><g class="message" data-participant-1="CompModel" data-participant-2="OffreCtrl"><polygon fill="#181818" points="433.8511,772.7813,423.8511,776.7813,433.8511,780.7813,429.8511,776.7813" style="stroke:#181818;stroke-width:1;"/><line style="stroke:#181818;stroke-width:2;stroke-dasharray:2.0,2.0;" x1="427.8511" x2="813.208" y1="776.7813" y2="776.7813"/><text fill="#000000" font-family="sans-serif" font-size="13" lengthAdjust="spacing" textLength="149.2778" x="439.8511" y="771.7153">Liste des comp&#233;tences</text></g><g class="message" data-participant-1="OffreModel" data-participant-2="OffreCtrl"><polygon fill="#181818" points="433.8511,801.9141,423.8511,805.9141,433.8511,809.9141,429.8511,805.9141" style="stroke:#181818;stroke-width:1;"/><line style="stroke:#181818;stroke-width:2;stroke-dasharray:2.0,2.0;" x1="427.8511" x2="693.1685" y1="805.9141" y2="805.9141"/><text fill="#000000" font-family="sans-serif" font-size="13" lengthAdjust="spacing" textLength="107.2183" x="439.8511" y="800.8481">D&#233;tails de l'offre</text></g><g class="message" data-participant-1="OffreCtrl" data-participant-2="Browser"><polygon fill="#181818" points="249.8838,831.0469,239.8838,835.0469,249.8838,839.0469,245.8838,835.0469" style="stroke:#181818;stroke-width:1;"/><line style="stroke:#181818;stroke-width:2;" x1="243.8838" x2="421.8511" y1="835.0469" y2="835.0469"/><text fill="#000000" font-family="sans-serif" font-size="13" lengthAdjust="spacing" textLength="157.8789" x="255.8838" y="829.981">Rendu offre_details.twig</text></g><g class="message" data-participant-1="Browser" data-participant-2="User"><polygon fill="#181818" points="55.0049,860.1797,45.0049,864.1797,55.0049,868.1797,51.0049,864.1797" style="stroke:#181818;stroke-width:1;"/><line style="stroke:#181818;stroke-width:2;" x1="49.0049" x2="237.8838" y1="864.1797" y2="864.1797"/><text fill="#000000" font-family="sans-serif" font-size="13" lengthAdjust="spacing" textLength="164.0806" x="61.0049" y="859.1138">Affichage d&#233;tail de l'offre</text></g><!--SRC=[ZLFRRXen47ttLupeGqCQY5GfBvNQAi2cIKKW8g2yH8hCUjXOCJQrJTEewh_qCNm7FrPV5jQi40qIYFMUCtFcpB5vud91DPs3mHzBb3cUQwsUnuyyVv9e37maPWlHQYbPhhH43MV9-OPwGxNbELzGQS4XKGikSG-kpsVkAx6Zj0DrbL0Qtfs5po4qpP-A8A5aPE53YELM83Hwd1QEDqTW2BVhLMH32xfAcgMmr78btJi3mzbCesaGGdFh2ZKcbWjkgCMbRW0rC36eoI8PfZ6WFtbH0JhE8e-PUZLKlq0Zb7IDh5P2O4J5Cwi5GUaqRb3NYg6e0E5nY-Yg-GAj5rx1_5b4CMhfb1etRCV_kZbxIihroWtZWRqE8LuxjBvi9C8dEC_pzQk1zLyG51QqmE212XwG3Smnjd8TvrisXjCIGgeNDLJsosfdeRSrh6pzQXtXNXxvBYSmuy8_D_SK2EEu2WNQk8mxRXzlQC5bs5Az04b8haIluwYtMJ_hZk5YDBmkXxcNTrVZIpzYMGRE1xrG1BKXZjIgj-zpOrCx8jVvUQXZTpWPZ8-EctjQ7-erKFEfHh3AKW7i_OwvPP-QlT4P-03pzSfILcuwcQ-scchb8vHiMKfhssTUk9q8F-j9maxyJL8mAKCpc_7yqOT5r3pQ5x6ku3cOfNQt7YFi3S4w_StP7_A6S7HUhjWHPyq3EpbEbm5tbzae0yxWCtpTkulDhIcrxchONhSeeRgHvaBfW0nYAjX-BNd5W-_3gq7izL0Tmt3GRhSt-jAk_hzRUUIwIovYMjAMDLkh8ES9zs2wUZvKNEmq-7-S7XW6LaZLmTomM3yf_my0]--></g></svg>