<svg xmlns="http://www.w3.org/2000/svg" xmlns:xlink="http://www.w3.org/1999/xlink" contentStyleType="text/css" data-diagram-type="SEQUENCE" height="1627px" preserveAspectRatio="none" style="width:1610px;height:1627px;background:#FFFFFF;" version="1.1" viewBox="0 0 1610 1627" width="1610px" zoomAndPan="magnify"><title>Diagramme de S&#233;quence - Consultation et &#201;valuation d'une Entreprise</title><defs/><g><text fill="#000000" font-family="sans-serif" font-size="14" font-weight="bold" lengthAdjust="spacing" textLength="557.751" x="527.9099" y="27.9951">Diagramme de S&#233;quence - Consultation et &#201;valuation d'une Entreprise</text><rect fill="none" height="587.5938" rx="2.5" ry="2.5" style="stroke:#000000;stroke-width:1.5;" width="1594.5708" x="10" y="941.8438"/><rect fill="none" height="178.7344" rx="2.5" ry="2.5" style="stroke:#000000;stroke-width:1.5;" width="998.894" x="595.6768" y="1168.9063"/><g><title>&lt;u&gt;Utilisateur</title><rect fill="#000000" fill-opacity="0.00000" height="1427.8438" width="8" x="55.0049" y="118.5938"/><line style="stroke:#555555;stroke-width:0.5;stroke-dasharray:5.0,5.0;" x1="59" x2="59" y1="118.5938" y2="1546.4375"/></g><g><title>&lt;u&gt;Navigateur</title><rect fill="#000000" fill-opacity="0.00000" height="1427.8438" width="8" x="370.4829" y="118.5938"/><line style="stroke:#555555;stroke-width:0.5;stroke-dasharray:5.0,5.0;" x1="373.771" x2="373.771" y1="118.5938" y2="1546.4375"/></g><g><title>&lt;u&gt;EntrepriseController</title><rect fill="#000000" fill-opacity="0.00000" height="1427.8438" width="8" x="675.2715" y="118.5938"/><line style="stroke:#555555;stroke-width:0.5;stroke-dasharray:5.0,5.0;" x1="678.6768" x2="678.6768" y1="118.5938" y2="1546.4375"/></g><g><title>&lt;u&gt;EntrepriseModel</title><rect fill="#000000" fill-opacity="0.00000" height="1427.8438" width="8" x="1075.1987" y="118.5938"/><line style="stroke:#555555;stroke-width:0.5;stroke-dasharray:5.0,5.0;" x1="1079.1733" x2="1079.1733" y1="118.5938" y2="1546.4375"/></g><g><title>&lt;u&gt;OffreModel</title><rect fill="#000000" fill-opacity="0.00000" height="1427.8438" width="8" x="1186.8643" y="118.5938"/><line style="stroke:#555555;stroke-width:0.5;stroke-dasharray:5.0,5.0;" x1="1190.2241" x2="1190.2241" y1="118.5938" y2="1546.4375"/></g><g><title>&lt;u&gt;Base de Donn&#233;es</title><rect fill="#000000" fill-opacity="0.00000" height="1427.8438" width="8" x="1516.519" y="118.5938"/><line style="stroke:#555555;stroke-width:0.5;stroke-dasharray:5.0,5.0;" x1="1520.4673" x2="1520.4673" y1="118.5938" y2="1546.4375"/></g><g class="participant participant-head" data-participant="User"><text fill="#000000" font-family="sans-serif" font-size="14" lengthAdjust="spacing" text-decoration="underline" textLength="72.0098" x="20" y="115.292">Utilisateur</text><ellipse cx="59.0049" cy="50.7969" fill="#E2E2F0" rx="8" ry="8" style="stroke:#181818;stroke-width:0.5;"/><path d="M59.0049,58.7969 L59.0049,85.7969 M46.0049,66.7969 L72.0049,66.7969 M59.0049,85.7969 L46.0049,100.7969 M59.0049,85.7969 L72.0049,100.7969" fill="none" style="stroke:#181818;stroke-width:0.5;"/></g><g class="participant participant-tail" data-participant="User"><text fill="#000000" font-family="sans-serif" font-size="14" lengthAdjust="spacing" text-decoration="underline" textLength="72.0098" x="20" y="1558.4326">Utilisateur</text><ellipse cx="59.0049" cy="1570.2344" fill="#E2E2F0" rx="8" ry="8" style="stroke:#181818;stroke-width:0.5;"/><path d="M59.0049,1578.2344 L59.0049,1605.2344 M46.0049,1586.2344 L72.0049,1586.2344 M59.0049,1605.2344 L46.0049,1620.2344 M59.0049,1605.2344 L72.0049,1620.2344" fill="none" style="stroke:#181818;stroke-width:0.5;"/></g><g class="participant participant-head" data-participant="Browser"><rect fill="#E2E2F0" height="30.2969" rx="2.5" ry="2.5" style="stroke:#181818;stroke-width:0.5;" width="91.4238" x="328.771" y="87.2969"/><text fill="#000000" font-family="sans-serif" font-size="14" lengthAdjust="spacing" text-decoration="underline" textLength="77.4238" x="335.771" y="107.292">Navigateur</text></g><g class="participant participant-tail" data-participant="Browser"><rect fill="#E2E2F0" height="30.2969" rx="2.5" ry="2.5" style="stroke:#181818;stroke-width:0.5;" width="91.4238" x="328.771" y="1545.4375"/><text fill="#000000" font-family="sans-serif" font-size="14" lengthAdjust="spacing" text-decoration="underline" textLength="77.4238" x="335.771" y="1565.4326">Navigateur</text></g><g class="participant participant-head" data-participant="EntCtrl"><text fill="#000000" font-family="sans-serif" font-size="14" lengthAdjust="spacing" text-decoration="underline" textLength="141.1895" x="605.6768" y="115.292">EntrepriseController</text><path d="M658.7715,74.2969 L658.7715,98.2969 M658.7715,86.2969 L675.7715,86.2969" fill="none" style="stroke:#181818;stroke-width:0.5;"/><ellipse cx="687.7715" cy="86.2969" fill="#E2E2F0" rx="12" ry="12" style="stroke:#181818;stroke-width:0.5;"/></g><g class="participant participant-tail" data-participant="EntCtrl"><text fill="#000000" font-family="sans-serif" font-size="14" lengthAdjust="spacing" text-decoration="underline" textLength="141.1895" x="605.6768" y="1558.4326">EntrepriseController</text><path d="M658.7715,1565.7344 L658.7715,1589.7344 M658.7715,1577.7344 L675.7715,1577.7344" fill="none" style="stroke:#181818;stroke-width:0.5;"/><ellipse cx="687.7715" cy="1577.7344" fill="#E2E2F0" rx="12" ry="12" style="stroke:#181818;stroke-width:0.5;"/></g><g class="participant participant-head" data-participant="EntModel"><text fill="#000000" font-family="sans-serif" font-size="14" lengthAdjust="spacing" text-decoration="underline" textLength="114.0508" x="1019.1733" y="115.292">EntrepriseModel</text><ellipse cx="1079.1987" cy="86.2969" fill="#E2E2F0" rx="12" ry="12" style="stroke:#181818;stroke-width:0.5;"/><line style="stroke:#181818;stroke-width:0.5;" x1="1067.1987" x2="1091.1987" y1="100.2969" y2="100.2969"/></g><g class="participant participant-tail" data-participant="EntModel"><text fill="#000000" font-family="sans-serif" font-size="14" lengthAdjust="spacing" text-decoration="underline" textLength="114.0508" x="1019.1733" y="1558.4326">EntrepriseModel</text><ellipse cx="1079.1987" cy="1577.7344" fill="#E2E2F0" rx="12" ry="12" style="stroke:#181818;stroke-width:0.5;"/><line style="stroke:#181818;stroke-width:0.5;" x1="1067.1987" x2="1091.1987" y1="1591.7344" y2="1591.7344"/></g><g class="participant participant-head" data-participant="OffreModel"><text fill="#000000" font-family="sans-serif" font-size="14" lengthAdjust="spacing" text-decoration="underline" textLength="77.2803" x="1149.2241" y="115.292">OffreModel</text><ellipse cx="1190.8643" cy="86.2969" fill="#E2E2F0" rx="12" ry="12" style="stroke:#181818;stroke-width:0.5;"/><line style="stroke:#181818;stroke-width:0.5;" x1="1178.8643" x2="1202.8643" y1="100.2969" y2="100.2969"/></g><g class="participant participant-tail" data-participant="OffreModel"><text fill="#000000" font-family="sans-serif" font-size="14" lengthAdjust="spacing" text-decoration="underline" textLength="77.2803" x="1149.2241" y="1558.4326">OffreModel</text><ellipse cx="1190.8643" cy="1577.7344" fill="#E2E2F0" rx="12" ry="12" style="stroke:#181818;stroke-width:0.5;"/><line style="stroke:#181818;stroke-width:0.5;" x1="1178.8643" x2="1202.8643" y1="1591.7344" y2="1591.7344"/></g><g class="participant participant-head" data-participant="DB"><text fill="#000000" font-family="sans-serif" font-size="14" lengthAdjust="spacing" text-decoration="underline" textLength="122.1035" x="1456.4673" y="115.292">Base de Donn&#233;es</text><path d="M1502.519,66.2969 C1502.519,56.2969 1520.519,56.2969 1520.519,56.2969 C1520.519,56.2969 1538.519,56.2969 1538.519,66.2969 L1538.519,92.2969 C1538.519,102.2969 1520.519,102.2969 1520.519,102.2969 C1520.519,102.2969 1502.519,102.2969 1502.519,92.2969 L1502.519,66.2969" fill="#E2E2F0" style="stroke:#181818;stroke-width:1.5;"/><path d="M1502.519,66.2969 C1502.519,76.2969 1520.519,76.2969 1520.519,76.2969 C1520.519,76.2969 1538.519,76.2969 1538.519,66.2969" fill="none" style="stroke:#181818;stroke-width:1.5;"/></g><g class="participant participant-tail" data-participant="DB"><text fill="#000000" font-family="sans-serif" font-size="14" lengthAdjust="spacing" text-decoration="underline" textLength="122.1035" x="1456.4673" y="1558.4326">Base de Donn&#233;es</text><path d="M1502.519,1571.7344 C1502.519,1561.7344 1520.519,1561.7344 1520.519,1561.7344 C1520.519,1561.7344 1538.519,1561.7344 1538.519,1571.7344 L1538.519,1597.7344 C1538.519,1607.7344 1520.519,1607.7344 1520.519,1607.7344 C1520.519,1607.7344 1502.519,1607.7344 1502.519,1597.7344 L1502.519,1571.7344" fill="#E2E2F0" style="stroke:#181818;stroke-width:1.5;"/><path d="M1502.519,1571.7344 C1502.519,1581.7344 1520.519,1581.7344 1520.519,1581.7344 C1520.519,1581.7344 1538.519,1581.7344 1538.519,1571.7344" fill="none" style="stroke:#181818;stroke-width:1.5;"/></g><g class="message" data-participant-1="User" data-participant-2="Browser"><polygon fill="#181818" points="362.4829,145.7266,372.4829,149.7266,362.4829,153.7266,366.4829,149.7266" style="stroke:#181818;stroke-width:1;"/><line style="stroke:#181818;stroke-width:2;" x1="59.0049" x2="368.4829" y1="149.7266" y2="149.7266"/><text fill="#000000" font-family="sans-serif" font-size="13" lengthAdjust="spacing" textLength="146.7451" x="66.0049" y="144.6606">Acc&#232;s liste entreprises</text></g><g class="message" data-participant-1="Browser" data-participant-2="EntCtrl"><polygon fill="#181818" points="667.2715,174.8594,677.2715,178.8594,667.2715,182.8594,671.2715,178.8594" style="stroke:#181818;stroke-width:1;"/><line style="stroke:#181818;stroke-width:2;" x1="374.4829" x2="673.2715" y1="178.8594" y2="178.8594"/><text fill="#000000" font-family="sans-serif" font-size="13" lengthAdjust="spacing" textLength="108.1704" x="381.4829" y="173.7935">GET /entreprises</text></g><g class="message" data-participant-1="EntCtrl" data-participant-2="EntModel"><polygon fill="#181818" points="1067.1987,203.9922,1077.1987,207.9922,1067.1987,211.9922,1071.1987,207.9922" style="stroke:#181818;stroke-width:1;"/><line style="stroke:#181818;stroke-width:2;" x1="679.2715" x2="1073.1987" y1="207.9922" y2="207.9922"/><text fill="#000000" font-family="sans-serif" font-size="13" lengthAdjust="spacing" textLength="310.54" x="686.2715" y="202.9263">getEntreprisesWithPaginationAndRatings(page)</text></g><g class="message" data-participant-1="EntModel" data-participant-2="DB"><polygon fill="#181818" points="1508.519,263.3906,1518.519,267.3906,1508.519,271.3906,1512.519,267.3906" style="stroke:#181818;stroke-width:1;"/><line style="stroke:#181818;stroke-width:2;" x1="1079.1987" x2="1514.519" y1="267.3906" y2="267.3906"/><text fill="#000000" font-family="sans-serif" font-size="13" lengthAdjust="spacing" textLength="298.8667" x="1086.1987" y="232.0591">SELECT e.*, AVG(ev.note) FROM entreprises e</text><text fill="#000000" font-family="sans-serif" font-size="13" lengthAdjust="spacing" textLength="337.9556" x="1086.1987" y="247.1919">LEFT JOIN evaluations ev ON e.id = ev.entreprise_id</text><text fill="#000000" font-family="sans-serif" font-size="13" lengthAdjust="spacing" textLength="160.2085" x="1086.1987" y="262.3247">GROUP BY e.id LIMIT ?, ?</text></g><g class="message" data-participant-1="DB" data-participant-2="EntModel"><polygon fill="#181818" points="1090.1987,292.5234,1080.1987,296.5234,1090.1987,300.5234,1086.1987,296.5234" style="stroke:#181818;stroke-width:1;"/><line style="stroke:#181818;stroke-width:2;stroke-dasharray:2.0,2.0;" x1="1084.1987" x2="1519.519" y1="296.5234" y2="296.5234"/><text fill="#000000" font-family="sans-serif" font-size="13" lengthAdjust="spacing" textLength="255.106" x="1096.1987" y="291.4575">Liste entreprises avec notes moyennes</text></g><g class="message" data-participant-1="EntModel" data-participant-2="EntCtrl"><polygon fill="#181818" points="690.2715,321.6563,680.2715,325.6563,690.2715,329.6563,686.2715,325.6563" style="stroke:#181818;stroke-width:1;"/><line style="stroke:#181818;stroke-width:2;stroke-dasharray:2.0,2.0;" x1="684.2715" x2="1078.1987" y1="325.6563" y2="325.6563"/><text fill="#000000" font-family="sans-serif" font-size="13" lengthAdjust="spacing" textLength="161.9922" x="696.2715" y="320.5903">Entreprises + pagination</text></g><g class="message" data-participant-1="EntCtrl" data-participant-2="Browser"><polygon fill="#181818" points="385.4829,350.7891,375.4829,354.7891,385.4829,358.7891,381.4829,354.7891" style="stroke:#181818;stroke-width:1;"/><line style="stroke:#181818;stroke-width:2;" x1="379.4829" x2="678.2715" y1="354.7891" y2="354.7891"/><text fill="#000000" font-family="sans-serif" font-size="13" lengthAdjust="spacing" textLength="151.0488" x="391.4829" y="349.7231">Rendu entreprises.twig</text></g><g class="message" data-participant-1="Browser" data-participant-2="User"><polygon fill="#181818" points="70.0049,379.9219,60.0049,383.9219,70.0049,387.9219,66.0049,383.9219" style="stroke:#181818;stroke-width:1;"/><line style="stroke:#181818;stroke-width:2;" x1="64.0049" x2="373.4829" y1="383.9219" y2="383.9219"/><text fill="#000000" font-family="sans-serif" font-size="13" lengthAdjust="spacing" textLength="170.0474" x="76.0049" y="378.856">Affichage liste entreprises</text></g><g class="message" data-participant-1="User" data-participant-2="Browser"><polygon fill="#181818" points="362.4829,409.0547,372.4829,413.0547,362.4829,417.0547,366.4829,413.0547" style="stroke:#181818;stroke-width:1;"/><line style="stroke:#181818;stroke-width:2;" x1="59.0049" x2="368.4829" y1="413.0547" y2="413.0547"/><text fill="#000000" font-family="sans-serif" font-size="13" lengthAdjust="spacing" textLength="147.3354" x="66.0049" y="407.9888">Clic sur une entreprise</text></g><g class="message" data-participant-1="Browser" data-participant-2="EntCtrl"><polygon fill="#181818" points="667.2715,438.1875,677.2715,442.1875,667.2715,446.1875,671.2715,442.1875" style="stroke:#181818;stroke-width:1;"/><line style="stroke:#181818;stroke-width:2;" x1="374.4829" x2="673.2715" y1="442.1875" y2="442.1875"/><text fill="#000000" font-family="sans-serif" font-size="13" lengthAdjust="spacing" textLength="140.9561" x="381.4829" y="437.1216">GET /entreprises/{id}</text></g><g class="message" data-participant-1="EntCtrl" data-participant-2="EntModel"><polygon fill="#181818" points="1067.1987,467.3203,1077.1987,471.3203,1067.1987,475.3203,1071.1987,471.3203" style="stroke:#181818;stroke-width:1;"/><line style="stroke:#181818;stroke-width:2;" x1="679.2715" x2="1073.1987" y1="471.3203" y2="471.3203"/><text fill="#000000" font-family="sans-serif" font-size="13" lengthAdjust="spacing" textLength="217.6992" x="686.2715" y="466.2544">getEntrepriseWithRatingsById(id)</text></g><g class="message" data-participant-1="EntModel" data-participant-2="DB"><polygon fill="#181818" points="1508.519,526.7188,1518.519,530.7188,1508.519,534.7188,1512.519,530.7188" style="stroke:#181818;stroke-width:1;"/><line style="stroke:#181818;stroke-width:2;" x1="1079.1987" x2="1514.519" y1="530.7188" y2="530.7188"/><text fill="#000000" font-family="sans-serif" font-size="13" lengthAdjust="spacing" textLength="298.8667" x="1086.1987" y="495.3872">SELECT e.*, AVG(ev.note) FROM entreprises e</text><text fill="#000000" font-family="sans-serif" font-size="13" lengthAdjust="spacing" textLength="337.9556" x="1086.1987" y="510.52">LEFT JOIN evaluations ev ON e.id = ev.entreprise_id</text><text fill="#000000" font-family="sans-serif" font-size="13" lengthAdjust="spacing" textLength="102.2734" x="1086.1987" y="525.6528">WHERE e.id = ?</text></g><g class="message" data-participant-1="DB" data-participant-2="EntModel"><polygon fill="#181818" points="1090.1987,555.8516,1080.1987,559.8516,1090.1987,563.8516,1086.1987,559.8516" style="stroke:#181818;stroke-width:1;"/><line style="stroke:#181818;stroke-width:2;stroke-dasharray:2.0,2.0;" x1="1084.1987" x2="1519.519" y1="559.8516" y2="559.8516"/><text fill="#000000" font-family="sans-serif" font-size="13" lengthAdjust="spacing" textLength="261.2759" x="1096.1987" y="554.7856">Donn&#233;es entreprise avec note moyenne</text></g><g class="message" data-participant-1="EntCtrl" data-participant-2="EntModel"><polygon fill="#181818" points="1067.1987,584.9844,1077.1987,588.9844,1067.1987,592.9844,1071.1987,588.9844" style="stroke:#181818;stroke-width:1;"/><line style="stroke:#181818;stroke-width:2;" x1="679.2715" x2="1073.1987" y1="588.9844" y2="588.9844"/><text fill="#000000" font-family="sans-serif" font-size="13" lengthAdjust="spacing" textLength="118.7202" x="686.2715" y="583.9185">getEvaluations(id)</text></g><g class="message" data-participant-1="EntModel" data-participant-2="DB"><polygon fill="#181818" points="1508.519,644.3828,1518.519,648.3828,1508.519,652.3828,1512.519,648.3828" style="stroke:#181818;stroke-width:1;"/><line style="stroke:#181818;stroke-width:2;" x1="1079.1987" x2="1514.519" y1="648.3828" y2="648.3828"/><text fill="#000000" font-family="sans-serif" font-size="13" lengthAdjust="spacing" textLength="270.0864" x="1086.1987" y="613.0513">SELECT ev.*, u.nom FROM evaluations ev</text><text fill="#000000" font-family="sans-serif" font-size="13" lengthAdjust="spacing" textLength="291.8843" x="1086.1987" y="628.1841">JOIN utilisateurs u ON ev.utilisateur_id = u.id</text><text fill="#000000" font-family="sans-serif" font-size="13" lengthAdjust="spacing" textLength="183.1235" x="1086.1987" y="643.3169">WHERE ev.entreprise_id = ?</text></g><g class="message" data-participant-1="DB" data-participant-2="EntModel"><polygon fill="#181818" points="1090.1987,673.5156,1080.1987,677.5156,1090.1987,681.5156,1086.1987,677.5156" style="stroke:#181818;stroke-width:1;"/><line style="stroke:#181818;stroke-width:2;stroke-dasharray:2.0,2.0;" x1="1084.1987" x2="1519.519" y1="677.5156" y2="677.5156"/><text fill="#000000" font-family="sans-serif" font-size="13" lengthAdjust="spacing" textLength="137.1602" x="1096.1987" y="672.4497">Liste des &#233;valuations</text></g><g class="message" data-participant-1="EntCtrl" data-participant-2="OffreModel"><polygon fill="#181818" points="1178.8643,702.6484,1188.8643,706.6484,1178.8643,710.6484,1182.8643,706.6484" style="stroke:#181818;stroke-width:1;"/><line style="stroke:#181818;stroke-width:2;" x1="679.2715" x2="1184.8643" y1="706.6484" y2="706.6484"/><text fill="#000000" font-family="sans-serif" font-size="13" lengthAdjust="spacing" textLength="149.7285" x="686.2715" y="701.5825">getOffresEntreprise(id)</text></g><g class="message" data-participant-1="OffreModel" data-participant-2="DB"><polygon fill="#181818" points="1508.519,777.1797,1518.519,781.1797,1508.519,785.1797,1512.519,781.1797" style="stroke:#181818;stroke-width:1;"/><line style="stroke:#181818;stroke-width:2;" x1="1190.8643" x2="1514.519" y1="781.1797" y2="781.1797"/><text fill="#000000" font-family="sans-serif" font-size="13" lengthAdjust="spacing" textLength="143.019" x="1197.8643" y="730.7153">SELECT * FROM offres</text><text fill="#000000" font-family="sans-serif" font-size="13" lengthAdjust="spacing" textLength="163.2998" x="1197.8643" y="745.8481">WHERE entreprise_id = ?</text><text fill="#000000" font-family="sans-serif" font-size="13" lengthAdjust="spacing" textLength="136.8491" x="1197.8643" y="760.981">AND statut = 'active'</text><text fill="#000000" font-family="sans-serif" font-size="13" lengthAdjust="spacing" textLength="219.1274" x="1197.8643" y="776.1138">ORDER BY date_publication DESC</text></g><g class="message" data-participant-1="DB" data-participant-2="OffreModel"><polygon fill="#181818" points="1201.8643,806.3125,1191.8643,810.3125,1201.8643,814.3125,1197.8643,810.3125" style="stroke:#181818;stroke-width:1;"/><line style="stroke:#181818;stroke-width:2;stroke-dasharray:2.0,2.0;" x1="1195.8643" x2="1519.519" y1="810.3125" y2="810.3125"/><text fill="#000000" font-family="sans-serif" font-size="13" lengthAdjust="spacing" textLength="137.8584" x="1207.8643" y="805.2466">Offres de l'entreprise</text></g><g class="message" data-participant-1="OffreModel" data-participant-2="EntCtrl"><polygon fill="#181818" points="690.2715,835.4453,680.2715,839.4453,690.2715,843.4453,686.2715,839.4453" style="stroke:#181818;stroke-width:1;"/><line style="stroke:#181818;stroke-width:2;stroke-dasharray:2.0,2.0;" x1="684.2715" x2="1189.8643" y1="839.4453" y2="839.4453"/><text fill="#000000" font-family="sans-serif" font-size="13" lengthAdjust="spacing" textLength="99.2329" x="696.2715" y="834.3794">Liste des offres</text></g><g class="message" data-participant-1="EntModel" data-participant-2="EntCtrl"><polygon fill="#181818" points="690.2715,864.5781,680.2715,868.5781,690.2715,872.5781,686.2715,868.5781" style="stroke:#181818;stroke-width:1;"/><line style="stroke:#181818;stroke-width:2;stroke-dasharray:2.0,2.0;" x1="684.2715" x2="1078.1987" y1="868.5781" y2="868.5781"/><text fill="#000000" font-family="sans-serif" font-size="13" lengthAdjust="spacing" textLength="199.6274" x="696.2715" y="863.5122">Donn&#233;es compl&#232;tes entreprise</text></g><g class="message" data-participant-1="EntCtrl" data-participant-2="Browser"><polygon fill="#181818" points="385.4829,893.7109,375.4829,897.7109,385.4829,901.7109,381.4829,897.7109" style="stroke:#181818;stroke-width:1;"/><line style="stroke:#181818;stroke-width:2;" x1="379.4829" x2="678.2715" y1="897.7109" y2="897.7109"/><text fill="#000000" font-family="sans-serif" font-size="13" lengthAdjust="spacing" textLength="194.0859" x="391.4829" y="892.645">Rendu entreprise_details.twig</text></g><g class="message" data-participant-1="Browser" data-participant-2="User"><polygon fill="#181818" points="70.0049,922.8438,60.0049,926.8438,70.0049,930.8438,66.0049,926.8438" style="stroke:#181818;stroke-width:1;"/><line style="stroke:#181818;stroke-width:2;" x1="64.0049" x2="373.4829" y1="926.8438" y2="926.8438"/><text fill="#000000" font-family="sans-serif" font-size="13" lengthAdjust="spacing" textLength="169.5332" x="76.0049" y="921.7778">Affichage profil entreprise</text></g><path d="M12.5,941.8438 L74.4429,941.8438 L74.4429,948.9766 L64.4429,958.9766 L10,958.9766 L10,944.3438 A2.5,2.5 0 0 1 12.5,941.8438" fill="#EEEEEE" style="stroke:#000000;stroke-width:1.5;"/><rect fill="none" height="587.5938" rx="2.5" ry="2.5" style="stroke:#000000;stroke-width:1.5;" width="1594.5708" x="10" y="941.8438"/><text fill="#000000" font-family="sans-serif" font-size="13" font-weight="bold" lengthAdjust="spacing" textLength="19.4429" x="25" y="954.9106">alt</text><text fill="#000000" font-family="sans-serif" font-size="11" font-weight="bold" lengthAdjust="spacing" textLength="148.0112" x="89.4429" y="954.0542">[Utilisateur authentifi&#233;]</text><g class="message" data-participant-1="User" data-participant-2="Browser"><polygon fill="#181818" points="362.4829,976.1094,372.4829,980.1094,362.4829,984.1094,366.4829,980.1094" style="stroke:#181818;stroke-width:1;"/><line style="stroke:#181818;stroke-width:2;" x1="59.0049" x2="368.4829" y1="980.1094" y2="980.1094"/><text fill="#000000" font-family="sans-serif" font-size="13" lengthAdjust="spacing" textLength="291.478" x="66.0049" y="975.0435">Soumission d'une note (1-5) et commentaire</text></g><g class="message" data-participant-1="Browser" data-participant-2="EntCtrl"><polygon fill="#181818" points="667.2715,1005.2422,677.2715,1009.2422,667.2715,1013.2422,671.2715,1009.2422" style="stroke:#181818;stroke-width:1;"/><line style="stroke:#181818;stroke-width:2;" x1="374.4829" x2="673.2715" y1="1009.2422" y2="1009.2422"/><text fill="#000000" font-family="sans-serif" font-size="13" lengthAdjust="spacing" textLength="179.7783" x="381.4829" y="1004.1763">POST /entreprises/{id}/rate</text></g><g class="message" data-participant-1="EntCtrl" data-participant-2="EntCtrl"><line style="stroke:#181818;stroke-width:2;" x1="679.2715" x2="721.2715" y1="1038.375" y2="1038.375"/><line style="stroke:#181818;stroke-width:2;" x1="721.2715" x2="721.2715" y1="1038.375" y2="1051.375"/><line style="stroke:#181818;stroke-width:2;" x1="680.2715" x2="721.2715" y1="1051.375" y2="1051.375"/><polygon fill="#181818" points="690.2715,1047.375,680.2715,1051.375,690.2715,1055.375,686.2715,1051.375" style="stroke:#181818;stroke-width:1;"/><text fill="#000000" font-family="sans-serif" font-size="13" lengthAdjust="spacing" textLength="126.3057" x="686.2715" y="1033.3091">V&#233;rification session</text></g><g class="message" data-participant-1="EntCtrl" data-participant-2="EntModel"><polygon fill="#181818" points="1067.1987,1076.5078,1077.1987,1080.5078,1067.1987,1084.5078,1071.1987,1080.5078" style="stroke:#181818;stroke-width:1;"/><line style="stroke:#181818;stroke-width:2;" x1="679.2715" x2="1073.1987" y1="1080.5078" y2="1080.5078"/><text fill="#000000" font-family="sans-serif" font-size="13" lengthAdjust="spacing" textLength="286.3301" x="686.2715" y="1075.4419">getEvaluationByUser(entreprise_id, user_id)</text></g><g class="message" data-participant-1="EntModel" data-participant-2="DB"><polygon fill="#181818" points="1508.519,1120.7734,1518.519,1124.7734,1508.519,1128.7734,1512.519,1124.7734" style="stroke:#181818;stroke-width:1;"/><line style="stroke:#181818;stroke-width:2;" x1="1079.1987" x2="1514.519" y1="1124.7734" y2="1124.7734"/><text fill="#000000" font-family="sans-serif" font-size="13" lengthAdjust="spacing" textLength="180.9463" x="1086.1987" y="1104.5747">SELECT * FROM evaluations</text><text fill="#000000" font-family="sans-serif" font-size="13" lengthAdjust="spacing" textLength="310.2036" x="1086.1987" y="1119.7075">WHERE entreprise_id = ? AND utilisateur_id = ?</text></g><g class="message" data-participant-1="DB" data-participant-2="EntModel"><polygon fill="#181818" points="1090.1987,1149.9063,1080.1987,1153.9063,1090.1987,1157.9063,1086.1987,1153.9063" style="stroke:#181818;stroke-width:1;"/><line style="stroke:#181818;stroke-width:2;stroke-dasharray:2.0,2.0;" x1="1084.1987" x2="1519.519" y1="1153.9063" y2="1153.9063"/><text fill="#000000" font-family="sans-serif" font-size="13" lengthAdjust="spacing" textLength="108.875" x="1096.1987" y="1148.8403">R&#233;sultat requ&#234;te</text></g><path d="M598.1768,1168.9063 L660.1196,1168.9063 L660.1196,1176.0391 L650.1196,1186.0391 L595.6768,1186.0391 L595.6768,1171.4063 A2.5,2.5 0 0 1 598.1768,1168.9063" fill="#EEEEEE" style="stroke:#000000;stroke-width:1.5;"/><rect fill="none" height="178.7344" rx="2.5" ry="2.5" style="stroke:#000000;stroke-width:1.5;" width="998.894" x="595.6768" y="1168.9063"/><text fill="#000000" font-family="sans-serif" font-size="13" font-weight="bold" lengthAdjust="spacing" textLength="19.4429" x="610.6768" y="1181.9731">alt</text><text fill="#000000" font-family="sans-serif" font-size="11" font-weight="bold" lengthAdjust="spacing" textLength="137.5376" x="675.1196" y="1181.1167">[&#201;valuation existante]</text><g class="message" data-participant-1="EntCtrl" data-participant-2="EntModel"><polygon fill="#181818" points="1067.1987,1203.1719,1077.1987,1207.1719,1067.1987,1211.1719,1071.1987,1207.1719" style="stroke:#181818;stroke-width:1;"/><line style="stroke:#181818;stroke-width:2;" x1="679.2715" x2="1073.1987" y1="1207.1719" y2="1207.1719"/><text fill="#000000" font-family="sans-serif" font-size="13" lengthAdjust="spacing" textLength="268.9058" x="686.2715" y="1202.106">updateEvaluation(id, note, commentaire)</text></g><g class="message" data-participant-1="EntModel" data-participant-2="DB"><polygon fill="#181818" points="1508.519,1247.4375,1518.519,1251.4375,1508.519,1255.4375,1512.519,1251.4375" style="stroke:#181818;stroke-width:1;"/><line style="stroke:#181818;stroke-width:2;" x1="1079.1987" x2="1514.519" y1="1251.4375" y2="1251.4375"/><text fill="#000000" font-family="sans-serif" font-size="13" lengthAdjust="spacing" textLength="340.7168" x="1086.1987" y="1231.2388">UPDATE evaluations SET note = ?, commentaire = ?</text><text fill="#000000" font-family="sans-serif" font-size="13" lengthAdjust="spacing" textLength="90.1431" x="1086.1987" y="1246.3716">WHERE id = ?</text></g><line style="stroke:#000000;stroke-width:1;stroke-dasharray:2.0,2.0;" x1="595.6768" x2="1594.5708" y1="1260.4375" y2="1260.4375"/><text fill="#000000" font-family="sans-serif" font-size="11" font-weight="bold" lengthAdjust="spacing" textLength="133.606" x="600.6768" y="1270.6479">[Nouvelle &#233;valuation]</text><g class="message" data-participant-1="EntCtrl" data-participant-2="EntModel"><polygon fill="#181818" points="1067.1987,1291.375,1077.1987,1295.375,1067.1987,1299.375,1071.1987,1295.375" style="stroke:#181818;stroke-width:1;"/><line style="stroke:#181818;stroke-width:2;" x1="679.2715" x2="1073.1987" y1="1295.375" y2="1295.375"/><text fill="#000000" font-family="sans-serif" font-size="13" lengthAdjust="spacing" textLength="375.9272" x="686.2715" y="1290.3091">rateEntreprise(entreprise_id, user_id, note, commentaire)</text></g><g class="message" data-participant-1="EntModel" data-participant-2="DB"><polygon fill="#181818" points="1508.519,1335.6406,1518.519,1339.6406,1508.519,1343.6406,1512.519,1339.6406" style="stroke:#181818;stroke-width:1;"/><line style="stroke:#181818;stroke-width:2;" x1="1079.1987" x2="1514.519" y1="1339.6406" y2="1339.6406"/><text fill="#000000" font-family="sans-serif" font-size="13" lengthAdjust="spacing" textLength="162.1445" x="1086.1987" y="1319.4419">INSERT INTO evaluations</text><text fill="#000000" font-family="sans-serif" font-size="13" lengthAdjust="spacing" textLength="417.3203" x="1086.1987" y="1334.5747">(entreprise_id, utilisateur_id, note, commentaire, date_creation)</text></g><g class="message" data-participant-1="DB" data-participant-2="EntModel"><polygon fill="#181818" points="1090.1987,1371.7734,1080.1987,1375.7734,1090.1987,1379.7734,1086.1987,1375.7734" style="stroke:#181818;stroke-width:1;"/><line style="stroke:#181818;stroke-width:2;stroke-dasharray:2.0,2.0;" x1="1084.1987" x2="1519.519" y1="1375.7734" y2="1375.7734"/><text fill="#000000" font-family="sans-serif" font-size="13" lengthAdjust="spacing" textLength="84.335" x="1096.1987" y="1370.7075">Confirmation</text></g><g class="message" data-participant-1="EntModel" data-participant-2="EntCtrl"><polygon fill="#181818" points="690.2715,1400.9063,680.2715,1404.9063,690.2715,1408.9063,686.2715,1404.9063" style="stroke:#181818;stroke-width:1;"/><line style="stroke:#181818;stroke-width:2;stroke-dasharray:2.0,2.0;" x1="684.2715" x2="1078.1987" y1="1404.9063" y2="1404.9063"/><text fill="#000000" font-family="sans-serif" font-size="13" lengthAdjust="spacing" textLength="45.5571" x="696.2715" y="1399.8403">Succ&#232;s</text></g><g class="message" data-participant-1="EntCtrl" data-participant-2="Browser"><polygon fill="#181818" points="385.4829,1430.0391,375.4829,1434.0391,385.4829,1438.0391,381.4829,1434.0391" style="stroke:#181818;stroke-width:1;"/><line style="stroke:#181818;stroke-width:2;" x1="379.4829" x2="678.2715" y1="1434.0391" y2="1434.0391"/><text fill="#000000" font-family="sans-serif" font-size="13" lengthAdjust="spacing" textLength="214.5" x="391.4829" y="1428.9731">Redirection vers profil entreprise</text></g><g class="message" data-participant-1="Browser" data-participant-2="EntCtrl"><polygon fill="#181818" points="667.2715,1459.1719,677.2715,1463.1719,667.2715,1467.1719,671.2715,1463.1719" style="stroke:#181818;stroke-width:1;"/><line style="stroke:#181818;stroke-width:2;" x1="374.4829" x2="673.2715" y1="1463.1719" y2="1463.1719"/><text fill="#000000" font-family="sans-serif" font-size="13" lengthAdjust="spacing" textLength="140.9561" x="381.4829" y="1458.106">GET /entreprises/{id}</text></g><g class="message" data-participant-1="EntCtrl" data-participant-2="Browser"><polygon fill="#181818" points="385.4829,1488.3047,375.4829,1492.3047,385.4829,1496.3047,381.4829,1492.3047" style="stroke:#181818;stroke-width:1;"/><line style="stroke:#181818;stroke-width:2;" x1="379.4829" x2="678.2715" y1="1492.3047" y2="1492.3047"/><text fill="#000000" font-family="sans-serif" font-size="13" lengthAdjust="spacing" textLength="280.7886" x="391.4829" y="1487.2388">Rendu entreprise_details.twig (mise &#224; jour)</text></g><g class="message" data-participant-1="Browser" data-participant-2="User"><polygon fill="#181818" points="70.0049,1517.4375,60.0049,1521.4375,70.0049,1525.4375,66.0049,1521.4375" style="stroke:#181818;stroke-width:1;"/><line style="stroke:#181818;stroke-width:2;" x1="64.0049" x2="373.4829" y1="1521.4375" y2="1521.4375"/><text fill="#000000" font-family="sans-serif" font-size="13" lengthAdjust="spacing" textLength="167.3052" x="76.0049" y="1516.3716">Affichage profil mis &#224; jour</text></g><!--SRC=[nLRTRkf64BxtKupeHU0q8Mgbt5GwZVZnIQa887xEKIKajB47ierPqzsrpucgFa3VefU7lePVhBDhm6imDBqgKY1hpyn-ttmpiwjUkDWmoTQWyBS4HO0jAUFFqsSUl0XK2hxtrC54nea8WrWAb73dFD-xZfZKFE0R9ZIG9Sg82womw_Cb_GbinvACEd4KI_ZcpdukMRFWPMKXx3ny-_4ypNM4KEjojYA_DKA8CCcskJVSG2SMAeaqqpmMW1goFrCM9Vaol4e4WY-qn8ta2ckUnm9DqMippIEkcCP4re0fc2cKtiPXM1kmbAyAWpRbpTWy6OXClaAj24iGj8oZ27DJUj7HCl9G4FQIuMCSOhItiOk3qN2vbCxxOkc5JBCdfYW7RVDDzBkn4DaMbRNijZtFe8UR7_SWuGTe1K7sLG5nr0Xu0A2ylGbPxt2IzOC_XLlNojk_oyqi4B9ReIx8g4zSFu_OYWkRx9O8n_IFMAdwXgsmuHtyA4QtJTuJl-ztfe3DTzVG-lXGnxGfOeqD-30UFheW0UUYxt-Omi_3tW3me2UzI658JveyXFUqQ1PE2nxEnSDuE1j1-vVSejzxx4tX_XhkFTh_faobVvmPO2a6O00fMCUlAAX170wbV3b9W6zXSyY1cxP2Yp6AC76tQkhFVEKgCTk9jbpou9cILw5RXSQTY0UW4Wcco0lRjqby-piF_tYJpaRcdRBjrrvOv-7_eksdd_onltzTfUY-AvpT2attabvYN62vp34r91FYjzwnAv6O2yiiAGQCWiGoIvlEmuNbaJGTQaUKpz3C2pSadjcssBZ4gnWUEJExLeMYbfvZT4JmNKuhjbu7TCVGvg8rw8AYmPjeMb_HOEKfNit5SDprnwO9QN3XOfCyKPdcuxZhJpfxHYMCEK0psg8hfv1TYALYBdAGW_JEDUgX9e9ulOcohxfK7czhrqM8cl7e3LsxaV6IH-u67eiqE6SDi4G_cv6_vDdM0_gSjlKaJjPSgUByilLR_-xchc7EDsAofWYCIxG1AhjzD9nKjFkj913MoNwLEs7d-J7RIaAtKumy3P0Ayyh6QRyQElLIhL2hqBE5ARbTb4j5v_JIsSe3KtWdhNHlmv_sopZRvlS3a7JboFvsCs3KSUyB-8KAYqx_tEGywMHZQhlWNJSqZKpNhZmDDqgPz6pKRKtzqkIOq82sIhytHvOJ9c-sF1SEKunelWtY94MwUBYpu5-mcnfmHa6rLl-DJMymySTJ-faEomAUH2-9Lh79TJuq0easHBudzMCXsQd0TFjQShakk9-P1PF4tecEQzbj_90W1BOIKgInVThFPnkk-dYziDM56GFrjJcxih_WrpYHZUDDpuqTSjhxqAqo_0S0]--></g></svg>