<svg xmlns="http://www.w3.org/2000/svg" xmlns:xlink="http://www.w3.org/1999/xlink" contentStyleType="text/css" data-diagram-type="SEQUENCE" height="963px" preserveAspectRatio="none" style="width:1470px;height:963px;background:#FFFFFF;" version="1.1" viewBox="0 0 1470 963" width="1470px" zoomAndPan="magnify"><title>Diagramme de S&#233;quence - Authentification</title><defs/><g><text fill="#000000" font-family="sans-serif" font-size="14" font-weight="bold" lengthAdjust="spacing" textLength="340.6826" x="566.0295" y="27.9951">Diagramme de S&#233;quence - Authentification</text><rect fill="none" height="380.6641" rx="2.5" ry="2.5" style="stroke:#000000;stroke-width:1.5;" width="1453.7417" x="10" y="485.3203"/><g><title>&lt;u&gt;Utilisateur</title><rect fill="#000000" fill-opacity="0.00000" height="764.3906" width="8" x="55.0049" y="118.5938"/><line style="stroke:#555555;stroke-width:0.5;stroke-dasharray:5.0,5.0;" x1="59" x2="59" y1="118.5938" y2="882.9844"/></g><g><title>&lt;u&gt;Navigateur</title><rect fill="#000000" fill-opacity="0.00000" height="764.3906" width="8" x="303.3184" y="118.5938"/><line style="stroke:#555555;stroke-width:0.5;stroke-dasharray:5.0,5.0;" x1="306.6064" x2="306.6064" y1="118.5938" y2="882.9844"/></g><g><title>&lt;u&gt;AuthController</title><rect fill="#000000" fill-opacity="0.00000" height="764.3906" width="8" x="487.0508" y="118.5938"/><line style="stroke:#555555;stroke-width:0.5;stroke-dasharray:5.0,5.0;" x1="490.0581" x2="490.0581" y1="118.5938" y2="882.9844"/></g><g><title>&lt;u&gt;UtilisateurModel</title><rect fill="#000000" fill-opacity="0.00000" height="764.3906" width="8" x="768.7314" y="118.5938"/><line style="stroke:#555555;stroke-width:0.5;stroke-dasharray:5.0,5.0;" x1="772.7095" x2="772.7095" y1="118.5938" y2="882.9844"/></g><g><title>&lt;u&gt;Base de Donn&#233;es</title><rect fill="#000000" fill-opacity="0.00000" height="764.3906" width="8" x="1036.729" y="118.5938"/><line style="stroke:#555555;stroke-width:0.5;stroke-dasharray:5.0,5.0;" x1="1040.6772" x2="1040.6772" y1="118.5938" y2="882.9844"/></g><g><title>&lt;u&gt;DashboardController</title><rect fill="#000000" fill-opacity="0.00000" height="764.3906" width="8" x="1186.4673" y="118.5938"/><line style="stroke:#555555;stroke-width:0.5;stroke-dasharray:5.0,5.0;" x1="1189.7808" x2="1189.7808" y1="118.5938" y2="882.9844"/></g><g class="participant participant-head" data-participant="User"><text fill="#000000" font-family="sans-serif" font-size="14" lengthAdjust="spacing" text-decoration="underline" textLength="72.0098" x="20" y="115.292">Utilisateur</text><ellipse cx="59.0049" cy="50.7969" fill="#E2E2F0" rx="8" ry="8" style="stroke:#181818;stroke-width:0.5;"/><path d="M59.0049,58.7969 L59.0049,85.7969 M46.0049,66.7969 L72.0049,66.7969 M59.0049,85.7969 L46.0049,100.7969 M59.0049,85.7969 L72.0049,100.7969" fill="none" style="stroke:#181818;stroke-width:0.5;"/></g><g class="participant participant-tail" data-participant="User"><text fill="#000000" font-family="sans-serif" font-size="14" lengthAdjust="spacing" text-decoration="underline" textLength="72.0098" x="20" y="894.9795">Utilisateur</text><ellipse cx="59.0049" cy="906.7813" fill="#E2E2F0" rx="8" ry="8" style="stroke:#181818;stroke-width:0.5;"/><path d="M59.0049,914.7813 L59.0049,941.7813 M46.0049,922.7813 L72.0049,922.7813 M59.0049,941.7813 L46.0049,956.7813 M59.0049,941.7813 L72.0049,956.7813" fill="none" style="stroke:#181818;stroke-width:0.5;"/></g><g class="participant participant-head" data-participant="Browser"><rect fill="#E2E2F0" height="30.2969" rx="2.5" ry="2.5" style="stroke:#181818;stroke-width:0.5;" width="91.4238" x="261.6064" y="87.2969"/><text fill="#000000" font-family="sans-serif" font-size="14" lengthAdjust="spacing" text-decoration="underline" textLength="77.4238" x="268.6064" y="107.292">Navigateur</text></g><g class="participant participant-tail" data-participant="Browser"><rect fill="#E2E2F0" height="30.2969" rx="2.5" ry="2.5" style="stroke:#181818;stroke-width:0.5;" width="91.4238" x="261.6064" y="881.9844"/><text fill="#000000" font-family="sans-serif" font-size="14" lengthAdjust="spacing" text-decoration="underline" textLength="77.4238" x="268.6064" y="901.9795">Navigateur</text></g><g class="participant participant-head" data-participant="Auth"><text fill="#000000" font-family="sans-serif" font-size="14" lengthAdjust="spacing" text-decoration="underline" textLength="101.9854" x="437.0581" y="115.292">AuthController</text><path d="M470.5508,74.2969 L470.5508,98.2969 M470.5508,86.2969 L487.5508,86.2969" fill="none" style="stroke:#181818;stroke-width:0.5;"/><ellipse cx="499.5508" cy="86.2969" fill="#E2E2F0" rx="12" ry="12" style="stroke:#181818;stroke-width:0.5;"/></g><g class="participant participant-tail" data-participant="Auth"><text fill="#000000" font-family="sans-serif" font-size="14" lengthAdjust="spacing" text-decoration="underline" textLength="101.9854" x="437.0581" y="894.9795">AuthController</text><path d="M470.5508,902.2813 L470.5508,926.2813 M470.5508,914.2813 L487.5508,914.2813" fill="none" style="stroke:#181818;stroke-width:0.5;"/><ellipse cx="499.5508" cy="914.2813" fill="#E2E2F0" rx="12" ry="12" style="stroke:#181818;stroke-width:0.5;"/></g><g class="participant participant-head" data-participant="UserModel"><text fill="#000000" font-family="sans-serif" font-size="14" lengthAdjust="spacing" text-decoration="underline" textLength="114.0439" x="712.7095" y="115.292">UtilisateurModel</text><ellipse cx="772.7314" cy="86.2969" fill="#E2E2F0" rx="12" ry="12" style="stroke:#181818;stroke-width:0.5;"/><line style="stroke:#181818;stroke-width:0.5;" x1="760.7314" x2="784.7314" y1="100.2969" y2="100.2969"/></g><g class="participant participant-tail" data-participant="UserModel"><text fill="#000000" font-family="sans-serif" font-size="14" lengthAdjust="spacing" text-decoration="underline" textLength="114.0439" x="712.7095" y="894.9795">UtilisateurModel</text><ellipse cx="772.7314" cy="914.2813" fill="#E2E2F0" rx="12" ry="12" style="stroke:#181818;stroke-width:0.5;"/><line style="stroke:#181818;stroke-width:0.5;" x1="760.7314" x2="784.7314" y1="928.2813" y2="928.2813"/></g><g class="participant participant-head" data-participant="DB"><text fill="#000000" font-family="sans-serif" font-size="14" lengthAdjust="spacing" text-decoration="underline" textLength="122.1035" x="976.6772" y="115.292">Base de Donn&#233;es</text><path d="M1022.729,66.2969 C1022.729,56.2969 1040.729,56.2969 1040.729,56.2969 C1040.729,56.2969 1058.729,56.2969 1058.729,66.2969 L1058.729,92.2969 C1058.729,102.2969 1040.729,102.2969 1040.729,102.2969 C1040.729,102.2969 1022.729,102.2969 1022.729,92.2969 L1022.729,66.2969" fill="#E2E2F0" style="stroke:#181818;stroke-width:1.5;"/><path d="M1022.729,66.2969 C1022.729,76.2969 1040.729,76.2969 1040.729,76.2969 C1040.729,76.2969 1058.729,76.2969 1058.729,66.2969" fill="none" style="stroke:#181818;stroke-width:1.5;"/></g><g class="participant participant-tail" data-participant="DB"><text fill="#000000" font-family="sans-serif" font-size="14" lengthAdjust="spacing" text-decoration="underline" textLength="122.1035" x="976.6772" y="894.9795">Base de Donn&#233;es</text><path d="M1022.729,908.2813 C1022.729,898.2813 1040.729,898.2813 1040.729,898.2813 C1040.729,898.2813 1058.729,898.2813 1058.729,908.2813 L1058.729,934.2813 C1058.729,944.2813 1040.729,944.2813 1040.729,944.2813 C1040.729,944.2813 1022.729,944.2813 1022.729,934.2813 L1022.729,908.2813" fill="#E2E2F0" style="stroke:#181818;stroke-width:1.5;"/><path d="M1022.729,908.2813 C1022.729,918.2813 1040.729,918.2813 1040.729,918.2813 C1040.729,918.2813 1058.729,918.2813 1058.729,908.2813" fill="none" style="stroke:#181818;stroke-width:1.5;"/></g><g class="participant participant-head" data-participant="Dashboard"><text fill="#000000" font-family="sans-serif" font-size="14" lengthAdjust="spacing" text-decoration="underline" textLength="145.373" x="1114.7808" y="115.292">DashboardController</text><path d="M1169.9673,74.2969 L1169.9673,98.2969 M1169.9673,86.2969 L1186.9673,86.2969" fill="none" style="stroke:#181818;stroke-width:0.5;"/><ellipse cx="1198.9673" cy="86.2969" fill="#E2E2F0" rx="12" ry="12" style="stroke:#181818;stroke-width:0.5;"/></g><g class="participant participant-tail" data-participant="Dashboard"><text fill="#000000" font-family="sans-serif" font-size="14" lengthAdjust="spacing" text-decoration="underline" textLength="145.373" x="1114.7808" y="894.9795">DashboardController</text><path d="M1169.9673,902.2813 L1169.9673,926.2813 M1169.9673,914.2813 L1186.9673,914.2813" fill="none" style="stroke:#181818;stroke-width:0.5;"/><ellipse cx="1198.9673" cy="914.2813" fill="#E2E2F0" rx="12" ry="12" style="stroke:#181818;stroke-width:0.5;"/></g><g class="message" data-participant-1="User" data-participant-2="Browser"><polygon fill="#181818" points="295.3184,145.7266,305.3184,149.7266,295.3184,153.7266,299.3184,149.7266" style="stroke:#181818;stroke-width:1;"/><line style="stroke:#181818;stroke-width:2;" x1="59.0049" x2="301.3184" y1="149.7266" y2="149.7266"/><text fill="#000000" font-family="sans-serif" font-size="13" lengthAdjust="spacing" textLength="193.959" x="66.0049" y="144.6606">Acc&#232;s &#224; la page de connexion</text></g><g class="message" data-participant-1="Browser" data-participant-2="Auth"><polygon fill="#181818" points="479.0508,174.8594,489.0508,178.8594,479.0508,182.8594,483.0508,178.8594" style="stroke:#181818;stroke-width:1;"/><line style="stroke:#181818;stroke-width:2;" x1="307.3184" x2="485.0508" y1="178.8594" y2="178.8594"/><text fill="#000000" font-family="sans-serif" font-size="13" lengthAdjust="spacing" textLength="66.4092" x="314.3184" y="173.7935">GET /login</text></g><g class="message" data-participant-1="Auth" data-participant-2="Browser"><polygon fill="#181818" points="318.3184,203.9922,308.3184,207.9922,318.3184,211.9922,314.3184,207.9922" style="stroke:#181818;stroke-width:1;"/><line style="stroke:#181818;stroke-width:2;" x1="312.3184" x2="490.0508" y1="207.9922" y2="207.9922"/><text fill="#000000" font-family="sans-serif" font-size="13" lengthAdjust="spacing" textLength="109.2876" x="324.3184" y="202.9263">Rendu login.twig</text></g><g class="message" data-participant-1="User" data-participant-2="Browser"><polygon fill="#181818" points="295.3184,233.125,305.3184,237.125,295.3184,241.125,299.3184,237.125" style="stroke:#181818;stroke-width:1;"/><line style="stroke:#181818;stroke-width:2;" x1="59.0049" x2="301.3184" y1="237.125" y2="237.125"/><text fill="#000000" font-family="sans-serif" font-size="13" lengthAdjust="spacing" textLength="142.5747" x="66.0049" y="232.0591">Saisie des identifiants</text></g><g class="message" data-participant-1="User" data-participant-2="Browser"><polygon fill="#181818" points="295.3184,262.2578,305.3184,266.2578,295.3184,270.2578,299.3184,266.2578" style="stroke:#181818;stroke-width:1;"/><line style="stroke:#181818;stroke-width:2;" x1="59.0049" x2="301.3184" y1="266.2578" y2="266.2578"/><text fill="#000000" font-family="sans-serif" font-size="13" lengthAdjust="spacing" textLength="149.5762" x="66.0049" y="261.1919">Clic sur "Se connecter"</text></g><g class="message" data-participant-1="Browser" data-participant-2="Auth"><polygon fill="#181818" points="479.0508,306.5234,489.0508,310.5234,479.0508,314.5234,483.0508,310.5234" style="stroke:#181818;stroke-width:1;"/><line style="stroke:#181818;stroke-width:2;" x1="307.3184" x2="485.0508" y1="310.5234" y2="310.5234"/><text fill="#000000" font-family="sans-serif" font-size="13" lengthAdjust="spacing" textLength="74.4453" x="314.3184" y="290.3247">POST /login</text><text fill="#000000" font-family="sans-serif" font-size="13" lengthAdjust="spacing" textLength="116.2065" x="314.3184" y="305.4575">(email, password)</text></g><g class="message" data-participant-1="Auth" data-participant-2="UserModel"><polygon fill="#181818" points="760.7314,335.6563,770.7314,339.6563,760.7314,343.6563,764.7314,339.6563" style="stroke:#181818;stroke-width:1;"/><line style="stroke:#181818;stroke-width:2;" x1="491.0508" x2="766.7314" y1="339.6563" y2="339.6563"/><text fill="#000000" font-family="sans-serif" font-size="13" lengthAdjust="spacing" textLength="198.9038" x="498.0508" y="334.5903">authenticate(email, password)</text></g><g class="message" data-participant-1="UserModel" data-participant-2="DB"><polygon fill="#181818" points="1028.729,379.9219,1038.729,383.9219,1028.729,387.9219,1032.729,383.9219" style="stroke:#181818;stroke-width:1;"/><line style="stroke:#181818;stroke-width:2;" x1="772.7314" x2="1034.729" y1="383.9219" y2="383.9219"/><text fill="#000000" font-family="sans-serif" font-size="13" lengthAdjust="spacing" textLength="178.1597" x="779.7314" y="363.7231">SELECT * FROM utilisateurs</text><text fill="#000000" font-family="sans-serif" font-size="13" lengthAdjust="spacing" textLength="243.9976" x="779.7314" y="378.856">WHERE email = ? AND statut = 'actif'</text></g><g class="message" data-participant-1="DB" data-participant-2="UserModel"><polygon fill="#181818" points="783.7314,409.0547,773.7314,413.0547,783.7314,417.0547,779.7314,413.0547" style="stroke:#181818;stroke-width:1;"/><line style="stroke:#181818;stroke-width:2;stroke-dasharray:2.0,2.0;" x1="777.7314" x2="1039.729" y1="413.0547" y2="413.0547"/><text fill="#000000" font-family="sans-serif" font-size="13" lengthAdjust="spacing" textLength="126.9341" x="789.7314" y="407.9888">Donn&#233;es utilisateur</text></g><g class="message" data-participant-1="UserModel" data-participant-2="UserModel"><line style="stroke:#181818;stroke-width:2;" x1="772.7314" x2="814.7314" y1="457.3203" y2="457.3203"/><line style="stroke:#181818;stroke-width:2;" x1="814.7314" x2="814.7314" y1="457.3203" y2="470.3203"/><line style="stroke:#181818;stroke-width:2;" x1="773.7314" x2="814.7314" y1="470.3203" y2="470.3203"/><polygon fill="#181818" points="783.7314,466.3203,773.7314,470.3203,783.7314,474.3203,779.7314,470.3203" style="stroke:#181818;stroke-width:1;"/><text fill="#000000" font-family="sans-serif" font-size="13" lengthAdjust="spacing" textLength="166.1753" x="779.7314" y="437.1216">V&#233;rification mot de passe</text><text fill="#000000" font-family="sans-serif" font-size="13" lengthAdjust="spacing" textLength="115.5083" x="779.7314" y="452.2544">(password_verify)</text></g><path d="M12.5,485.3203 L74.4429,485.3203 L74.4429,492.4531 L64.4429,502.4531 L10,502.4531 L10,487.8203 A2.5,2.5 0 0 1 12.5,485.3203" fill="#EEEEEE" style="stroke:#000000;stroke-width:1.5;"/><rect fill="none" height="380.6641" rx="2.5" ry="2.5" style="stroke:#000000;stroke-width:1.5;" width="1453.7417" x="10" y="485.3203"/><text fill="#000000" font-family="sans-serif" font-size="13" font-weight="bold" lengthAdjust="spacing" textLength="19.4429" x="25" y="498.3872">alt</text><text fill="#000000" font-family="sans-serif" font-size="11" font-weight="bold" lengthAdjust="spacing" textLength="159.5967" x="89.4429" y="497.5308">[Authentification r&#233;ussie]</text><g class="message" data-participant-1="UserModel" data-participant-2="Auth"><polygon fill="#181818" points="502.0508,519.5859,492.0508,523.5859,502.0508,527.5859,498.0508,523.5859" style="stroke:#181818;stroke-width:1;"/><line style="stroke:#181818;stroke-width:2;stroke-dasharray:2.0,2.0;" x1="496.0508" x2="771.7314" y1="523.5859" y2="523.5859"/><text fill="#000000" font-family="sans-serif" font-size="13" lengthAdjust="spacing" textLength="160.1196" x="508.0508" y="518.52">true, donn&#233;es utilisateur</text></g><g class="message" data-participant-1="Auth" data-participant-2="Auth"><line style="stroke:#181818;stroke-width:2;" x1="491.0508" x2="533.0508" y1="567.8516" y2="567.8516"/><line style="stroke:#181818;stroke-width:2;" x1="533.0508" x2="533.0508" y1="567.8516" y2="580.8516"/><line style="stroke:#181818;stroke-width:2;" x1="492.0508" x2="533.0508" y1="580.8516" y2="580.8516"/><polygon fill="#181818" points="502.0508,576.8516,492.0508,580.8516,502.0508,584.8516,498.0508,580.8516" style="stroke:#181818;stroke-width:1;"/><text fill="#000000" font-family="sans-serif" font-size="13" lengthAdjust="spacing" textLength="107.542" x="498.0508" y="547.6528">Cr&#233;ation session</text><text fill="#000000" font-family="sans-serif" font-size="13" lengthAdjust="spacing" textLength="267.6807" x="498.0508" y="562.7856">($_SESSION['user_id'], $_SESSION['role'])</text></g><g class="message" data-participant-1="Auth" data-participant-2="Browser"><polygon fill="#181818" points="318.3184,621.1172,308.3184,625.1172,318.3184,629.1172,314.3184,625.1172" style="stroke:#181818;stroke-width:1;"/><line style="stroke:#181818;stroke-width:2;" x1="312.3184" x2="490.0508" y1="625.1172" y2="625.1172"/><text fill="#000000" font-family="sans-serif" font-size="13" lengthAdjust="spacing" textLength="113.3755" x="324.3184" y="604.9185">Redirection (302)</text><text fill="#000000" font-family="sans-serif" font-size="13" lengthAdjust="spacing" textLength="100.9404" x="324.3184" y="620.0513">vers dashboard</text></g><g class="message" data-participant-1="Browser" data-participant-2="Dashboard"><polygon fill="#181818" points="1178.4673,650.25,1188.4673,654.25,1178.4673,658.25,1182.4673,654.25" style="stroke:#181818;stroke-width:1;"/><line style="stroke:#181818;stroke-width:2;" x1="307.3184" x2="1184.4673" y1="654.25" y2="654.25"/><text fill="#000000" font-family="sans-serif" font-size="13" lengthAdjust="spacing" textLength="103.7397" x="314.3184" y="649.1841">GET /dashboard</text></g><g class="message" data-participant-1="Dashboard" data-participant-2="Dashboard"><line style="stroke:#181818;stroke-width:2;" x1="1190.4673" x2="1232.4673" y1="698.5156" y2="698.5156"/><line style="stroke:#181818;stroke-width:2;" x1="1232.4673" x2="1232.4673" y1="698.5156" y2="711.5156"/><line style="stroke:#181818;stroke-width:2;" x1="1191.4673" x2="1232.4673" y1="711.5156" y2="711.5156"/><polygon fill="#181818" points="1201.4673,707.5156,1191.4673,711.5156,1201.4673,715.5156,1197.4673,711.5156" style="stroke:#181818;stroke-width:1;"/><text fill="#000000" font-family="sans-serif" font-size="13" lengthAdjust="spacing" textLength="126.3057" x="1197.4673" y="678.3169">V&#233;rification session</text><text fill="#000000" font-family="sans-serif" font-size="13" lengthAdjust="spacing" textLength="254.2744" x="1197.4673" y="693.4497">Chargement donn&#233;es adapt&#233;es au r&#244;le</text></g><g class="message" data-participant-1="Dashboard" data-participant-2="Browser"><polygon fill="#181818" points="318.3184,736.6484,308.3184,740.6484,318.3184,744.6484,314.3184,740.6484" style="stroke:#181818;stroke-width:1;"/><line style="stroke:#181818;stroke-width:2;" x1="312.3184" x2="1189.4673" y1="740.6484" y2="740.6484"/><text fill="#000000" font-family="sans-serif" font-size="13" lengthAdjust="spacing" textLength="146.6182" x="324.3184" y="735.5825">Rendu dashboard.twig</text></g><line style="stroke:#000000;stroke-width:1;stroke-dasharray:2.0,2.0;" x1="10" x2="1463.7417" y1="749.6484" y2="749.6484"/><text fill="#000000" font-family="sans-serif" font-size="11" font-weight="bold" lengthAdjust="spacing" textLength="160.5527" x="15" y="759.8589">[&#201;chec d'authentification]</text><g class="message" data-participant-1="UserModel" data-participant-2="Auth"><polygon fill="#181818" points="502.0508,780.5859,492.0508,784.5859,502.0508,788.5859,498.0508,784.5859" style="stroke:#181818;stroke-width:1;"/><line style="stroke:#181818;stroke-width:2;stroke-dasharray:2.0,2.0;" x1="496.0508" x2="771.7314" y1="784.5859" y2="784.5859"/><text fill="#000000" font-family="sans-serif" font-size="13" lengthAdjust="spacing" textLength="30.9258" x="508.0508" y="779.52">false</text></g><g class="message" data-participant-1="Auth" data-participant-2="Browser"><polygon fill="#181818" points="318.3184,824.8516,308.3184,828.8516,318.3184,832.8516,314.3184,828.8516" style="stroke:#181818;stroke-width:1;"/><line style="stroke:#181818;stroke-width:2;" x1="312.3184" x2="490.0508" y1="828.8516" y2="828.8516"/><text fill="#000000" font-family="sans-serif" font-size="13" lengthAdjust="spacing" textLength="109.2876" x="324.3184" y="808.6528">Rendu login.twig</text><text fill="#000000" font-family="sans-serif" font-size="13" lengthAdjust="spacing" textLength="159.7324" x="324.3184" y="823.7856">(avec message d'erreur)</text></g><g class="message" data-participant-1="Browser" data-participant-2="User"><polygon fill="#181818" points="70.0049,853.9844,60.0049,857.9844,70.0049,861.9844,66.0049,857.9844" style="stroke:#181818;stroke-width:1;"/><line style="stroke:#181818;stroke-width:2;" x1="64.0049" x2="306.3184" y1="857.9844" y2="857.9844"/><text fill="#000000" font-family="sans-serif" font-size="13" lengthAdjust="spacing" textLength="224.3135" x="76.0049" y="852.9185">Affichage erreur d'authentification</text></g><!--SRC=[VLJRRjD047tVhnW593Ue1LJK5oH0kPYBr9lg5XveLKtNasJLpJhihblw2Vm5Z-ITF_2FCMl7ZfscMCh5wpDppfoPiRjLPe4Mv-3eHqv6qi3QxFvyfkIj8UTWNxW6OhFSf3ApXYmSjCxhq5EqNacrGEE1aMIrChG5TwWc_34qp2o3HfdEB3mxAA__eL7UJai9guYul8Jmock2tbZXbEFc12b1KYohQDY3GUvdPBoQA8bUPQOd14hF6NeNNcdbq5DkUu0EBXnPiMXLqJl6EpLT0uRiJS3S11be7w0NaeyousscDLMWS2G2eN_eK1nbAUc6fxmJANgyGSVoX-6RbOypOuebkH8u7hQenkXcDndQT8ElEHSY98QzzxLEU0i3AOi_3ehVe14ME2qv97FGJxP2r42E2R8vu5Dy3gzqDbL6b2UTR6TaqXpAfo_zlPfkOqnGEHLe7AYqyfsjT5kG8wqak9mRaQmqISyrRH5rUfBKgYxD3irHwLsknhbx7g6-Q9Gsnd8ChjhEJQV78MiaXus7GNTy68_EuGLyF3ivWdpTDtTfldsEps8eay0x-023up4uZpxtV1lnDAb993ZBteQ6kfdjT5tgDlfhiRJDbC8yyw5NGJ9nqRNqwpjYq0CNZTe_ccsmnJ9txBy0lbfCQo-zpMaNqctAGanjvGezueHLPiUl0_vbAS-lapX9lfmSVuzoPhXMQNIr2wrJ7awAhlgTVEqXIfNbLeUaEszUx_Sl3TVa86tcECIrXg0Py7eykyZrumriryz6_sY6Tafpjctj0gQuyDM_d3tyg-bnwiqrQ5HKgq2Q5xZu9MSa8Ormep5FzsE27FYaLTrzO_FnZlFFkPPoboEobZlNtxJiOhNz4-QV1MI5soQCAVu1]--></g></svg>