<svg xmlns="http://www.w3.org/2000/svg" xmlns:xlink="http://www.w3.org/1999/xlink" contentStyleType="text/css" data-diagram-type="SEQUENCE" height="1427px" preserveAspectRatio="none" style="width:1260px;height:1427px;background:#FFFFFF;" version="1.1" viewBox="0 0 1260 1427" width="1260px" zoomAndPan="magnify"><title>Diagramme de S&#233;quence - Gestion Wishlist</title><defs/><g><text fill="#000000" font-family="sans-serif" font-size="14" font-weight="bold" lengthAdjust="spacing" textLength="340.9902" x="461.4067" y="27.9951">Diagramme de S&#233;quence - Gestion Wishlist</text><rect fill="none" height="782" rx="2.5" ry="2.5" style="stroke:#000000;stroke-width:1.5;" width="1244.8037" x="10" y="135.5938"/><rect fill="none" height="650.4688" rx="2.5" ry="2.5" style="stroke:#000000;stroke-width:1.5;" width="1224.8037" x="20" y="260.125"/><rect fill="none" height="237" rx="2.5" ry="2.5" style="stroke:#000000;stroke-width:1.5;" width="717.415" x="517.3887" y="459.8594"/><rect fill="none" height="163.6016" rx="2.5" ry="2.5" style="stroke:#000000;stroke-width:1.5;" width="637.0234" x="30" y="739.9922"/><rect fill="none" height="397.6641" rx="2.5" ry="2.5" style="stroke:#000000;stroke-width:1.5;" width="1224.8037" x="20" y="931.5938"/><rect fill="none" height="266.1328" rx="2.5" ry="2.5" style="stroke:#000000;stroke-width:1.5;" width="1204.8037" x="30" y="1056.125"/><g><title>&lt;u&gt;Candidat</title><rect fill="#000000" fill-opacity="0.00000" height="1227.6641" width="8" x="70.4795" y="118.5938"/><line style="stroke:#555555;stroke-width:0.5;stroke-dasharray:5.0,5.0;" x1="74" x2="74" y1="118.5938" y2="1346.2578"/></g><g><title>&lt;u&gt;Navigateur</title><rect fill="#000000" fill-opacity="0.00000" height="1227.6641" width="8" x="342.9204" y="118.5938"/><line style="stroke:#555555;stroke-width:0.5;stroke-dasharray:5.0,5.0;" x1="346.2085" x2="346.2085" y1="118.5938" y2="1346.2578"/></g><g><title>&lt;u&gt;WishlistController</title><rect fill="#000000" fill-opacity="0.00000" height="1227.6641" width="8" x="588.2061" y="118.5938"/><line style="stroke:#555555;stroke-width:0.5;stroke-dasharray:5.0,5.0;" x1="591.3887" x2="591.3887" y1="118.5938" y2="1346.2578"/></g><g><title>&lt;u&gt;OffreModel</title><rect fill="#000000" fill-opacity="0.00000" height="1227.6641" width="8" x="858.7554" y="118.5938"/><line style="stroke:#555555;stroke-width:0.5;stroke-dasharray:5.0,5.0;" x1="862.1152" x2="862.1152" y1="118.5938" y2="1346.2578"/></g><g><title>&lt;u&gt;Base de Donn&#233;es</title><rect fill="#000000" fill-opacity="0.00000" height="1227.6641" width="8" x="1156.752" y="118.5938"/><line style="stroke:#555555;stroke-width:0.5;stroke-dasharray:5.0,5.0;" x1="1160.7002" x2="1160.7002" y1="118.5938" y2="1346.2578"/></g><g class="participant participant-head" data-participant="User"><text fill="#000000" font-family="sans-serif" font-size="14" lengthAdjust="spacing" text-decoration="underline" textLength="62.959" x="40" y="115.292">Candidat</text><ellipse cx="74.4795" cy="50.7969" fill="#E2E2F0" rx="8" ry="8" style="stroke:#181818;stroke-width:0.5;"/><path d="M74.4795,58.7969 L74.4795,85.7969 M61.4795,66.7969 L87.4795,66.7969 M74.4795,85.7969 L61.4795,100.7969 M74.4795,85.7969 L87.4795,100.7969" fill="none" style="stroke:#181818;stroke-width:0.5;"/></g><g class="participant participant-tail" data-participant="User"><text fill="#000000" font-family="sans-serif" font-size="14" lengthAdjust="spacing" text-decoration="underline" textLength="62.959" x="40" y="1358.2529">Candidat</text><ellipse cx="74.4795" cy="1370.0547" fill="#E2E2F0" rx="8" ry="8" style="stroke:#181818;stroke-width:0.5;"/><path d="M74.4795,1378.0547 L74.4795,1405.0547 M61.4795,1386.0547 L87.4795,1386.0547 M74.4795,1405.0547 L61.4795,1420.0547 M74.4795,1405.0547 L87.4795,1420.0547" fill="none" style="stroke:#181818;stroke-width:0.5;"/></g><g class="participant participant-head" data-participant="Browser"><rect fill="#E2E2F0" height="30.2969" rx="2.5" ry="2.5" style="stroke:#181818;stroke-width:0.5;" width="91.4238" x="301.2085" y="87.2969"/><text fill="#000000" font-family="sans-serif" font-size="14" lengthAdjust="spacing" text-decoration="underline" textLength="77.4238" x="308.2085" y="107.292">Navigateur</text></g><g class="participant participant-tail" data-participant="Browser"><rect fill="#E2E2F0" height="30.2969" rx="2.5" ry="2.5" style="stroke:#181818;stroke-width:0.5;" width="91.4238" x="301.2085" y="1345.2578"/><text fill="#000000" font-family="sans-serif" font-size="14" lengthAdjust="spacing" text-decoration="underline" textLength="77.4238" x="308.2085" y="1365.2529">Navigateur</text></g><g class="participant participant-head" data-participant="WishCtrl"><text fill="#000000" font-family="sans-serif" font-size="14" lengthAdjust="spacing" text-decoration="underline" textLength="123.6348" x="527.3887" y="115.292">WishlistController</text><path d="M571.7061,74.2969 L571.7061,98.2969 M571.7061,86.2969 L588.7061,86.2969" fill="none" style="stroke:#181818;stroke-width:0.5;"/><ellipse cx="600.7061" cy="86.2969" fill="#E2E2F0" rx="12" ry="12" style="stroke:#181818;stroke-width:0.5;"/></g><g class="participant participant-tail" data-participant="WishCtrl"><text fill="#000000" font-family="sans-serif" font-size="14" lengthAdjust="spacing" text-decoration="underline" textLength="123.6348" x="527.3887" y="1358.2529">WishlistController</text><path d="M571.7061,1365.5547 L571.7061,1389.5547 M571.7061,1377.5547 L588.7061,1377.5547" fill="none" style="stroke:#181818;stroke-width:0.5;"/><ellipse cx="600.7061" cy="1377.5547" fill="#E2E2F0" rx="12" ry="12" style="stroke:#181818;stroke-width:0.5;"/></g><g class="participant participant-head" data-participant="OffreModel"><text fill="#000000" font-family="sans-serif" font-size="14" lengthAdjust="spacing" text-decoration="underline" textLength="77.2803" x="821.1152" y="115.292">OffreModel</text><ellipse cx="862.7554" cy="86.2969" fill="#E2E2F0" rx="12" ry="12" style="stroke:#181818;stroke-width:0.5;"/><line style="stroke:#181818;stroke-width:0.5;" x1="850.7554" x2="874.7554" y1="100.2969" y2="100.2969"/></g><g class="participant participant-tail" data-participant="OffreModel"><text fill="#000000" font-family="sans-serif" font-size="14" lengthAdjust="spacing" text-decoration="underline" textLength="77.2803" x="821.1152" y="1358.2529">OffreModel</text><ellipse cx="862.7554" cy="1377.5547" fill="#E2E2F0" rx="12" ry="12" style="stroke:#181818;stroke-width:0.5;"/><line style="stroke:#181818;stroke-width:0.5;" x1="850.7554" x2="874.7554" y1="1391.5547" y2="1391.5547"/></g><g class="participant participant-head" data-participant="DB"><text fill="#000000" font-family="sans-serif" font-size="14" lengthAdjust="spacing" text-decoration="underline" textLength="122.1035" x="1096.7002" y="115.292">Base de Donn&#233;es</text><path d="M1142.752,66.2969 C1142.752,56.2969 1160.752,56.2969 1160.752,56.2969 C1160.752,56.2969 1178.752,56.2969 1178.752,66.2969 L1178.752,92.2969 C1178.752,102.2969 1160.752,102.2969 1160.752,102.2969 C1160.752,102.2969 1142.752,102.2969 1142.752,92.2969 L1142.752,66.2969" fill="#E2E2F0" style="stroke:#181818;stroke-width:1.5;"/><path d="M1142.752,66.2969 C1142.752,76.2969 1160.752,76.2969 1160.752,76.2969 C1160.752,76.2969 1178.752,76.2969 1178.752,66.2969" fill="none" style="stroke:#181818;stroke-width:1.5;"/></g><g class="participant participant-tail" data-participant="DB"><text fill="#000000" font-family="sans-serif" font-size="14" lengthAdjust="spacing" text-decoration="underline" textLength="122.1035" x="1096.7002" y="1358.2529">Base de Donn&#233;es</text><path d="M1142.752,1371.5547 C1142.752,1361.5547 1160.752,1361.5547 1160.752,1361.5547 C1160.752,1361.5547 1178.752,1361.5547 1178.752,1371.5547 L1178.752,1397.5547 C1178.752,1407.5547 1160.752,1407.5547 1160.752,1407.5547 C1160.752,1407.5547 1142.752,1407.5547 1142.752,1397.5547 L1142.752,1371.5547" fill="#E2E2F0" style="stroke:#181818;stroke-width:1.5;"/><path d="M1142.752,1371.5547 C1142.752,1381.5547 1160.752,1381.5547 1160.752,1381.5547 C1160.752,1381.5547 1178.752,1381.5547 1178.752,1371.5547" fill="none" style="stroke:#181818;stroke-width:1.5;"/></g><path d="M12.5,135.5938 L290.8091,135.5938 L290.8091,142.7266 L280.8091,152.7266 L10,152.7266 L10,138.0938 A2.5,2.5 0 0 1 12.5,135.5938" fill="#EEEEEE" style="stroke:#000000;stroke-width:1.5;"/><rect fill="none" height="782" rx="2.5" ry="2.5" style="stroke:#000000;stroke-width:1.5;" width="1244.8037" x="10" y="135.5938"/><text fill="#000000" font-family="sans-serif" font-size="13" font-weight="bold" lengthAdjust="spacing" textLength="235.8091" x="25" y="148.6606">Ajout/Retrait offre de la wishlist</text><g class="message" data-participant-1="User" data-participant-2="Browser"><polygon fill="#181818" points="334.9204,169.8594,344.9204,173.8594,334.9204,177.8594,338.9204,173.8594" style="stroke:#181818;stroke-width:1;"/><line style="stroke:#181818;stroke-width:2;" x1="74.4795" x2="340.9204" y1="173.8594" y2="173.8594"/><text fill="#000000" font-family="sans-serif" font-size="13" lengthAdjust="spacing" textLength="201.6841" x="81.4795" y="168.7935">Clic sur ic&#244;ne "&#10084;" sur une offre</text></g><g class="message" data-participant-1="Browser" data-participant-2="WishCtrl"><polygon fill="#181818" points="580.2061,198.9922,590.2061,202.9922,580.2061,206.9922,584.2061,202.9922" style="stroke:#181818;stroke-width:1;"/><line style="stroke:#181818;stroke-width:2;" x1="346.9204" x2="586.2061" y1="202.9922" y2="202.9922"/><text fill="#000000" font-family="sans-serif" font-size="13" lengthAdjust="spacing" textLength="206.4067" x="353.9204" y="197.9263">POST /wishlist/toggle/{offre_id}</text></g><g class="message" data-participant-1="WishCtrl" data-participant-2="WishCtrl"><line style="stroke:#181818;stroke-width:2;" x1="592.2061" x2="634.2061" y1="232.125" y2="232.125"/><line style="stroke:#181818;stroke-width:2;" x1="634.2061" x2="634.2061" y1="232.125" y2="245.125"/><line style="stroke:#181818;stroke-width:2;" x1="593.2061" x2="634.2061" y1="245.125" y2="245.125"/><polygon fill="#181818" points="603.2061,241.125,593.2061,245.125,603.2061,249.125,599.2061,245.125" style="stroke:#181818;stroke-width:1;"/><text fill="#000000" font-family="sans-serif" font-size="13" lengthAdjust="spacing" textLength="126.3057" x="599.2061" y="227.0591">V&#233;rification session</text></g><path d="M22.5,260.125 L84.4429,260.125 L84.4429,267.2578 L74.4429,277.2578 L20,277.2578 L20,262.625 A2.5,2.5 0 0 1 22.5,260.125" fill="#EEEEEE" style="stroke:#000000;stroke-width:1.5;"/><rect fill="none" height="650.4688" rx="2.5" ry="2.5" style="stroke:#000000;stroke-width:1.5;" width="1224.8037" x="20" y="260.125"/><text fill="#000000" font-family="sans-serif" font-size="13" font-weight="bold" lengthAdjust="spacing" textLength="19.4429" x="35" y="273.1919">alt</text><text fill="#000000" font-family="sans-serif" font-size="11" font-weight="bold" lengthAdjust="spacing" textLength="107.1587" x="99.4429" y="272.3354">[Non authentifi&#233;]</text><g class="message" data-participant-1="WishCtrl" data-participant-2="Browser"><polygon fill="#181818" points="357.9204,294.3906,347.9204,298.3906,357.9204,302.3906,353.9204,298.3906" style="stroke:#181818;stroke-width:1;"/><line style="stroke:#181818;stroke-width:2;" x1="351.9204" x2="591.2061" y1="298.3906" y2="298.3906"/><text fill="#000000" font-family="sans-serif" font-size="13" lengthAdjust="spacing" textLength="142.0288" x="363.9204" y="293.3247">Redirection vers login</text></g><line style="stroke:#000000;stroke-width:1;stroke-dasharray:2.0,2.0;" x1="20" x2="1244.8037" y1="307.3906" y2="307.3906"/><text fill="#000000" font-family="sans-serif" font-size="11" font-weight="bold" lengthAdjust="spacing" textLength="79.8252" x="25" y="317.6011">[Authentifi&#233;]</text><g class="message" data-participant-1="WishCtrl" data-participant-2="OffreModel"><polygon fill="#181818" points="850.7554,338.3281,860.7554,342.3281,850.7554,346.3281,854.7554,342.3281" style="stroke:#181818;stroke-width:1;"/><line style="stroke:#181818;stroke-width:2;" x1="592.2061" x2="856.7554" y1="342.3281" y2="342.3281"/><text fill="#000000" font-family="sans-serif" font-size="13" lengthAdjust="spacing" textLength="191.6865" x="599.2061" y="337.2622">isOffreLiked(user_id, offre_id)</text></g><g class="message" data-participant-1="OffreModel" data-participant-2="DB"><polygon fill="#181818" points="1148.752,382.5938,1158.752,386.5938,1148.752,390.5938,1152.752,386.5938" style="stroke:#181818;stroke-width:1;"/><line style="stroke:#181818;stroke-width:2;" x1="862.7554" x2="1154.752" y1="386.5938" y2="386.5938"/><text fill="#000000" font-family="sans-serif" font-size="13" lengthAdjust="spacing" textLength="154.1465" x="869.7554" y="366.395">SELECT * FROM wishlist</text><text fill="#000000" font-family="sans-serif" font-size="13" lengthAdjust="spacing" textLength="273.9966" x="869.7554" y="381.5278">WHERE utilisateur_id = ? AND offre_id = ?</text></g><g class="message" data-participant-1="DB" data-participant-2="OffreModel"><polygon fill="#181818" points="873.7554,411.7266,863.7554,415.7266,873.7554,419.7266,869.7554,415.7266" style="stroke:#181818;stroke-width:1;"/><line style="stroke:#181818;stroke-width:2;stroke-dasharray:2.0,2.0;" x1="867.7554" x2="1159.752" y1="415.7266" y2="415.7266"/><text fill="#000000" font-family="sans-serif" font-size="13" lengthAdjust="spacing" textLength="108.875" x="879.7554" y="410.6606">R&#233;sultat requ&#234;te</text></g><g class="message" data-participant-1="OffreModel" data-participant-2="WishCtrl"><polygon fill="#181818" points="603.2061,440.8594,593.2061,444.8594,603.2061,448.8594,599.2061,444.8594" style="stroke:#181818;stroke-width:1;"/><line style="stroke:#181818;stroke-width:2;stroke-dasharray:2.0,2.0;" x1="597.2061" x2="861.7554" y1="444.8594" y2="444.8594"/><text fill="#000000" font-family="sans-serif" font-size="13" lengthAdjust="spacing" textLength="135.1543" x="609.2061" y="439.7935">Statut (aim&#233; ou non)</text></g><path d="M519.8887,459.8594 L581.8315,459.8594 L581.8315,466.9922 L571.8315,476.9922 L517.3887,476.9922 L517.3887,462.3594 A2.5,2.5 0 0 1 519.8887,459.8594" fill="#EEEEEE" style="stroke:#000000;stroke-width:1.5;"/><rect fill="none" height="237" rx="2.5" ry="2.5" style="stroke:#000000;stroke-width:1.5;" width="717.415" x="517.3887" y="459.8594"/><text fill="#000000" font-family="sans-serif" font-size="13" font-weight="bold" lengthAdjust="spacing" textLength="19.4429" x="532.3887" y="472.9263">alt</text><text fill="#000000" font-family="sans-serif" font-size="11" font-weight="bold" lengthAdjust="spacing" textLength="142.8281" x="596.8315" y="472.0698">[Offre d&#233;j&#224; en wishlist]</text><g class="message" data-participant-1="WishCtrl" data-participant-2="OffreModel"><polygon fill="#181818" points="850.7554,494.125,860.7554,498.125,850.7554,502.125,854.7554,498.125" style="stroke:#181818;stroke-width:1;"/><line style="stroke:#181818;stroke-width:2;" x1="592.2061" x2="856.7554" y1="498.125" y2="498.125"/><text fill="#000000" font-family="sans-serif" font-size="13" lengthAdjust="spacing" textLength="246.5493" x="599.2061" y="493.0591">toggleLike(user_id, offre_id, 'remove')</text></g><g class="message" data-participant-1="OffreModel" data-participant-2="DB"><polygon fill="#181818" points="1148.752,538.3906,1158.752,542.3906,1148.752,546.3906,1152.752,542.3906" style="stroke:#181818;stroke-width:1;"/><line style="stroke:#181818;stroke-width:2;" x1="862.7554" x2="1154.752" y1="542.3906" y2="542.3906"/><text fill="#000000" font-family="sans-serif" font-size="13" lengthAdjust="spacing" textLength="144.4092" x="869.7554" y="522.1919">DELETE FROM wishlist</text><text fill="#000000" font-family="sans-serif" font-size="13" lengthAdjust="spacing" textLength="273.9966" x="869.7554" y="537.3247">WHERE utilisateur_id = ? AND offre_id = ?</text></g><g class="message" data-participant-1="DB" data-participant-2="OffreModel"><polygon fill="#181818" points="873.7554,567.5234,863.7554,571.5234,873.7554,575.5234,869.7554,571.5234" style="stroke:#181818;stroke-width:1;"/><line style="stroke:#181818;stroke-width:2;stroke-dasharray:2.0,2.0;" x1="867.7554" x2="1159.752" y1="571.5234" y2="571.5234"/><text fill="#000000" font-family="sans-serif" font-size="13" lengthAdjust="spacing" textLength="166.6768" x="879.7554" y="566.4575">Confirmation suppression</text></g><line style="stroke:#000000;stroke-width:1;stroke-dasharray:2.0,2.0;" x1="517.3887" x2="1234.8037" y1="580.5234" y2="580.5234"/><text fill="#000000" font-family="sans-serif" font-size="11" font-weight="bold" lengthAdjust="spacing" textLength="184.2285" x="522.3887" y="590.7339">[Offre pas encore en wishlist]</text><g class="message" data-participant-1="WishCtrl" data-participant-2="OffreModel"><polygon fill="#181818" points="850.7554,611.4609,860.7554,615.4609,850.7554,619.4609,854.7554,615.4609" style="stroke:#181818;stroke-width:1;"/><line style="stroke:#181818;stroke-width:2;" x1="592.2061" x2="856.7554" y1="615.4609" y2="615.4609"/><text fill="#000000" font-family="sans-serif" font-size="13" lengthAdjust="spacing" textLength="221.3682" x="599.2061" y="610.395">toggleLike(user_id, offre_id, 'add')</text></g><g class="message" data-participant-1="OffreModel" data-participant-2="DB"><polygon fill="#181818" points="1148.752,655.7266,1158.752,659.7266,1148.752,663.7266,1152.752,659.7266" style="stroke:#181818;stroke-width:1;"/><line style="stroke:#181818;stroke-width:2;" x1="862.7554" x2="1154.752" y1="659.7266" y2="659.7266"/><text fill="#000000" font-family="sans-serif" font-size="13" lengthAdjust="spacing" textLength="135.3447" x="869.7554" y="639.5278">INSERT INTO wishlist</text><text fill="#000000" font-family="sans-serif" font-size="13" lengthAdjust="spacing" textLength="228.1221" x="869.7554" y="654.6606">(utilisateur_id, offre_id, date_ajout)</text></g><g class="message" data-participant-1="DB" data-participant-2="OffreModel"><polygon fill="#181818" points="873.7554,684.8594,863.7554,688.8594,873.7554,692.8594,869.7554,688.8594" style="stroke:#181818;stroke-width:1;"/><line style="stroke:#181818;stroke-width:2;stroke-dasharray:2.0,2.0;" x1="867.7554" x2="1159.752" y1="688.8594" y2="688.8594"/><text fill="#000000" font-family="sans-serif" font-size="13" lengthAdjust="spacing" textLength="121.3354" x="879.7554" y="683.7935">Confirmation ajout</text></g><g class="message" data-participant-1="OffreModel" data-participant-2="WishCtrl"><polygon fill="#181818" points="603.2061,720.9922,593.2061,724.9922,603.2061,728.9922,599.2061,724.9922" style="stroke:#181818;stroke-width:1;"/><line style="stroke:#181818;stroke-width:2;stroke-dasharray:2.0,2.0;" x1="597.2061" x2="861.7554" y1="724.9922" y2="724.9922"/><text fill="#000000" font-family="sans-serif" font-size="13" lengthAdjust="spacing" textLength="100.2168" x="609.2061" y="719.9263">Nouveau statut</text></g><path d="M32.5,739.9922 L94.4429,739.9922 L94.4429,747.125 L84.4429,757.125 L30,757.125 L30,742.4922 A2.5,2.5 0 0 1 32.5,739.9922" fill="#EEEEEE" style="stroke:#000000;stroke-width:1.5;"/><rect fill="none" height="163.6016" rx="2.5" ry="2.5" style="stroke:#000000;stroke-width:1.5;" width="637.0234" x="30" y="739.9922"/><text fill="#000000" font-family="sans-serif" font-size="13" font-weight="bold" lengthAdjust="spacing" textLength="19.4429" x="45" y="753.0591">alt</text><text fill="#000000" font-family="sans-serif" font-size="11" font-weight="bold" lengthAdjust="spacing" textLength="95.2993" x="109.4429" y="752.2026">[Requ&#234;te AJAX]</text><g class="message" data-participant-1="WishCtrl" data-participant-2="Browser"><polygon fill="#181818" points="357.9204,789.3906,347.9204,793.3906,357.9204,797.3906,353.9204,793.3906" style="stroke:#181818;stroke-width:1;"/><line style="stroke:#181818;stroke-width:2;" x1="351.9204" x2="591.2061" y1="793.3906" y2="793.3906"/><text fill="#000000" font-family="sans-serif" font-size="13" lengthAdjust="spacing" textLength="92.4219" x="363.9204" y="773.1919">R&#233;ponse JSON</text><text fill="#000000" font-family="sans-serif" font-size="13" lengthAdjust="spacing" textLength="108.875" x="363.9204" y="788.3247">(nouveau statut)</text></g><g class="message" data-participant-1="Browser" data-participant-2="User"><polygon fill="#181818" points="85.4795,818.5234,75.4795,822.5234,85.4795,826.5234,81.4795,822.5234" style="stroke:#181818;stroke-width:1;"/><line style="stroke:#181818;stroke-width:2;" x1="79.4795" x2="345.9204" y1="822.5234" y2="822.5234"/><text fill="#000000" font-family="sans-serif" font-size="13" lengthAdjust="spacing" textLength="163.7314" x="91.4795" y="817.4575">Mise &#224; jour visuelle ic&#244;ne</text></g><line style="stroke:#000000;stroke-width:1;stroke-dasharray:2.0,2.0;" x1="30" x2="667.0234" y1="831.5234" y2="831.5234"/><text fill="#000000" font-family="sans-serif" font-size="11" font-weight="bold" lengthAdjust="spacing" textLength="121.3545" x="35" y="841.7339">[Requ&#234;te standard]</text><g class="message" data-participant-1="WishCtrl" data-participant-2="Browser"><polygon fill="#181818" points="357.9204,862.4609,347.9204,866.4609,357.9204,870.4609,353.9204,866.4609" style="stroke:#181818;stroke-width:1;"/><line style="stroke:#181818;stroke-width:2;" x1="351.9204" x2="591.2061" y1="866.4609" y2="866.4609"/><text fill="#000000" font-family="sans-serif" font-size="13" lengthAdjust="spacing" textLength="221.2856" x="363.9204" y="861.395">Redirection vers page pr&#233;c&#233;dente</text></g><g class="message" data-participant-1="Browser" data-participant-2="User"><polygon fill="#181818" points="85.4795,891.5938,75.4795,895.5938,85.4795,899.5938,81.4795,895.5938" style="stroke:#181818;stroke-width:1;"/><line style="stroke:#181818;stroke-width:2;" x1="79.4795" x2="345.9204" y1="895.5938" y2="895.5938"/><text fill="#000000" font-family="sans-serif" font-size="13" lengthAdjust="spacing" textLength="248.4409" x="91.4795" y="890.5278">Affichage page avec ic&#244;ne mise &#224; jour</text></g><path d="M22.5,931.5938 L259.27,931.5938 L259.27,938.7266 L249.27,948.7266 L20,948.7266 L20,934.0938 A2.5,2.5 0 0 1 22.5,931.5938" fill="#EEEEEE" style="stroke:#000000;stroke-width:1.5;"/><rect fill="none" height="397.6641" rx="2.5" ry="2.5" style="stroke:#000000;stroke-width:1.5;" width="1224.8037" x="20" y="931.5938"/><text fill="#000000" font-family="sans-serif" font-size="13" font-weight="bold" lengthAdjust="spacing" textLength="194.27" x="35" y="944.6606">Consultation de la wishlist</text><g class="message" data-participant-1="User" data-participant-2="Browser"><polygon fill="#181818" points="334.9204,965.8594,344.9204,969.8594,334.9204,973.8594,338.9204,969.8594" style="stroke:#181818;stroke-width:1;"/><line style="stroke:#181818;stroke-width:2;" x1="74.4795" x2="340.9204" y1="969.8594" y2="969.8594"/><text fill="#000000" font-family="sans-serif" font-size="13" lengthAdjust="spacing" textLength="135.6938" x="81.4795" y="964.7935">Clic sur "Ma wishlist"</text></g><g class="message" data-participant-1="Browser" data-participant-2="WishCtrl"><polygon fill="#181818" points="580.2061,994.9922,590.2061,998.9922,580.2061,1002.9922,584.2061,998.9922" style="stroke:#181818;stroke-width:1;"/><line style="stroke:#181818;stroke-width:2;" x1="346.9204" x2="586.2061" y1="998.9922" y2="998.9922"/><text fill="#000000" font-family="sans-serif" font-size="13" lengthAdjust="spacing" textLength="83.0908" x="353.9204" y="993.9263">GET /wishlist</text></g><g class="message" data-participant-1="WishCtrl" data-participant-2="WishCtrl"><line style="stroke:#181818;stroke-width:2;" x1="592.2061" x2="634.2061" y1="1028.125" y2="1028.125"/><line style="stroke:#181818;stroke-width:2;" x1="634.2061" x2="634.2061" y1="1028.125" y2="1041.125"/><line style="stroke:#181818;stroke-width:2;" x1="593.2061" x2="634.2061" y1="1041.125" y2="1041.125"/><polygon fill="#181818" points="603.2061,1037.125,593.2061,1041.125,603.2061,1045.125,599.2061,1041.125" style="stroke:#181818;stroke-width:1;"/><text fill="#000000" font-family="sans-serif" font-size="13" lengthAdjust="spacing" textLength="126.3057" x="599.2061" y="1023.0591">V&#233;rification session</text></g><path d="M32.5,1056.125 L94.4429,1056.125 L94.4429,1063.2578 L84.4429,1073.2578 L30,1073.2578 L30,1058.625 A2.5,2.5 0 0 1 32.5,1056.125" fill="#EEEEEE" style="stroke:#000000;stroke-width:1.5;"/><rect fill="none" height="266.1328" rx="2.5" ry="2.5" style="stroke:#000000;stroke-width:1.5;" width="1204.8037" x="30" y="1056.125"/><text fill="#000000" font-family="sans-serif" font-size="13" font-weight="bold" lengthAdjust="spacing" textLength="19.4429" x="45" y="1069.1919">alt</text><text fill="#000000" font-family="sans-serif" font-size="11" font-weight="bold" lengthAdjust="spacing" textLength="107.1587" x="109.4429" y="1068.3354">[Non authentifi&#233;]</text><g class="message" data-participant-1="WishCtrl" data-participant-2="Browser"><polygon fill="#181818" points="357.9204,1090.3906,347.9204,1094.3906,357.9204,1098.3906,353.9204,1094.3906" style="stroke:#181818;stroke-width:1;"/><line style="stroke:#181818;stroke-width:2;" x1="351.9204" x2="591.2061" y1="1094.3906" y2="1094.3906"/><text fill="#000000" font-family="sans-serif" font-size="13" lengthAdjust="spacing" textLength="142.0288" x="363.9204" y="1089.3247">Redirection vers login</text></g><line style="stroke:#000000;stroke-width:1;stroke-dasharray:2.0,2.0;" x1="30" x2="1234.8037" y1="1103.3906" y2="1103.3906"/><text fill="#000000" font-family="sans-serif" font-size="11" font-weight="bold" lengthAdjust="spacing" textLength="79.8252" x="35" y="1113.6011">[Authentifi&#233;]</text><g class="message" data-participant-1="WishCtrl" data-participant-2="OffreModel"><polygon fill="#181818" points="850.7554,1134.3281,860.7554,1138.3281,850.7554,1142.3281,854.7554,1138.3281" style="stroke:#181818;stroke-width:1;"/><line style="stroke:#181818;stroke-width:2;" x1="592.2061" x2="856.7554" y1="1138.3281" y2="1138.3281"/><text fill="#000000" font-family="sans-serif" font-size="13" lengthAdjust="spacing" textLength="168.2827" x="599.2061" y="1133.2622">getWishlistOffres(user_id)</text></g><g class="message" data-participant-1="OffreModel" data-participant-2="DB"><polygon fill="#181818" points="1148.752,1193.7266,1158.752,1197.7266,1148.752,1201.7266,1152.752,1197.7266" style="stroke:#181818;stroke-width:1;"/><line style="stroke:#181818;stroke-width:2;" x1="862.7554" x2="1154.752" y1="1197.7266" y2="1197.7266"/><text fill="#000000" font-family="sans-serif" font-size="13" lengthAdjust="spacing" textLength="167.1909" x="869.7554" y="1162.395">SELECT o.* FROM offres o</text><text fill="#000000" font-family="sans-serif" font-size="13" lengthAdjust="spacing" textLength="229.7788" x="869.7554" y="1177.5278">JOIN wishlist w ON o.id = w.offre_id</text><text fill="#000000" font-family="sans-serif" font-size="13" lengthAdjust="spacing" textLength="176.998" x="869.7554" y="1192.6606">WHERE w.utilisateur_id = ?</text></g><g class="message" data-participant-1="DB" data-participant-2="OffreModel"><polygon fill="#181818" points="873.7554,1222.8594,863.7554,1226.8594,873.7554,1230.8594,869.7554,1226.8594" style="stroke:#181818;stroke-width:1;"/><line style="stroke:#181818;stroke-width:2;stroke-dasharray:2.0,2.0;" x1="867.7554" x2="1159.752" y1="1226.8594" y2="1226.8594"/><text fill="#000000" font-family="sans-serif" font-size="13" lengthAdjust="spacing" textLength="172.085" x="879.7554" y="1221.7935">Liste des offres en wishlist</text></g><g class="message" data-participant-1="OffreModel" data-participant-2="WishCtrl"><polygon fill="#181818" points="603.2061,1251.9922,593.2061,1255.9922,603.2061,1259.9922,599.2061,1255.9922" style="stroke:#181818;stroke-width:1;"/><line style="stroke:#181818;stroke-width:2;stroke-dasharray:2.0,2.0;" x1="597.2061" x2="861.7554" y1="1255.9922" y2="1255.9922"/><text fill="#000000" font-family="sans-serif" font-size="13" lengthAdjust="spacing" textLength="91.9839" x="609.2061" y="1250.9263">Offres wishlist</text></g><g class="message" data-participant-1="WishCtrl" data-participant-2="Browser"><polygon fill="#181818" points="357.9204,1281.125,347.9204,1285.125,357.9204,1289.125,353.9204,1285.125" style="stroke:#181818;stroke-width:1;"/><line style="stroke:#181818;stroke-width:2;" x1="351.9204" x2="591.2061" y1="1285.125" y2="1285.125"/><text fill="#000000" font-family="sans-serif" font-size="13" lengthAdjust="spacing" textLength="125.9692" x="363.9204" y="1280.0591">Rendu wishlist.twig</text></g><g class="message" data-participant-1="Browser" data-participant-2="User"><polygon fill="#181818" points="85.4795,1310.2578,75.4795,1314.2578,85.4795,1318.2578,81.4795,1314.2578" style="stroke:#181818;stroke-width:1;"/><line style="stroke:#181818;stroke-width:2;" x1="79.4795" x2="345.9204" y1="1314.2578" y2="1314.2578"/><text fill="#000000" font-family="sans-serif" font-size="13" lengthAdjust="spacing" textLength="113.7437" x="91.4795" y="1309.1919">Affichage wishlist</text></g><!--SRC=[rLNBRjD05DtxAwxCWXRr8I6nGGAK5u-gJL0IA0iaDDWtxb1dnimZ4K9y2X8BDcRD7_XF-1BkZ6F7RjAc23POycjypvbxpzmvrfTSP4onEMZyQ554s55ABgSNFBeKg3NS3tGTegGLSIILG0KF6kCLz2LJXaSyOy80HQ9AkS0jSQTyHgV0hbGKr9EfL73dWJzkYcRHPU9JM246_WW2mqsA4FOvImWtHuWH9aLUek4Gdg4sN0euv_eYvTg4GS0YGmnXZucOnyo4m3IyqgY2h552E6GBdZ23Llc0BWdZOjwx79Zw1675s9F2A9ccM0QwuPvHQO22SgEuqMocy4p6cFhlwzU09cVlcQRqk-vAcVUb44MEsaVskq7WQiwWyq5QSpn6enWt81s3YquPB5T91427Am8E7rUvmaFefJm2RHNmgFWfQA9VNx-7Vi3IcoVoo0f1u2f_GhySJQPmN4rnR6IIf7ZysSFUyVYBX_fB3MeJl2vonMSyOdu9DBKKtTSebXeOqWTcpOLJQyQBt7-uIhakQ8mnLnXvlWKg3QbCU4c9AMdOsKMrbf_OkFQlf_mIuprBCr1L1r3LjryJD414qUyIT38u7VIcS0-UZaTdzJAy5UVF1-C1MCFfrNSF4S4ZU0ATORzcTWCrET4TNariNEJQfeOPKBGHYXy6j-RILdj2yTR07kFp8WTfGKYnhg5-SAgFoXOgyW_5Dq3HRgETifMDu5JR5Eq0xYgSomNUtM-HRP6mJn9E1tylu7KYqiQSSJLVDP_DCjLemBfZIYaosc_a698U_xKSB8vtQ_5YE1cCftIRZXfQxBLbQDAIT-0xvdnX_y-4y9Yr12BUx93hMsmexGAP1UrRRNjlZLST2vsJpfjh5MniwIBFfA2LE9cCXbIpQCtHhgxXKwzAz1ad93KnLQLWmRL5SkALtRKNkiwBY9s5nxV9xQhTP2oXPb557XLvJ4Q3EzBhpCZ-BZp8NTW2eygBvutCDzR3tTsv-W7G2fP-u1BvC-SFpzQnuGrc_spGyFh_tjaJDDN_sO_hQclUnjJbqShM_NRJ8D-Aaz6BOIqZB64qf2ZlGykZQbDMthKysdIl6zt-b3ZT3rrN4swpeEitPLdW9cAdu2AsDUh8B7aItAQHM_Ei-lGt]--></g></svg>