<svg xmlns="http://www.w3.org/2000/svg" xmlns:xlink="http://www.w3.org/1999/xlink" contentStyleType="text/css" data-diagram-type="SEQUENCE" height="1480px" preserveAspectRatio="none" style="width:1612px;height:1480px;background:#FFFFFF;" version="1.1" viewBox="0 0 1612 1480" width="1612px" zoomAndPan="magnify"><title>Diagramme de S&#233;quence - Candidature &#224; une Offre</title><defs/><g><text fill="#000000" font-family="sans-serif" font-size="14" font-weight="bold" lengthAdjust="spacing" textLength="403.5732" x="605.6177" y="27.9951">Diagramme de S&#233;quence - Candidature &#224; une Offre</text><rect fill="none" height="1044.4609" rx="2.5" ry="2.5" style="stroke:#000000;stroke-width:1.5;" width="1595.8086" x="10" y="338.5234"/><rect fill="none" height="822.5938" rx="2.5" ry="2.5" style="stroke:#000000;stroke-width:1.5;" width="1575.8086" x="20" y="553.3906"/><rect fill="none" height="426.9297" rx="2.5" ry="2.5" style="stroke:#000000;stroke-width:1.5;" width="1555.8086" x="30" y="942.0547"/><g><title>&lt;u&gt;Candidat</title><rect fill="#000000" fill-opacity="0.00000" height="1281.3906" width="8" x="70.4795" y="118.5938"/><line style="stroke:#555555;stroke-width:0.5;stroke-dasharray:5.0,5.0;" x1="74" x2="74" y1="118.5938" y2="1399.9844"/></g><g><title>&lt;u&gt;Navigateur</title><rect fill="#000000" fill-opacity="0.00000" height="1281.3906" width="8" x="327.813" y="118.5938"/><line style="stroke:#555555;stroke-width:0.5;stroke-dasharray:5.0,5.0;" x1="331.1011" x2="331.1011" y1="118.5938" y2="1399.9844"/></g><g><title>&lt;u&gt;OffreController</title><rect fill="#000000" fill-opacity="0.00000" height="1281.3906" width="8" x="488.3257" y="118.5938"/><line style="stroke:#555555;stroke-width:0.5;stroke-dasharray:5.0,5.0;" x1="492.1162" x2="492.1162" y1="118.5938" y2="1399.9844"/></g><g><title>&lt;u&gt;CandidatureController</title><rect fill="#000000" fill-opacity="0.00000" height="1281.3906" width="8" x="634.2222" y="118.5938"/><line style="stroke:#555555;stroke-width:0.5;stroke-dasharray:5.0,5.0;" x1="637.5352" x2="637.5352" y1="118.5938" y2="1399.9844"/></g><g><title>&lt;u&gt;CandidatureModel</title><rect fill="#000000" fill-opacity="0.00000" height="1281.3906" width="8" x="988.6113" y="118.5938"/><line style="stroke:#555555;stroke-width:0.5;stroke-dasharray:5.0,5.0;" x1="992.4937" x2="992.4937" y1="118.5938" y2="1399.9844"/></g><g><title>&lt;u&gt;EmailService</title><rect fill="#000000" fill-opacity="0.00000" height="1281.3906" width="8" x="1114.0205" y="118.5938"/><line style="stroke:#555555;stroke-width:0.5;stroke-dasharray:5.0,5.0;" x1="1117.729" x2="1117.729" y1="118.5938" y2="1399.9844"/></g><g><title>&lt;u&gt;Base de Donn&#233;es</title><rect fill="#000000" fill-opacity="0.00000" height="1281.3906" width="8" x="1350.4717" y="118.5938"/><line style="stroke:#555555;stroke-width:0.5;stroke-dasharray:5.0,5.0;" x1="1354.4199" x2="1354.4199" y1="118.5938" y2="1399.9844"/></g><g><title>&lt;u&gt;Syst&#232;me de Fichiers</title><rect fill="#000000" fill-opacity="0.00000" height="1281.3906" width="8" x="1498.166" y="118.5938"/><line style="stroke:#555555;stroke-width:0.5;stroke-dasharray:5.0,5.0;" x1="1501.5234" x2="1501.5234" y1="118.5938" y2="1399.9844"/></g><g class="participant participant-head" data-participant="User"><text fill="#000000" font-family="sans-serif" font-size="14" lengthAdjust="spacing" text-decoration="underline" textLength="62.959" x="40" y="115.292">Candidat</text><ellipse cx="74.4795" cy="50.7969" fill="#E2E2F0" rx="8" ry="8" style="stroke:#181818;stroke-width:0.5;"/><path d="M74.4795,58.7969 L74.4795,85.7969 M61.4795,66.7969 L87.4795,66.7969 M74.4795,85.7969 L61.4795,100.7969 M74.4795,85.7969 L87.4795,100.7969" fill="none" style="stroke:#181818;stroke-width:0.5;"/></g><g class="participant participant-tail" data-participant="User"><text fill="#000000" font-family="sans-serif" font-size="14" lengthAdjust="spacing" text-decoration="underline" textLength="62.959" x="40" y="1411.9795">Candidat</text><ellipse cx="74.4795" cy="1423.7813" fill="#E2E2F0" rx="8" ry="8" style="stroke:#181818;stroke-width:0.5;"/><path d="M74.4795,1431.7813 L74.4795,1458.7813 M61.4795,1439.7813 L87.4795,1439.7813 M74.4795,1458.7813 L61.4795,1473.7813 M74.4795,1458.7813 L87.4795,1473.7813" fill="none" style="stroke:#181818;stroke-width:0.5;"/></g><g class="participant participant-head" data-participant="Browser"><rect fill="#E2E2F0" height="30.2969" rx="2.5" ry="2.5" style="stroke:#181818;stroke-width:0.5;" width="91.4238" x="286.1011" y="87.2969"/><text fill="#000000" font-family="sans-serif" font-size="14" lengthAdjust="spacing" text-decoration="underline" textLength="77.4238" x="293.1011" y="107.292">Navigateur</text></g><g class="participant participant-tail" data-participant="Browser"><rect fill="#E2E2F0" height="30.2969" rx="2.5" ry="2.5" style="stroke:#181818;stroke-width:0.5;" width="91.4238" x="286.1011" y="1398.9844"/><text fill="#000000" font-family="sans-serif" font-size="14" lengthAdjust="spacing" text-decoration="underline" textLength="77.4238" x="293.1011" y="1418.9795">Navigateur</text></g><g class="participant participant-head" data-participant="OffreCtrl"><text fill="#000000" font-family="sans-serif" font-size="14" lengthAdjust="spacing" text-decoration="underline" textLength="104.4189" x="437.1162" y="115.292">OffreController</text><path d="M471.8257,74.2969 L471.8257,98.2969 M471.8257,86.2969 L488.8257,86.2969" fill="none" style="stroke:#181818;stroke-width:0.5;"/><ellipse cx="500.8257" cy="86.2969" fill="#E2E2F0" rx="12" ry="12" style="stroke:#181818;stroke-width:0.5;"/></g><g class="participant participant-tail" data-participant="OffreCtrl"><text fill="#000000" font-family="sans-serif" font-size="14" lengthAdjust="spacing" text-decoration="underline" textLength="104.4189" x="437.1162" y="1411.9795">OffreController</text><path d="M471.8257,1419.2813 L471.8257,1443.2813 M471.8257,1431.2813 L488.8257,1431.2813" fill="none" style="stroke:#181818;stroke-width:0.5;"/><ellipse cx="500.8257" cy="1431.2813" fill="#E2E2F0" rx="12" ry="12" style="stroke:#181818;stroke-width:0.5;"/></g><g class="participant participant-head" data-participant="CandidCtrl"><text fill="#000000" font-family="sans-serif" font-size="14" lengthAdjust="spacing" text-decoration="underline" textLength="155.374" x="557.5352" y="115.292">CandidatureController</text><path d="M617.7222,74.2969 L617.7222,98.2969 M617.7222,86.2969 L634.7222,86.2969" fill="none" style="stroke:#181818;stroke-width:0.5;"/><ellipse cx="646.7222" cy="86.2969" fill="#E2E2F0" rx="12" ry="12" style="stroke:#181818;stroke-width:0.5;"/></g><g class="participant participant-tail" data-participant="CandidCtrl"><text fill="#000000" font-family="sans-serif" font-size="14" lengthAdjust="spacing" text-decoration="underline" textLength="155.374" x="557.5352" y="1411.9795">CandidatureController</text><path d="M617.7222,1419.2813 L617.7222,1443.2813 M617.7222,1431.2813 L634.7222,1431.2813" fill="none" style="stroke:#181818;stroke-width:0.5;"/><ellipse cx="646.7222" cy="1431.2813" fill="#E2E2F0" rx="12" ry="12" style="stroke:#181818;stroke-width:0.5;"/></g><g class="participant participant-head" data-participant="CandidModel"><text fill="#000000" font-family="sans-serif" font-size="14" lengthAdjust="spacing" text-decoration="underline" textLength="128.2354" x="925.4937" y="115.292">CandidatureModel</text><ellipse cx="992.6113" cy="86.2969" fill="#E2E2F0" rx="12" ry="12" style="stroke:#181818;stroke-width:0.5;"/><line style="stroke:#181818;stroke-width:0.5;" x1="980.6113" x2="1004.6113" y1="100.2969" y2="100.2969"/></g><g class="participant participant-tail" data-participant="CandidModel"><text fill="#000000" font-family="sans-serif" font-size="14" lengthAdjust="spacing" text-decoration="underline" textLength="128.2354" x="925.4937" y="1411.9795">CandidatureModel</text><ellipse cx="992.6113" cy="1431.2813" fill="#E2E2F0" rx="12" ry="12" style="stroke:#181818;stroke-width:0.5;"/><line style="stroke:#181818;stroke-width:0.5;" x1="980.6113" x2="1004.6113" y1="1445.2813" y2="1445.2813"/></g><g class="participant participant-head" data-participant="EmailSvc"><text fill="#000000" font-family="sans-serif" font-size="14" lengthAdjust="spacing" text-decoration="underline" textLength="90.583" x="1069.729" y="115.292">EmailService</text><path d="M1097.5205,74.2969 L1097.5205,98.2969 M1097.5205,86.2969 L1114.5205,86.2969" fill="none" style="stroke:#181818;stroke-width:0.5;"/><ellipse cx="1126.5205" cy="86.2969" fill="#E2E2F0" rx="12" ry="12" style="stroke:#181818;stroke-width:0.5;"/></g><g class="participant participant-tail" data-participant="EmailSvc"><text fill="#000000" font-family="sans-serif" font-size="14" lengthAdjust="spacing" text-decoration="underline" textLength="90.583" x="1069.729" y="1411.9795">EmailService</text><path d="M1097.5205,1419.2813 L1097.5205,1443.2813 M1097.5205,1431.2813 L1114.5205,1431.2813" fill="none" style="stroke:#181818;stroke-width:0.5;"/><ellipse cx="1126.5205" cy="1431.2813" fill="#E2E2F0" rx="12" ry="12" style="stroke:#181818;stroke-width:0.5;"/></g><g class="participant participant-head" data-participant="DB"><text fill="#000000" font-family="sans-serif" font-size="14" lengthAdjust="spacing" text-decoration="underline" textLength="122.1035" x="1290.4199" y="115.292">Base de Donn&#233;es</text><path d="M1336.4717,66.2969 C1336.4717,56.2969 1354.4717,56.2969 1354.4717,56.2969 C1354.4717,56.2969 1372.4717,56.2969 1372.4717,66.2969 L1372.4717,92.2969 C1372.4717,102.2969 1354.4717,102.2969 1354.4717,102.2969 C1354.4717,102.2969 1336.4717,102.2969 1336.4717,92.2969 L1336.4717,66.2969" fill="#E2E2F0" style="stroke:#181818;stroke-width:1.5;"/><path d="M1336.4717,66.2969 C1336.4717,76.2969 1354.4717,76.2969 1354.4717,76.2969 C1354.4717,76.2969 1372.4717,76.2969 1372.4717,66.2969" fill="none" style="stroke:#181818;stroke-width:1.5;"/></g><g class="participant participant-tail" data-participant="DB"><text fill="#000000" font-family="sans-serif" font-size="14" lengthAdjust="spacing" text-decoration="underline" textLength="122.1035" x="1290.4199" y="1411.9795">Base de Donn&#233;es</text><path d="M1336.4717,1425.2813 C1336.4717,1415.2813 1354.4717,1415.2813 1354.4717,1415.2813 C1354.4717,1415.2813 1372.4717,1415.2813 1372.4717,1425.2813 L1372.4717,1451.2813 C1372.4717,1461.2813 1354.4717,1461.2813 1354.4717,1461.2813 C1354.4717,1461.2813 1336.4717,1461.2813 1336.4717,1451.2813 L1336.4717,1425.2813" fill="#E2E2F0" style="stroke:#181818;stroke-width:1.5;"/><path d="M1336.4717,1425.2813 C1336.4717,1435.2813 1354.4717,1435.2813 1354.4717,1435.2813 C1354.4717,1435.2813 1372.4717,1435.2813 1372.4717,1425.2813" fill="none" style="stroke:#181818;stroke-width:1.5;"/></g><g class="participant participant-head" data-participant="FS"><text fill="#000000" font-family="sans-serif" font-size="14" lengthAdjust="spacing" text-decoration="underline" textLength="141.2852" x="1428.5234" y="115.292">Syst&#232;me de Fichiers</text><path d="M1484.166,66.2969 C1484.166,56.2969 1502.166,56.2969 1502.166,56.2969 C1502.166,56.2969 1520.166,56.2969 1520.166,66.2969 L1520.166,92.2969 C1520.166,102.2969 1502.166,102.2969 1502.166,102.2969 C1502.166,102.2969 1484.166,102.2969 1484.166,92.2969 L1484.166,66.2969" fill="#E2E2F0" style="stroke:#181818;stroke-width:1.5;"/><path d="M1484.166,66.2969 C1484.166,76.2969 1502.166,76.2969 1502.166,76.2969 C1502.166,76.2969 1520.166,76.2969 1520.166,66.2969" fill="none" style="stroke:#181818;stroke-width:1.5;"/></g><g class="participant participant-tail" data-participant="FS"><text fill="#000000" font-family="sans-serif" font-size="14" lengthAdjust="spacing" text-decoration="underline" textLength="141.2852" x="1428.5234" y="1411.9795">Syst&#232;me de Fichiers</text><path d="M1484.166,1425.2813 C1484.166,1415.2813 1502.166,1415.2813 1502.166,1415.2813 C1502.166,1415.2813 1520.166,1415.2813 1520.166,1425.2813 L1520.166,1451.2813 C1520.166,1461.2813 1502.166,1461.2813 1502.166,1461.2813 C1502.166,1461.2813 1484.166,1461.2813 1484.166,1451.2813 L1484.166,1425.2813" fill="#E2E2F0" style="stroke:#181818;stroke-width:1.5;"/><path d="M1484.166,1425.2813 C1484.166,1435.2813 1502.166,1435.2813 1502.166,1435.2813 C1502.166,1435.2813 1520.166,1435.2813 1520.166,1425.2813" fill="none" style="stroke:#181818;stroke-width:1.5;"/></g><g class="message" data-participant-1="User" data-participant-2="Browser"><polygon fill="#181818" points="319.813,145.7266,329.813,149.7266,319.813,153.7266,323.813,149.7266" style="stroke:#181818;stroke-width:1;"/><line style="stroke:#181818;stroke-width:2;" x1="74.4795" x2="325.813" y1="149.7266" y2="149.7266"/><text fill="#000000" font-family="sans-serif" font-size="13" lengthAdjust="spacing" textLength="157.1108" x="81.4795" y="144.6606">Consultation d&#233;tail offre</text></g><g class="message" data-participant-1="Browser" data-participant-2="OffreCtrl"><polygon fill="#181818" points="480.3257,174.8594,490.3257,178.8594,480.3257,182.8594,484.3257,178.8594" style="stroke:#181818;stroke-width:1;"/><line style="stroke:#181818;stroke-width:2;" x1="331.813" x2="486.3257" y1="178.8594" y2="178.8594"/><text fill="#000000" font-family="sans-serif" font-size="13" lengthAdjust="spacing" textLength="104.749" x="338.813" y="173.7935">GET /offres/{id}</text></g><g class="message" data-participant-1="OffreCtrl" data-participant-2="Browser"><polygon fill="#181818" points="342.813,203.9922,332.813,207.9922,342.813,211.9922,338.813,207.9922" style="stroke:#181818;stroke-width:1;"/><line style="stroke:#181818;stroke-width:2;" x1="336.813" x2="491.3257" y1="207.9922" y2="207.9922"/><text fill="#000000" font-family="sans-serif" font-size="13" lengthAdjust="spacing" textLength="136.5127" x="348.813" y="202.9263">Affichage d&#233;tail offre</text></g><g class="message" data-participant-1="User" data-participant-2="Browser"><polygon fill="#181818" points="319.813,233.125,329.813,237.125,319.813,241.125,323.813,237.125" style="stroke:#181818;stroke-width:1;"/><line style="stroke:#181818;stroke-width:2;" x1="74.4795" x2="325.813" y1="237.125" y2="237.125"/><text fill="#000000" font-family="sans-serif" font-size="13" lengthAdjust="spacing" textLength="116.8857" x="81.4795" y="232.0591">Clic sur "Postuler"</text></g><g class="message" data-participant-1="Browser" data-participant-2="CandidCtrl"><polygon fill="#181818" points="626.2222,262.2578,636.2222,266.2578,626.2222,270.2578,630.2222,266.2578" style="stroke:#181818;stroke-width:1;"/><line style="stroke:#181818;stroke-width:2;" x1="331.813" x2="632.2222" y1="266.2578" y2="266.2578"/><text fill="#000000" font-family="sans-serif" font-size="13" lengthAdjust="spacing" textLength="240.2397" x="338.813" y="261.1919">GET /candidature/postuler/{offre_id}</text></g><g class="message" data-participant-1="CandidCtrl" data-participant-2="CandidCtrl"><line style="stroke:#181818;stroke-width:2;" x1="638.2222" x2="680.2222" y1="310.5234" y2="310.5234"/><line style="stroke:#181818;stroke-width:2;" x1="680.2222" x2="680.2222" y1="310.5234" y2="323.5234"/><line style="stroke:#181818;stroke-width:2;" x1="639.2222" x2="680.2222" y1="323.5234" y2="323.5234"/><polygon fill="#181818" points="649.2222,319.5234,639.2222,323.5234,649.2222,327.5234,645.2222,323.5234" style="stroke:#181818;stroke-width:1;"/><text fill="#000000" font-family="sans-serif" font-size="13" lengthAdjust="spacing" textLength="126.3057" x="645.2222" y="290.3247">V&#233;rification session</text><text fill="#000000" font-family="sans-serif" font-size="13" lengthAdjust="spacing" textLength="165.1851" x="645.2222" y="305.4575">(authentification requise)</text></g><path d="M12.5,338.5234 L74.4429,338.5234 L74.4429,345.6563 L64.4429,355.6563 L10,355.6563 L10,341.0234 A2.5,2.5 0 0 1 12.5,338.5234" fill="#EEEEEE" style="stroke:#000000;stroke-width:1.5;"/><rect fill="none" height="1044.4609" rx="2.5" ry="2.5" style="stroke:#000000;stroke-width:1.5;" width="1595.8086" x="10" y="338.5234"/><text fill="#000000" font-family="sans-serif" font-size="13" font-weight="bold" lengthAdjust="spacing" textLength="19.4429" x="25" y="351.5903">alt</text><text fill="#000000" font-family="sans-serif" font-size="11" font-weight="bold" lengthAdjust="spacing" textLength="107.1587" x="89.4429" y="350.7339">[Non authentifi&#233;]</text><g class="message" data-participant-1="CandidCtrl" data-participant-2="Browser"><polygon fill="#181818" points="342.813,387.9219,332.813,391.9219,342.813,395.9219,338.813,391.9219" style="stroke:#181818;stroke-width:1;"/><line style="stroke:#181818;stroke-width:2;" x1="336.813" x2="637.2222" y1="391.9219" y2="391.9219"/><text fill="#000000" font-family="sans-serif" font-size="13" lengthAdjust="spacing" textLength="142.0288" x="348.813" y="371.7231">Redirection vers login</text><text fill="#000000" font-family="sans-serif" font-size="13" lengthAdjust="spacing" textLength="114.9814" x="348.813" y="386.856">(avec URL retour)</text></g><g class="message" data-participant-1="Browser" data-participant-2="User"><polygon fill="#181818" points="85.4795,417.0547,75.4795,421.0547,85.4795,425.0547,81.4795,421.0547" style="stroke:#181818;stroke-width:1;"/><line style="stroke:#181818;stroke-width:2;" x1="79.4795" x2="330.813" y1="421.0547" y2="421.0547"/><text fill="#000000" font-family="sans-serif" font-size="13" lengthAdjust="spacing" textLength="133.6626" x="91.4795" y="415.9888">Affichage page login</text></g><line style="stroke:#000000;stroke-width:1;stroke-dasharray:2.0,2.0;" x1="10" x2="1605.8086" y1="430.0547" y2="430.0547"/><text fill="#000000" font-family="sans-serif" font-size="11" font-weight="bold" lengthAdjust="spacing" textLength="79.8252" x="15" y="440.2651">[Authentifi&#233;]</text><g class="message" data-participant-1="CandidCtrl" data-participant-2="CandidModel"><polygon fill="#181818" points="980.6113,460.9922,990.6113,464.9922,980.6113,468.9922,984.6113,464.9922" style="stroke:#181818;stroke-width:1;"/><line style="stroke:#181818;stroke-width:2;" x1="638.2222" x2="986.6113" y1="464.9922" y2="464.9922"/><text fill="#000000" font-family="sans-serif" font-size="13" lengthAdjust="spacing" textLength="231.4419" x="645.2222" y="459.9263">candidatureExiste(user_id, offre_id)</text></g><g class="message" data-participant-1="CandidModel" data-participant-2="DB"><polygon fill="#181818" points="1342.4717,505.2578,1352.4717,509.2578,1342.4717,513.2578,1346.4717,509.2578" style="stroke:#181818;stroke-width:1;"/><line style="stroke:#181818;stroke-width:2;" x1="992.6113" x2="1348.4717" y1="509.2578" y2="509.2578"/><text fill="#000000" font-family="sans-serif" font-size="13" lengthAdjust="spacing" textLength="190.6836" x="999.6113" y="489.0591">SELECT * FROM candidatures</text><text fill="#000000" font-family="sans-serif" font-size="13" lengthAdjust="spacing" textLength="273.9966" x="999.6113" y="504.1919">WHERE utilisateur_id = ? AND offre_id = ?</text></g><g class="message" data-participant-1="DB" data-participant-2="CandidModel"><polygon fill="#181818" points="1003.6113,534.3906,993.6113,538.3906,1003.6113,542.3906,999.6113,538.3906" style="stroke:#181818;stroke-width:1;"/><line style="stroke:#181818;stroke-width:2;stroke-dasharray:2.0,2.0;" x1="997.6113" x2="1353.4717" y1="538.3906" y2="538.3906"/><text fill="#000000" font-family="sans-serif" font-size="13" lengthAdjust="spacing" textLength="108.875" x="1009.6113" y="533.3247">R&#233;sultat requ&#234;te</text></g><path d="M22.5,553.3906 L84.4429,553.3906 L84.4429,560.5234 L74.4429,570.5234 L20,570.5234 L20,555.8906 A2.5,2.5 0 0 1 22.5,553.3906" fill="#EEEEEE" style="stroke:#000000;stroke-width:1.5;"/><rect fill="none" height="822.5938" rx="2.5" ry="2.5" style="stroke:#000000;stroke-width:1.5;" width="1575.8086" x="20" y="553.3906"/><text fill="#000000" font-family="sans-serif" font-size="13" font-weight="bold" lengthAdjust="spacing" textLength="19.4429" x="35" y="566.4575">alt</text><text fill="#000000" font-family="sans-serif" font-size="11" font-weight="bold" lengthAdjust="spacing" textLength="148.2314" x="99.4429" y="565.6011">[Candidature existante]</text><g class="message" data-participant-1="CandidModel" data-participant-2="CandidCtrl"><polygon fill="#181818" points="649.2222,587.6563,639.2222,591.6563,649.2222,595.6563,645.2222,591.6563" style="stroke:#181818;stroke-width:1;"/><line style="stroke:#181818;stroke-width:2;stroke-dasharray:2.0,2.0;" x1="643.2222" x2="991.6113" y1="591.6563" y2="591.6563"/><text fill="#000000" font-family="sans-serif" font-size="13" lengthAdjust="spacing" textLength="26.6792" x="655.2222" y="586.5903">true</text></g><g class="message" data-participant-1="CandidCtrl" data-participant-2="Browser"><polygon fill="#181818" points="342.813,631.9219,332.813,635.9219,342.813,639.9219,338.813,635.9219" style="stroke:#181818;stroke-width:1;"/><line style="stroke:#181818;stroke-width:2;" x1="336.813" x2="637.2222" y1="635.9219" y2="635.9219"/><text fill="#000000" font-family="sans-serif" font-size="13" lengthAdjust="spacing" textLength="104.3174" x="348.813" y="615.7231">Rendu message</text><text fill="#000000" font-family="sans-serif" font-size="13" lengthAdjust="spacing" textLength="162.4492" x="348.813" y="630.856">"Vous avez d&#233;j&#224; postul&#233;"</text></g><g class="message" data-participant-1="Browser" data-participant-2="User"><polygon fill="#181818" points="85.4795,661.0547,75.4795,665.0547,85.4795,669.0547,81.4795,665.0547" style="stroke:#181818;stroke-width:1;"/><line style="stroke:#181818;stroke-width:2;" x1="79.4795" x2="330.813" y1="665.0547" y2="665.0547"/><text fill="#000000" font-family="sans-serif" font-size="13" lengthAdjust="spacing" textLength="123.8174" x="91.4795" y="659.9888">Affichage message</text></g><line style="stroke:#000000;stroke-width:1;stroke-dasharray:2.0,2.0;" x1="20" x2="1595.8086" y1="674.0547" y2="674.0547"/><text fill="#000000" font-family="sans-serif" font-size="11" font-weight="bold" lengthAdjust="spacing" textLength="142.8013" x="25" y="684.2651">[Nouvelle candidature]</text><g class="message" data-participant-1="CandidModel" data-participant-2="CandidCtrl"><polygon fill="#181818" points="649.2222,704.9922,639.2222,708.9922,649.2222,712.9922,645.2222,708.9922" style="stroke:#181818;stroke-width:1;"/><line style="stroke:#181818;stroke-width:2;stroke-dasharray:2.0,2.0;" x1="643.2222" x2="991.6113" y1="708.9922" y2="708.9922"/><text fill="#000000" font-family="sans-serif" font-size="13" lengthAdjust="spacing" textLength="30.9258" x="655.2222" y="703.9263">false</text></g><g class="message" data-participant-1="CandidCtrl" data-participant-2="Browser"><polygon fill="#181818" points="342.813,749.2578,332.813,753.2578,342.813,757.2578,338.813,753.2578" style="stroke:#181818;stroke-width:1;"/><line style="stroke:#181818;stroke-width:2;" x1="336.813" x2="637.2222" y1="753.2578" y2="753.2578"/><text fill="#000000" font-family="sans-serif" font-size="13" lengthAdjust="spacing" textLength="130.8887" x="348.813" y="733.0591">Rendu postuler.twig</text><text fill="#000000" font-family="sans-serif" font-size="13" lengthAdjust="spacing" textLength="159.7007" x="348.813" y="748.1919">(formulaire candidature)</text></g><g class="message" data-participant-1="Browser" data-participant-2="User"><polygon fill="#181818" points="85.4795,778.3906,75.4795,782.3906,85.4795,786.3906,81.4795,782.3906" style="stroke:#181818;stroke-width:1;"/><line style="stroke:#181818;stroke-width:2;" x1="79.4795" x2="330.813" y1="782.3906" y2="782.3906"/><text fill="#000000" font-family="sans-serif" font-size="13" lengthAdjust="spacing" textLength="132.7041" x="91.4795" y="777.3247">Affichage formulaire</text></g><g class="message" data-participant-1="User" data-participant-2="Browser"><polygon fill="#181818" points="319.813,807.5234,329.813,811.5234,319.813,815.5234,323.813,811.5234" style="stroke:#181818;stroke-width:1;"/><line style="stroke:#181818;stroke-width:2;" x1="74.4795" x2="325.813" y1="811.5234" y2="811.5234"/><text fill="#000000" font-family="sans-serif" font-size="13" lengthAdjust="spacing" textLength="233.3335" x="81.4795" y="806.4575">Remplissage formulaire et envoi CV</text></g><g class="message" data-participant-1="User" data-participant-2="Browser"><polygon fill="#181818" points="319.813,836.6563,329.813,840.6563,319.813,844.6563,323.813,840.6563" style="stroke:#181818;stroke-width:1;"/><line style="stroke:#181818;stroke-width:2;" x1="74.4795" x2="325.813" y1="840.6563" y2="840.6563"/><text fill="#000000" font-family="sans-serif" font-size="13" lengthAdjust="spacing" textLength="145.5137" x="81.4795" y="835.5903">Soumission formulaire</text></g><g class="message" data-participant-1="Browser" data-participant-2="CandidCtrl"><polygon fill="#181818" points="626.2222,865.7891,636.2222,869.7891,626.2222,873.7891,630.2222,869.7891" style="stroke:#181818;stroke-width:1;"/><line style="stroke:#181818;stroke-width:2;" x1="331.813" x2="632.2222" y1="869.7891" y2="869.7891"/><text fill="#000000" font-family="sans-serif" font-size="13" lengthAdjust="spacing" textLength="165.731" x="338.813" y="864.7231">POST /candidature/traiter</text></g><g class="message" data-participant-1="CandidCtrl" data-participant-2="CandidCtrl"><line style="stroke:#181818;stroke-width:2;" x1="638.2222" x2="680.2222" y1="914.0547" y2="914.0547"/><line style="stroke:#181818;stroke-width:2;" x1="680.2222" x2="680.2222" y1="914.0547" y2="927.0547"/><line style="stroke:#181818;stroke-width:2;" x1="639.2222" x2="680.2222" y1="927.0547" y2="927.0547"/><polygon fill="#181818" points="649.2222,923.0547,639.2222,927.0547,649.2222,931.0547,645.2222,927.0547" style="stroke:#181818;stroke-width:1;"/><text fill="#000000" font-family="sans-serif" font-size="13" lengthAdjust="spacing" textLength="124.7886" x="645.2222" y="893.856">Validation donn&#233;es</text><text fill="#000000" font-family="sans-serif" font-size="13" lengthAdjust="spacing" textLength="145.5454" x="645.2222" y="908.9888">(lettre motivation, CV)</text></g><path d="M32.5,942.0547 L94.4429,942.0547 L94.4429,949.1875 L84.4429,959.1875 L30,959.1875 L30,944.5547 A2.5,2.5 0 0 1 32.5,942.0547" fill="#EEEEEE" style="stroke:#000000;stroke-width:1.5;"/><rect fill="none" height="426.9297" rx="2.5" ry="2.5" style="stroke:#000000;stroke-width:1.5;" width="1555.8086" x="30" y="942.0547"/><text fill="#000000" font-family="sans-serif" font-size="13" font-weight="bold" lengthAdjust="spacing" textLength="19.4429" x="45" y="955.1216">alt</text><text fill="#000000" font-family="sans-serif" font-size="11" font-weight="bold" lengthAdjust="spacing" textLength="123.3203" x="109.4429" y="954.2651">[Donn&#233;es invalides]</text><g class="message" data-participant-1="CandidCtrl" data-participant-2="Browser"><polygon fill="#181818" points="342.813,991.4531,332.813,995.4531,342.813,999.4531,338.813,995.4531" style="stroke:#181818;stroke-width:1;"/><line style="stroke:#181818;stroke-width:2;" x1="336.813" x2="637.2222" y1="995.4531" y2="995.4531"/><text fill="#000000" font-family="sans-serif" font-size="13" lengthAdjust="spacing" textLength="130.8887" x="348.813" y="975.2544">Rendu postuler.twig</text><text fill="#000000" font-family="sans-serif" font-size="13" lengthAdjust="spacing" textLength="92.1235" x="348.813" y="990.3872">(avec erreurs)</text></g><g class="message" data-participant-1="Browser" data-participant-2="User"><polygon fill="#181818" points="85.4795,1020.5859,75.4795,1024.5859,85.4795,1028.5859,81.4795,1024.5859" style="stroke:#181818;stroke-width:1;"/><line style="stroke:#181818;stroke-width:2;" x1="79.4795" x2="330.813" y1="1024.5859" y2="1024.5859"/><text fill="#000000" font-family="sans-serif" font-size="13" lengthAdjust="spacing" textLength="112.436" x="91.4795" y="1019.52">Affichage erreurs</text></g><line style="stroke:#000000;stroke-width:1;stroke-dasharray:2.0,2.0;" x1="30" x2="1585.8086" y1="1033.5859" y2="1033.5859"/><text fill="#000000" font-family="sans-serif" font-size="11" font-weight="bold" lengthAdjust="spacing" textLength="111.7188" x="35" y="1043.7964">[Donn&#233;es valides]</text><g class="message" data-participant-1="CandidCtrl" data-participant-2="FS"><polygon fill="#181818" points="1490.166,1079.6563,1500.166,1083.6563,1490.166,1087.6563,1494.166,1083.6563" style="stroke:#181818;stroke-width:1;"/><line style="stroke:#181818;stroke-width:2;" x1="638.2222" x2="1496.166" y1="1083.6563" y2="1083.6563"/><text fill="#000000" font-family="sans-serif" font-size="13" lengthAdjust="spacing" textLength="100.0645" x="645.2222" y="1063.4575">Sauvegarde CV</text><text fill="#000000" font-family="sans-serif" font-size="13" lengthAdjust="spacing" textLength="162.5444" x="645.2222" y="1078.5903">(g&#233;n&#233;ration nom unique)</text></g><g class="message" data-participant-1="FS" data-participant-2="CandidCtrl"><polygon fill="#181818" points="649.2222,1108.7891,639.2222,1112.7891,649.2222,1116.7891,645.2222,1112.7891" style="stroke:#181818;stroke-width:1;"/><line style="stroke:#181818;stroke-width:2;stroke-dasharray:2.0,2.0;" x1="643.2222" x2="1501.166" y1="1112.7891" y2="1112.7891"/><text fill="#000000" font-family="sans-serif" font-size="13" lengthAdjust="spacing" textLength="94.4912" x="655.2222" y="1107.7231">Chemin fichier</text></g><g class="message" data-participant-1="CandidCtrl" data-participant-2="CandidModel"><polygon fill="#181818" points="980.6113,1137.9219,990.6113,1141.9219,980.6113,1145.9219,984.6113,1141.9219" style="stroke:#181818;stroke-width:1;"/><line style="stroke:#181818;stroke-width:2;" x1="638.2222" x2="986.6113" y1="1141.9219" y2="1141.9219"/><text fill="#000000" font-family="sans-serif" font-size="13" lengthAdjust="spacing" textLength="330.3892" x="645.2222" y="1136.856">creerCandidature(user_id, offre_id, lettre, cv_path)</text></g><g class="message" data-participant-1="CandidModel" data-participant-2="DB"><polygon fill="#181818" points="1342.4717,1182.1875,1352.4717,1186.1875,1342.4717,1190.1875,1346.4717,1186.1875" style="stroke:#181818;stroke-width:1;"/><line style="stroke:#181818;stroke-width:2;" x1="992.6113" x2="1348.4717" y1="1186.1875" y2="1186.1875"/><text fill="#000000" font-family="sans-serif" font-size="13" lengthAdjust="spacing" textLength="171.8818" x="999.6113" y="1165.9888">INSERT INTO candidatures</text><text fill="#000000" font-family="sans-serif" font-size="13" lengthAdjust="spacing" textLength="337.8604" x="999.6113" y="1181.1216">(utilisateur_id, offre_id, lettre, cv_path, date, statut)</text></g><g class="message" data-participant-1="DB" data-participant-2="CandidModel"><polygon fill="#181818" points="1003.6113,1211.3203,993.6113,1215.3203,1003.6113,1219.3203,999.6113,1215.3203" style="stroke:#181818;stroke-width:1;"/><line style="stroke:#181818;stroke-width:2;stroke-dasharray:2.0,2.0;" x1="997.6113" x2="1353.4717" y1="1215.3203" y2="1215.3203"/><text fill="#000000" font-family="sans-serif" font-size="13" lengthAdjust="spacing" textLength="136.7095" x="1009.6113" y="1210.2544">ID candidature cr&#233;&#233;e</text></g><g class="message" data-participant-1="CandidModel" data-participant-2="CandidCtrl"><polygon fill="#181818" points="649.2222,1240.4531,639.2222,1244.4531,649.2222,1248.4531,645.2222,1244.4531" style="stroke:#181818;stroke-width:1;"/><line style="stroke:#181818;stroke-width:2;stroke-dasharray:2.0,2.0;" x1="643.2222" x2="991.6113" y1="1244.4531" y2="1244.4531"/><text fill="#000000" font-family="sans-serif" font-size="13" lengthAdjust="spacing" textLength="103.0479" x="655.2222" y="1239.3872">Succ&#232;s cr&#233;ation</text></g><g class="message" data-participant-1="CandidCtrl" data-participant-2="EmailSvc"><polygon fill="#181818" points="1106.0205,1269.5859,1116.0205,1273.5859,1106.0205,1277.5859,1110.0205,1273.5859" style="stroke:#181818;stroke-width:1;"/><line style="stroke:#181818;stroke-width:2;" x1="638.2222" x2="1112.0205" y1="1273.5859" y2="1273.5859"/><text fill="#000000" font-family="sans-serif" font-size="13" lengthAdjust="spacing" textLength="280.3506" x="645.2222" y="1268.52">sendCandidatureConfirmation(email, offre)</text></g><g class="message" data-participant-1="EmailSvc" data-participant-2="CandidCtrl"><polygon fill="#181818" points="649.2222,1298.7188,639.2222,1302.7188,649.2222,1306.7188,645.2222,1302.7188" style="stroke:#181818;stroke-width:1;"/><line style="stroke:#181818;stroke-width:2;stroke-dasharray:2.0,2.0;" x1="643.2222" x2="1117.0205" y1="1302.7188" y2="1302.7188"/><text fill="#000000" font-family="sans-serif" font-size="13" lengthAdjust="spacing" textLength="123.9634" x="655.2222" y="1297.6528">Confirmation envoi</text></g><g class="message" data-participant-1="CandidCtrl" data-participant-2="Browser"><polygon fill="#181818" points="342.813,1327.8516,332.813,1331.8516,342.813,1335.8516,338.813,1331.8516" style="stroke:#181818;stroke-width:1;"/><line style="stroke:#181818;stroke-width:2;" x1="336.813" x2="637.2222" y1="1331.8516" y2="1331.8516"/><text fill="#000000" font-family="sans-serif" font-size="13" lengthAdjust="spacing" textLength="229.3662" x="348.813" y="1326.7856">Redirection vers page confirmation</text></g><g class="message" data-participant-1="Browser" data-participant-2="User"><polygon fill="#181818" points="85.4795,1356.9844,75.4795,1360.9844,85.4795,1364.9844,81.4795,1360.9844" style="stroke:#181818;stroke-width:1;"/><line style="stroke:#181818;stroke-width:2;" x1="79.4795" x2="330.813" y1="1360.9844" y2="1360.9844"/><text fill="#000000" font-family="sans-serif" font-size="13" lengthAdjust="spacing" textLength="147.7988" x="91.4795" y="1355.9185">Affichage confirmation</text></g><!--SRC=[bLRTZfj65BxdAOxSctNbpKgLSbEfZTOssqRQU5V6kxrPAPh0iJrPc77dXpI9-Ywz37qDNYo7mU01EyH10cpupZVV-HtqCnSxfbW66l-sA6AyLaf-M6rv_2nGQ_Wbq2r4IIkIM2g12bvwpnlJUwOCZ_cE2GE4H9LoWITmjtnDfy2fL0IQoLGg-EcbEuRGB7xUE0bxYz0TGM2uIH56SyusP9SX90XHMTJMS0ap9XAUC6CLGlaVAKEuMwyLZeA0nOQOHWrY14p3WqOLx3nNHWkMymqpQ9K3J2b05UPTfOMfZp1oT3CfZ99fYZMgVcPKwk4y9Jrq_SR1KP13NV0RcM3guTn_ZpVC64yZL3cFqS7g1taSa3rxnpI5PrfTAJ9pAKHPe7Qu-TH3H1-rAR_KyRlXyPQZgb4tKH1KKO7BtnlduLSW3xHD3JDS2aZAmj2I82klWmP4-3OCPF57k88hXz1NdtdoRt1usM6-NgzfURR17kqf4IcFGLlAuRtKnbRXz5S_XBLPFZv4zMgtDxdwxFZVLf82pwHFy5WMYfEqscLDxK7t9t71hDbMMMjVAIfThd5C1POQMD2J0wGi0g2Zkyp1eIKcN67iQ79A0AHomzqYESRmiBmbSYEj6ZiMpzM7VknsrSLP1vXIVg-79NYLHJHUcC9_k3PuOOcV8ZI19bPZZwGs8vRvb8oZy3QShU1dk5dUlV6fz9Fuwyzm6O8rFENQjHGnmM_m2guNyvQwUk3OYUxoIDkoBEh2St4k_pVeiEvInTllTwp4KnFNa2F1_GmRPVl8KoaIYOMCqayHVXAZHsarK7e-LUNwdYPCNLTbCMgfXlAq9t9ObwY5j3dIPF0ZTvxyDIFxC_KtnV_2VE0Rgg-rL9bD6HMVl-xuB1SEjYsy_N7SiqlCTfHztRK4D80YbnncZmF6aRGPTurtQjLljVxzNTJhVQCODpJ4Z_GEzJzBAtCtx_PJb0ANeZ4aFvE6v-xbX3mO7nDNfTaCN-0YhyXGjwz_F6Dk8g1Ir4HwtE4PojNUeCMxacjrVL_LJLHbWL69RXXjt-GhITcK1TchEZP2PhJ9Sjf_kwh8ygXYPrlCEAMotcuwy04DlLcbaBuY3haz7bKJg9CqWJX_ksDcEpv1tfrXhnTHk5pHRNNNcs0NtU4riCe4o8Z-qWGordJNF3dPNi_zjSYnig2iV5jhFvgHZUFoYtQ6BXVd1hJvNY0EJRNM_KvPSvKvjWkiO7k7k-wq1CSPzWZg1ZzNrC2cwFQss6C-k_nF6f7BGNEdyoi0]--></g></svg>